<svg width="18" height="18" viewBox="0 0 18 18" fill="none" xmlns="http://www.w3.org/2000/svg">
<g clip-path="url(#clip0_395_20596)">
<g clip-path="url(#clip1_395_20596)">
<path d="M17.1759 7.83169L11.2225 10.007C10.9262 10.1143 10.625 10.4604 10.625 10.7746V15.7541C10.625 16.0683 10.9381 16.2356 11.2333 16.1246L17.1808 13.9027C17.476 13.7916 17.6667 13.445 17.6667 13.1308V8.20598C17.6667 7.89181 17.4722 7.72335 17.1759 7.83169Z" fill="currentColor"/>
<path d="M6.27586 3.78358L2.24857 5.26125C1.96799 5.36362 1.91436 5.61875 2.12724 5.82729L3.63632 7.30333C3.85082 7.51187 4.25003 7.5877 4.52574 7.47341L8.61532 5.76933C8.89049 5.65504 8.92949 5.40316 8.70091 5.21087L7.19995 3.94662C6.97191 3.75379 6.55591 3.68066 6.27586 3.78358Z" fill="currentColor"/>
<path d="M9.12014 6.07422C9.03618 6.15222 8.93977 6.22101 8.82277 6.26922L4.73264 7.97384C4.58206 8.03668 4.41522 8.06864 4.23756 8.06864C4.22727 8.06864 4.2186 8.06593 4.20885 8.06593C3.84702 8.06322 3.49277 7.9213 3.25606 7.69055L2.20577 6.69009C2.20577 6.69009 1.41602 6.88455 1.41602 7.58114V8.9418C1.41602 9.23918 1.77081 9.59776 2.03514 9.73643L10.0827 13.9235V10.7748C10.0827 10.1931 10.5675 9.66818 11.036 9.49809L13.8917 8.45484L9.12014 6.07422Z" fill="currentColor"/>
<path d="M0.874675 8.94104V7.58037C0.874675 6.86592 1.3833 6.45317 1.79984 6.26467L1.74838 6.21483C1.51059 5.983 1.41038 5.68292 1.47322 5.3915C1.53551 5.10008 1.75055 4.86717 2.06147 4.75342L6.0893 3.27521C6.23338 3.22212 6.39318 3.19558 6.56326 3.19558C6.85305 3.19558 7.14176 3.27629 7.37468 3.41333V2.24767C7.37468 1.9335 7.18022 1.76504 6.88393 1.87337L0.930466 4.04817C0.634175 4.15596 0.333008 4.50208 0.333008 4.81625V9.79579C0.333008 10.11 0.646091 10.2773 0.9413 10.1663L1.44613 9.97779C1.15688 9.72862 0.874675 9.35379 0.874675 8.94104Z" fill="currentColor"/>
</g>
</g>
<defs>
<clipPath id="clip0_395_20596">
<rect width="18" height="18" fill="currentColor"/>
</clipPath>
<clipPath id="clip1_395_20596">
<rect width="17.3333" height="17.3333" fill="currentColor" transform="translate(0.333008 0.333313)"/>
</clipPath>
</defs>
</svg>
