<svg width="18" height="18" viewBox="0 0 18 18" fill="none" xmlns="http://www.w3.org/2000/svg">
<path d="M14.25 15H3.75V15.75C3.75 16.1642 3.41421 16.5 3 16.5H2.25C1.83579 16.5 1.5 16.1642 1.5 15.75V9L3.385 3.97331C3.60455 3.38786 4.16423 3 4.7895 3H13.2105C13.8358 3 14.3954 3.38786 14.615 3.97331L16.5 9V15.75C16.5 16.1642 16.1642 16.5 15.75 16.5H15C14.5858 16.5 14.25 16.1642 14.25 15.75V15ZM3.102 9H14.898L13.2105 4.5H4.7895L3.102 9ZM4.875 12.75C5.49632 12.75 6 12.2463 6 11.625C6 11.0037 5.49632 10.5 4.875 10.5C4.25368 10.5 3.75 11.0037 3.75 11.625C3.75 12.2463 4.25368 12.75 4.875 12.75ZM13.125 12.75C13.7463 12.75 14.25 12.2463 14.25 11.625C14.25 11.0037 13.7463 10.5 13.125 10.5C12.5037 10.5 12 11.0037 12 11.625C12 12.2463 12.5037 12.75 13.125 12.75Z" fill="currentColor"/>
</svg>
