<svg width="18" height="18" viewBox="0 0 18 18" fill="none" xmlns="http://www.w3.org/2000/svg">
<g clip-path="url(#clip0_395_20577)">
<path d="M6.10935 2.41986H6.10854H2.55225C2.51139 3.43888 3.32599 4.27276 4.3308 4.27276C5.33557 4.27276 6.15022 3.43881 6.10935 2.41986Z" fill="currentColor"/>
<path d="M7.77453 6.49496C7.77009 5.60956 7.04493 4.88708 6.15857 4.88708H2.49275C1.60622 4.88708 0.88124 5.60835 0.876797 6.49493C0.875843 6.68091 0.852563 11.3189 0.851571 11.5115C0.849662 11.8886 1.15384 12.1959 1.53098 12.1978C1.53215 12.1978 1.53333 12.1978 1.5345 12.1978C1.90999 12.1978 2.21534 11.8943 2.21725 11.5183C2.21828 11.3182 2.24156 6.67793 2.24248 6.50176C2.24248 6.50128 2.24248 6.50073 2.24248 6.50025C2.24329 6.42773 2.30255 6.36946 2.37507 6.36986C2.44759 6.37027 2.50616 6.4292 2.50616 6.50172C2.50619 8.20833 2.50649 17.9806 2.50649 17.9806C2.50649 18.4331 2.87338 18.8 3.3259 18.8C3.77842 18.8 4.14532 18.4331 4.14532 17.9806V11.431H4.4991V17.9806C4.4991 18.4331 4.866 18.8 5.31852 18.8C5.77104 18.8 6.13794 18.4331 6.13794 17.9806C6.13794 6.73819 6.12307 13.7354 6.12307 6.49658C6.12307 6.41767 6.18703 6.35367 6.26597 6.35367C6.34488 6.35367 6.40888 6.41763 6.40892 6.49654C6.40892 6.4983 6.40892 6.50003 6.40888 6.50183C6.40888 6.50183 6.43139 10.979 6.43411 11.5184C6.43598 11.8944 6.74134 12.1978 7.11686 12.1978C7.118 12.1978 7.11925 12.1978 7.12038 12.1978C7.49749 12.196 7.8017 11.8887 7.79979 11.5116C7.79876 11.3189 7.77545 6.68083 7.77453 6.49496Z" fill="currentColor"/>
<path d="M7.13589 1.35315C6.91377 1.35315 6.23363 1.35315 5.98809 1.35315C5.76308 0.772955 5.24344 0.339967 4.6125 0.238073C4.59774 0.104123 4.48428 -0.00012207 4.34636 -0.00012207C4.21057 -0.00012207 4.09865 0.101038 4.08114 0.232051C3.21285 0.351534 2.54395 1.09604 2.54395 1.99712C2.54395 1.99712 6.60827 1.98581 7.13589 1.98581C7.31059 1.98581 7.45222 1.84423 7.45222 1.66948C7.45225 1.49477 7.31063 1.35315 7.13589 1.35315Z" fill="currentColor"/>
<path d="M17.9065 10.6988C17.612 9.89292 16.8 7.5644 16.237 5.94848C15.9851 5.22534 15.3028 4.73981 14.537 4.73952C13.8383 4.73926 13.1434 4.73907 12.4539 4.73907C11.6913 4.73907 11.0119 5.21921 10.7567 5.93772C10.0578 7.90504 9.29796 10.0284 9.0529 10.6989C8.922 11.0569 9.10611 11.4533 9.46419 11.5843C9.8219 11.7151 10.2185 11.5312 10.3496 11.173C10.678 10.2749 11.4098 8.23687 11.7214 7.36715C11.5025 8.59069 11.0134 11.1011 10.7409 12.5076C10.6949 12.745 10.878 12.9644 11.1174 12.9644C11.2659 12.9644 11.4447 12.9644 11.6441 12.9644V17.9716C11.6441 18.4291 12.015 18.8 12.4725 18.8C12.93 18.8 13.3008 18.4292 13.3008 17.9716V12.9644C13.4199 12.9644 13.5394 12.9644 13.6585 12.9644V17.9716C13.6585 18.4291 14.0294 18.8 14.4868 18.8C14.9443 18.8 15.3152 18.4292 15.3152 17.9716V12.9644C15.5146 12.9644 15.6935 12.9644 15.8419 12.9644C16.0826 12.9644 16.2644 12.7447 16.2184 12.5076C15.4048 8.31042 15.2742 7.66369 15.238 7.36711C15.7908 8.93221 16.6002 11.1466 16.6098 11.1729C16.7407 11.5309 17.1369 11.7151 17.4952 11.5842C17.8532 11.4533 18.0374 11.0569 17.9065 10.6988Z" fill="currentColor"/>
<path d="M17.3451 4.18285C16.9528 3.3764 16.4931 3.08566 16.2142 2.94635C16.0026 2.84067 15.777 2.82543 15.5768 2.95714L15.6049 2.89123C15.6507 2.78387 15.6006 2.65972 15.4933 2.61397C15.4013 2.57479 15.2974 2.60626 15.2406 2.68344C15.3599 1.61783 14.5258 0.702942 13.4717 0.702942C12.4157 0.702942 11.5838 1.61977 11.7028 2.68341C11.646 2.60622 11.5422 2.57483 11.4502 2.61397C11.3428 2.65972 11.2928 2.78383 11.3385 2.89123L11.3666 2.95714C11.1665 2.8254 10.9409 2.84064 10.7293 2.94631C10.4504 3.08566 9.99064 3.37636 9.59841 4.18282C9.55545 4.27131 9.64009 4.36814 9.73335 4.33751C10.4271 4.10993 11.1295 4.31155 11.4032 4.17485C11.5545 4.09924 11.6716 3.96496 11.7217 3.79077C11.7478 3.85216 11.7885 3.99166 11.947 3.99166C12.0977 3.99166 12.2008 3.83707 12.1414 3.69747L12.115 3.63567C12.4416 4.01982 12.9281 4.26382 13.4718 4.26382C14.0155 4.26382 14.502 4.01978 14.8286 3.63563L14.8022 3.69743C14.7428 3.83704 14.8457 3.99162 14.9966 3.99162C15.1548 3.99162 15.1959 3.85176 15.2219 3.79077C15.2719 3.96434 15.3886 4.09895 15.5404 4.17481C15.8141 4.31155 16.5164 4.10989 17.2102 4.33748C17.3034 4.3681 17.3881 4.27127 17.3451 4.18285Z" fill="currentColor"/>
</g>
<defs>
<clipPath id="clip0_395_20577">
<rect width="18.8" height="18.8" fill="currentColor"/>
</clipPath>
</defs>
</svg>
