<svg width="26" height="26" viewBox="0 0 26 26" fill="none" xmlns="http://www.w3.org/2000/svg">
<path fill-rule="evenodd" clip-rule="evenodd" d="M13.7256 22.9429C11.6647 22.9429 10.707 22.6552 9.04225 21.504C7.98924 22.799 4.65472 23.8111 4.50931 22.0796C4.50931 20.7798 4.20845 19.6815 3.86748 18.4824C3.46132 17.0051 3 15.36 3 12.9763C3 7.28308 7.88394 3 13.6705 3C19.462 3 23.9999 7.49411 23.9999 13.029C24.0093 15.6461 22.9327 18.1599 21.0064 20.0186C19.0802 21.8772 16.4617 22.929 13.7256 22.9429ZM13.8109 7.92098C10.9928 7.78189 8.79655 9.64764 8.31016 12.5734C7.90901 14.9955 8.62104 17.9452 9.22778 18.0987C9.51861 18.1658 10.2507 17.5999 10.707 17.1634C11.4615 17.662 12.3401 17.9614 13.2543 18.0315C14.6579 18.0961 16.032 17.6314 17.0812 16.7372C18.1305 15.843 18.771 14.5908 18.8653 13.2496C18.9201 11.9057 18.4213 10.5949 17.476 9.59928C16.5307 8.60362 15.2146 8.00268 13.8109 7.92578V7.92098Z" fill="currentColor"/>
</svg>
