<svg width="18" height="18" viewBox="0 0 18 18" fill="none" xmlns="http://www.w3.org/2000/svg">
<path d="M13.5 5.25C13.5 5.4468 13.4874 5.64065 13.4629 5.83078C14.8284 6.60343 15.75 8.0691 15.75 9.75C15.75 12.2353 13.7353 14.25 11.25 14.25C10.724 14.25 10.2192 14.1598 9.75 13.9939V16.5H8.25V13.8002C7.68743 14.0878 7.05017 14.25 6.375 14.25C4.09682 14.25 2.25 12.4032 2.25 10.125C2.25 9.03555 2.67234 8.04473 3.36223 7.30739C3.65794 8.1174 4.12308 8.8458 4.71432 9.44917L5.78568 8.39932C5.24303 7.84552 4.84279 7.15325 4.64295 6.38016C4.54955 6.01906 4.5 5.6403 4.5 5.25C4.5 2.76472 6.51472 0.75 9 0.75C11.4853 0.75 13.5 2.76472 13.5 5.25Z" fill="currentColor"/>
</svg>
