<svg width="18" height="18" viewBox="0 0 18 18" fill="none" xmlns="http://www.w3.org/2000/svg">
<path d="M12.75 15H5.25V15.75C5.25 16.1642 4.91421 16.5 4.5 16.5H3C2.58579 16.5 2.25 16.1642 2.25 15.75V9H1.5V6H2.25V3.75C2.25 2.92157 2.92157 2.25 3.75 2.25H14.25C15.0785 2.25 15.75 2.92157 15.75 3.75V6H16.5V9H15.75V15.75C15.75 16.1642 15.4142 16.5 15 16.5H13.5C13.0858 16.5 12.75 16.1642 12.75 15.75V15ZM3.75 3.75V9H14.25V3.75H3.75ZM5.625 13.5C6.24632 13.5 6.75 12.9963 6.75 12.375C6.75 11.7537 6.24632 11.25 5.625 11.25C5.00368 11.25 4.5 11.7537 4.5 12.375C4.5 12.9963 5.00368 13.5 5.625 13.5ZM12.375 13.5C12.9963 13.5 13.5 12.9963 13.5 12.375C13.5 11.7537 12.9963 11.25 12.375 11.25C11.7537 11.25 11.25 11.7537 11.25 12.375C11.25 12.9963 11.7537 13.5 12.375 13.5Z" fill="currentColor"/>
</svg>
