<svg width="20" height="20" viewBox="0 0 20 20" fill="none" xmlns="http://www.w3.org/2000/svg">
<path d="M3.33208 1.6665C2.87291 1.6665 2.5 2.03655 2.5 2.493V17.5067C2.5 17.9538 2.87063 18.3332 3.32783 18.3332H16.6722C17.1292 18.3332 17.5 17.9573 17.5 17.4936L17.4998 5.83317L13.3333 1.6665H3.33208ZM8.75 6.24984H10.4167C10.4167 8.32479 12.203 10.5502 14.4302 11.2926L14.0488 12.9082C11.4362 12.5349 8.73508 13.6502 6.29558 15.2766L5.31275 13.9324C6.21791 13.2083 7.08577 11.9796 7.72916 10.5443C8.37025 9.11425 8.75 7.56441 8.75 6.24984ZM9.25 11.2262C9.47275 10.7292 9.67025 10.2134 9.83642 9.69025C10.2295 10.2941 10.7127 10.8483 11.2585 11.3293C10.4403 11.4758 9.63883 11.7162 8.86275 12.0228C9 11.7618 9.12925 11.4955 9.25 11.2262Z" fill="currentColor"/>
</svg>
