<svg width="18" height="18" viewBox="0 0 18 18" fill="none" xmlns="http://www.w3.org/2000/svg">
<path d="M5.71358 6.53425L8.11738 4.7878C8.38123 4.59551 8.70726 4.48907 9.04948 4.5006C9.88303 4.5211 10.615 5.06751 10.8697 5.86527C11.0094 6.30323 11.1368 6.59877 11.252 6.75187C11.9362 7.66162 13.0249 8.25 14.2509 8.25V9.75C12.6199 9.75 11.1626 9.00622 10.1997 7.83945L9.67648 10.8064L11.2223 12.1035L12.8897 16.6845L11.4802 17.1975L9.95023 12.9942L7.40755 10.8606C6.99689 10.5286 6.77428 9.9894 6.87247 9.43253L7.25392 7.26923L6.74629 7.63807L5.15103 9.8337L3.9375 8.95208L5.70085 6.525L5.71358 6.53425ZM10.1259 4.125C9.29744 4.125 8.62588 3.45343 8.62588 2.625C8.62588 1.79657 9.29744 1.125 10.1259 1.125C10.9543 1.125 11.6259 1.79657 11.6259 2.625C11.6259 3.45343 10.9543 4.125 10.1259 4.125ZM7.89718 14.011L5.48672 16.8837L4.33766 15.9195L6.56904 13.2602L7.12893 11.625L8.47228 12.75L7.89718 14.011Z" fill="currentColor"/>
</svg>
