<svg width="21" height="21" viewBox="0 0 21 21" fill="none" xmlns="http://www.w3.org/2000/svg">
<path d="M11.2515 1.75H9.74846C7.98631 1.75 7.04133 1.99367 6.18578 2.45122C5.33023 2.90878 4.65878 3.58023 4.20123 4.43578C3.74367 5.29133 3.5 6.23631 3.5 7.99847V13.0015C3.5 14.7637 3.74367 15.7087 4.20123 16.5642C4.65878 17.4198 5.33023 18.0912 6.18578 18.5488C7.04133 19.0063 7.98631 19.25 9.74846 19.25H11.2515C13.0137 19.25 13.9587 19.0063 14.8142 18.5488C15.6698 18.0912 16.3412 17.4198 16.7988 16.5642C17.2563 15.7087 17.5 14.7637 17.5 13.0015V7.99847C17.5 6.23631 17.2563 5.29133 16.7988 4.43578C16.3412 3.58023 15.6698 2.90878 14.8142 2.45122C13.9587 1.99367 13.0137 1.75 11.2515 1.75ZM9.625 9.625V5.25H11.375V9.625H9.625ZM6.78808 12.0382L8.02553 10.8008L10.5004 13.2757L12.9753 10.8008L14.2127 12.0382L10.5004 15.7505L6.78808 12.0382Z" fill="currentColor"/>
</svg>
