<svg width="26" height="26" viewBox="0 0 26 26" fill="none" xmlns="http://www.w3.org/2000/svg">
<path d="M2.3269 12.7934C8.01155 10.3167 11.8022 8.68394 13.6988 7.89504C19.1142 5.64261 20.2395 5.25134 20.9729 5.23842C21.1342 5.23558 21.4949 5.27556 21.7285 5.46514C21.9258 5.62521 21.98 5.84146 22.0061 5.99322C22.032 6.145 22.0643 6.49073 22.0387 6.76087C21.7452 9.84429 20.4754 17.3269 19.8294 20.7804C19.5561 22.2417 19.0179 22.7316 18.4968 22.7796C17.3644 22.8838 16.5044 22.0312 15.4077 21.3123C13.6915 20.1873 12.7219 19.4869 11.0559 18.389C9.13069 17.1204 10.3788 16.423 11.4759 15.2835C11.7631 14.9852 16.7525 10.447 16.8491 10.0353C16.8611 9.98381 16.8723 9.79188 16.7583 9.69054C16.6443 9.58919 16.4761 9.62385 16.3546 9.65142C16.1825 9.69049 13.4407 11.5026 8.12936 15.088C7.35113 15.6223 6.64623 15.8828 6.01467 15.8691C5.31841 15.854 3.97911 15.4754 2.98347 15.1518C1.76229 14.7548 0.791708 14.5449 0.876224 13.8708C0.920244 13.5197 1.4038 13.1606 2.3269 12.7934Z" fill="currentColor"/>
</svg>
