<svg width="48" height="114" viewBox="0 0 48 114" fill="none" xmlns="http://www.w3.org/2000/svg">
<path d="M2.26809 42.5711C4.32167 38.2833 6.49253 34.0478 9.54949 30.3482C12.6064 26.6486 16.1452 23.4453 20.1136 20.8556C28.0502 15.6761 37.4703 12.8464 46.9248 13.4074C48.1375 13.5265 47.3308 12.1819 46.5224 12.1026C36.716 11.3845 27.0089 14.227 18.798 19.7061C10.9786 24.9379 3.6249 32.9092 1.04269 42.1652C0.950662 42.6868 2.00643 43.1576 2.26809 42.5711Z" fill="white"/>
<path d="M0.112631 76.6664C0.212467 77.6682 0.12869 78.5194 0.395484 79.5046C0.662279 80.4897 1.11269 81.6253 1.54644 82.5937C2.43058 84.6976 3.29792 86.6346 4.49934 88.5382C6.71858 92.1952 9.42216 95.6352 12.5766 98.5245C18.9021 104.47 27.098 108.881 35.7959 109.868C36.8143 109.936 36.7814 107.915 35.9133 107.665C27.6497 105.959 19.8876 102.517 13.5955 96.9056C10.4577 94.1832 7.7543 90.7431 5.5517 87.253C4.53388 85.4997 3.51597 83.7464 2.83207 81.9597C2.38167 80.8243 1.94792 79.8559 1.66449 78.7038C1.41433 77.8856 1.0305 77.418 0.613387 76.6165C0.379871 75.9653 0.0793517 76.3325 0.112631 76.6664Z" fill="white"/>
</svg>
