<svg width="24" height="56" viewBox="0 0 24 56" fill="none" xmlns="http://www.w3.org/2000/svg">
<path d="M0.0557768 37.9669C0.105218 38.463 0.0637297 38.8846 0.195851 39.3724C0.327973 39.8603 0.551024 40.4226 0.765826 40.9022C1.20367 41.9441 1.63319 42.9034 2.22816 43.8461C3.32717 45.6571 4.66603 47.3606 6.22818 48.7915C9.36069 51.7358 13.4195 53.92 17.7268 54.4092C18.2311 54.4425 18.2149 53.4421 17.785 53.3179C13.6927 52.4732 9.84874 50.7688 6.73275 47.9897C5.17885 46.6416 3.84008 44.938 2.74931 43.2096C2.24526 42.3413 1.74118 41.4731 1.40249 40.5883C1.17945 40.026 0.964649 39.5464 0.824287 38.9759C0.700405 38.5707 0.510323 38.3392 0.303761 37.9422C0.18812 37.6197 0.0392965 37.8016 0.0557768 37.9669Z" fill="#FF960E"/>
<path d="M1.12364 21.082C2.14061 18.9586 3.21566 16.8611 4.72953 15.029C6.24339 13.1969 7.99587 11.6106 9.96106 10.3281C13.8915 7.7631 18.5564 6.36175 23.2385 6.63958C23.839 6.69855 23.4396 6.0327 23.0392 5.99339C18.1829 5.63781 13.3758 7.04548 9.30956 9.75881C5.43727 12.3497 1.79556 16.2973 0.516793 20.881C0.471221 21.1393 0.99406 21.3725 1.12364 21.082Z" fill="#FF960E"/>
</svg>
