<svg width="39" height="38" viewBox="0 0 39 38" fill="none" xmlns="http://www.w3.org/2000/svg">
<path d="M3.76494 25.471C6.44015 19.3043 9.50738 13.3123 12.9457 7.53618C13.2947 6.94994 13.0073 6.06329 12.3939 5.77725C11.7239 5.46478 11.0086 5.70132 10.6349 6.32907C7.19664 12.1052 4.12941 18.0972 1.4542 24.2639C1.18375 24.8874 1.33683 25.7107 2.00602 26.0228C2.60789 26.3035 3.47486 26.1398 3.76494 25.471Z" fill="#FF960E"/>
<path d="M13.0087 29.5624C19.3319 24.1429 25.6929 18.7675 32.0923 13.4383C33.901 11.932 35.7128 10.4295 37.5273 8.93037C38.0693 8.48255 38.3289 7.76904 37.9158 7.12885C37.5689 6.59118 36.6598 6.28964 36.1143 6.74034C29.567 12.1494 23.058 17.605 16.5876 23.1058C14.7506 24.6675 12.9169 26.233 11.0861 27.8021C10.5513 28.2605 10.6925 29.2087 11.1672 29.6436C11.7389 30.1673 12.4726 30.0219 13.0087 29.5624Z" fill="#FF960E"/>
<path d="M16.9655 34.3586C21.5477 33.1124 26.1747 32.114 30.8506 31.3767C31.5454 31.2671 32.1203 30.7546 32.0782 30.0015C32.042 29.3524 31.4021 28.6636 30.7031 28.7738C25.8016 29.5467 20.9423 30.5791 16.154 31.8814C15.4751 32.066 15.1099 32.8814 15.3212 33.5257C15.5499 34.2236 16.284 34.544 16.9655 34.3586Z" fill="#FF960E"/>
</svg>
