<svg width="28" height="56" viewBox="0 0 28 56" fill="none" xmlns="http://www.w3.org/2000/svg">
<path d="M1.24437 0.375807C0.87337 1.56178 0.366606 2.48805 0.193269 3.73585C0.0199313 4.98365 -0.0176398 6.49115 0.00668466 7.80079C-0.00649973 10.6177 0.0419505 13.2369 0.485922 15.9799C1.23804 21.2062 2.64517 26.4203 4.83061 31.227C9.13961 41.0382 16.3152 50.0102 25.7157 55.338C26.8399 55.9066 27.7793 53.5965 26.9147 52.892C18.3544 46.9591 11.2031 39.2969 6.77058 29.8811C4.52332 25.272 3.11649 20.0578 2.30254 15.0291C1.9944 12.5457 1.68616 10.0622 1.77334 7.70242C1.81085 6.19513 1.78652 4.88549 2.02169 3.44003C2.1332 2.38989 1.92337 1.67324 1.83721 0.561263C1.88689 -0.291216 1.36803 -0.0195162 1.24437 0.375807Z" fill="#FF960E"/>
</svg>
