<svg width="356" height="287" viewBox="0 0 356 287" fill="none" xmlns="http://www.w3.org/2000/svg">
<path d="M28.4653 48.2884C29.036 40.1089 35.0625 33.3487 43.123 31.8461L55.1789 29.5987C56.1117 29.4248 57.0568 29.325 58.0054 29.3001L175.309 26.2221L267.778 21.5555L288.327 23.2505C289.806 23.3724 291.263 23.6766 292.667 24.1562L306.733 28.9617C309.729 29.9855 312.403 31.7817 314.483 34.169L323.1 44.0559C323.867 44.936 324.546 45.8887 325.129 46.9004L331.327 57.6658C332.98 60.5359 333.809 63.8062 333.722 67.1169L332.161 126.958C332.125 128.322 331.935 129.678 331.593 130.999L316.732 188.415C315.491 193.208 312.331 197.278 307.995 199.668L273.546 218.657C271.768 219.637 269.837 220.309 267.835 220.645L244.947 224.485C244.095 224.628 243.234 224.71 242.37 224.729L215.603 225.327L207.828 224.695C202.908 224.296 198.82 228.435 199.282 233.35L199.66 237.377C200.31 244.3 191.408 247.656 187.326 242.027C187.107 241.725 186.863 241.441 186.598 241.179L172.403 227.143C170.708 225.466 168.696 224.144 166.485 223.251L143.62 214.02C140.952 212.943 138.064 212.521 135.199 212.79L55.6595 220.26C53.5318 220.46 51.3856 220.279 49.3213 219.727L34.2773 215.699C26.2072 213.538 20.6844 206.109 20.9409 197.758L23.2264 123.368L28.4653 48.2884Z" fill="#FFEACF"/>
<path d="M336.429 131.386C333.087 162.136 324.013 194.69 296.809 212.649C269.703 230.546 235.131 230.34 203.787 229.08C202.295 238.833 200.804 248.587 199.312 258.34C199.801 261.065 200.025 263.889 199.962 266.804C200.058 267.079 200.051 267.348 199.951 267.601C199.948 267.676 199.951 267.75 199.948 267.825C199.853 269.928 196.64 270.165 194.463 269.134C194.296 269.076 194.13 269.015 193.977 268.936C193.333 268.601 192.688 268.268 192.044 267.934C191.194 267.493 190.409 266.528 190.563 265.515C190.973 262.838 191.382 260.16 191.792 257.483C189.449 245.777 181.679 235.824 171.685 228.916C157.578 219.165 141.302 216.452 124.448 216.986C106.36 217.558 88.5728 221.393 70.5925 223.112C57.6873 224.345 43.6447 224.577 31.8509 218.309C19.2 211.584 14.9441 198.803 14.6342 185.148C14.2198 166.903 15.9415 148.413 16.7229 130.185C17.5355 111.224 18.2779 92.2579 19.1605 73.3003C19.7469 60.7086 20.7777 46.3913 29.6701 36.5829C40.1998 24.9686 57.2993 25.7349 71.6277 25.2566C90.7895 24.6164 109.953 23.9761 129.114 23.336C167.438 22.0556 205.763 20.7752 244.086 19.4949C272.437 18.5479 308.087 13.4588 327.031 40.0153C336.052 52.6585 338.738 68.3436 339.019 83.5639C339.313 99.4267 338.143 115.615 336.429 131.386ZM327.647 56.3458C322.41 40.349 310.98 28.4287 294.224 25.122C279.102 22.1369 263.032 23.9281 247.753 24.4372C211.928 25.6339 176.103 26.8308 140.279 28.0275C122.783 28.6115 105.288 29.1967 87.791 29.7808C79.5886 30.0546 71.3805 30.2553 63.1817 30.6088C54.1694 30.9967 44.427 31.7949 37.5007 38.3086C27.305 47.8977 27.0707 64.0769 26.5054 77.0819C25.7532 94.3942 25.0214 111.707 24.2794 129.02C23.5339 146.403 22.439 163.813 22.0909 181.208C21.7586 197.854 26.3208 213.479 44.2943 217.552C61.2404 221.392 79.7613 216.786 96.6198 214.502C113.796 212.174 131.698 210.199 148.853 213.793C166.483 217.488 184.687 228.157 193.882 243.8C194.799 237.799 195.717 231.796 196.635 225.794C196.838 224.465 198.639 223.888 199.778 223.936C228.09 225.125 259.093 226.202 284.904 212.556C310.501 199.022 322.165 172.394 326.906 145.025C329.155 132.04 330.12 118.874 330.845 105.727C331.751 89.2855 332.85 72.2391 327.647 56.3458Z" fill="#FFEACF"/>
</svg>
