<svg width="333" height="256" viewBox="0 0 333 256" fill="none" xmlns="http://www.w3.org/2000/svg">
<path d="M7.42021 131.267C13.6229 161.57 25.7018 193.133 54.4651 208.47C83.1262 223.753 117.527 220.315 148.617 216.13C151.013 225.701 153.41 235.273 155.808 244.844C155.576 247.603 155.616 250.435 155.951 253.331C155.882 253.615 155.914 253.881 156.037 254.124C156.047 254.199 156.051 254.272 156.061 254.347C156.352 256.432 159.574 256.367 161.645 255.137C161.805 255.064 161.965 254.988 162.11 254.894C162.72 254.501 163.33 254.109 163.941 253.716C164.746 253.197 165.437 252.163 165.189 251.169C164.531 248.542 163.873 245.915 163.214 243.287C164.452 231.414 171.258 220.778 180.562 212.966C193.696 201.938 209.647 197.715 226.477 196.671C244.539 195.549 262.607 197.704 280.669 197.734C293.633 197.755 307.636 196.673 318.792 189.33C330.759 181.452 333.801 168.329 332.832 154.704C331.539 136.5 328.096 118.253 325.614 100.178C323.032 81.3755 320.519 62.5619 317.868 43.7698C316.107 31.2881 313.741 17.1299 303.971 8.196C292.401 -2.38285 275.448 -0.0210487 261.138 0.842505C242 1.99686 222.861 3.15119 203.724 4.30555C165.448 6.61426 127.172 8.92296 88.8965 11.2317C60.5808 12.9398 24.6113 11.2064 8.23336 39.4179C0.434572 52.8492 -0.773194 68.7168 0.370276 83.8966C1.56039 99.7175 4.23943 115.725 7.42021 131.267ZM9.14739 55.7344C12.8652 39.3181 23.1312 26.3812 39.5042 21.5223C54.281 17.1362 70.4485 17.4169 85.7082 16.4952C121.487 14.337 157.268 12.1787 193.047 10.0205C210.52 8.96598 227.994 7.91276 245.469 6.85829C253.661 6.36393 261.852 5.79624 270.048 5.38153C279.057 4.9251 288.831 4.80878 296.336 10.6463C307.384 19.2401 309.13 35.3265 310.909 48.2216C313.276 65.3877 315.624 82.5564 317.981 99.7238C320.349 116.961 323.067 134.193 325.04 151.479C326.927 168.02 323.846 184.004 306.332 189.739C289.819 195.147 270.949 192.293 253.951 191.596C236.632 190.884 218.624 190.592 201.881 195.774C184.673 201.101 167.546 213.426 159.855 229.86C158.38 223.971 156.905 218.08 155.43 212.191C155.103 210.886 153.256 210.48 152.126 210.634C124.05 214.465 93.2838 218.436 66.3095 207.263C39.5597 196.183 25.456 170.762 18.1766 143.956C14.7235 131.238 12.5324 118.22 10.5808 105.198C8.14133 88.9136 5.45349 72.0446 9.14739 55.7344Z" fill="black" fill-opacity="0.05"/>
</svg>
