<svg width="46" height="46" viewBox="0 0 46 46" fill="none" xmlns="http://www.w3.org/2000/svg">
<g clip-path="url(#clip0_2002_11)">
<path d="M41.8054 20.3129L28.1125 25.3161C27.431 25.5628 26.7383 26.3589 26.7383 27.0815V38.5344C26.7383 39.257 27.4584 39.642 28.1374 39.3866L41.8167 34.2762C42.4956 34.0208 42.9342 33.2234 42.9342 32.5009V21.1737C42.9342 20.4512 42.4869 20.0637 41.8054 20.3129Z" fill="#FF960E"/>
<path d="M16.7361 11.0023L7.47329 14.4009C6.82795 14.6364 6.70461 15.2232 7.19422 15.7028L10.6651 19.0977C11.1585 19.5774 12.0766 19.7518 12.7108 19.4889L22.1168 15.5695C22.7497 15.3066 22.8394 14.7273 22.3137 14.2851L18.8615 11.3773C18.337 10.9338 17.3802 10.7656 16.7361 11.0023Z" fill="#45B5A9"/>
<path d="M23.2786 16.2708C23.0855 16.4502 22.8638 16.6084 22.5947 16.7193L13.1874 20.6399C12.841 20.7844 12.4573 20.8579 12.0487 20.8579C12.025 20.8579 12.0051 20.8517 11.9827 20.8517C11.1504 20.8455 10.3357 20.519 9.79124 19.9883L7.37557 17.6873C7.37557 17.6873 5.55914 18.1345 5.55914 19.7367V22.8662C5.55914 23.5502 6.37516 24.3749 6.98313 24.6938L25.4925 34.3241V27.0821C25.4925 25.7441 26.6075 24.5369 27.6851 24.1457L34.2532 21.7462L23.2786 16.2708Z" fill="#FF960E"/>
<path d="M4.31334 22.8643V19.7348C4.31334 18.0915 5.48318 17.1422 6.44122 16.7086L6.32287 16.594C5.77595 16.0608 5.54547 15.3706 5.68998 14.7003C5.83325 14.0301 6.32785 13.4944 7.04296 13.2328L16.307 9.83287C16.6384 9.71078 17.0059 9.64973 17.3971 9.64973C18.0636 9.64973 18.7276 9.83536 19.2633 10.1506V7.46953C19.2633 6.74694 18.8161 6.35949 18.1346 6.60865L4.44166 11.6107C3.76019 11.8586 3.0675 12.6547 3.0675 13.3773V24.8302C3.0675 25.5528 3.7876 25.9378 4.46658 25.6824L5.62769 25.2488C4.96242 24.6757 4.31334 23.8136 4.31334 22.8643Z" fill="#FF960E"/>
</g>
<defs>
<clipPath id="clip0_2002_11">
<rect width="39.8667" height="39.8667" fill="white" transform="translate(3.06668 3.06665)"/>
</clipPath>
</defs>
</svg>
