<svg width="46" height="46" viewBox="0 0 46 46" fill="none" xmlns="http://www.w3.org/2000/svg">
<path d="M40.6628 27.6328L40.4773 27.36L40.3237 27.652C39.3213 29.5563 35.989 30.6944 33.3464 30.6944C29.9815 30.6944 13.3681 30.1887 11.2053 30.0655C10.7777 30.0401 10.3312 30.0283 9.79978 30.0283C9.47018 30.0283 9.16412 30.0325 8.86812 30.0363C8.61103 30.0397 8.36844 30.043 8.14052 30.043C7.42933 30.043 6.84454 29.8527 6.41762 29.7137C6.14096 29.6237 5.92239 29.5526 5.74138 29.5526C5.60182 29.5526 5.48873 29.5956 5.40528 29.6803C5.296 29.7912 5.24694 29.9634 5.25082 30.2223C5.28395 32.4613 6.46945 32.6344 8.1406 32.6344C8.37011 32.6344 8.61444 32.6311 8.87343 32.6277C9.16808 32.6238 9.47279 32.6197 9.79978 32.6197C10.3231 32.6197 10.7624 32.6313 11.1823 32.6562C13.3477 32.7795 29.9781 33.2857 33.3464 33.2857C35.0561 33.2857 36.946 32.8317 38.4019 32.0714C40.0774 31.1964 41 30.019 41 28.7559C41 28.3398 40.8865 27.9618 40.6628 27.6328Z" fill="#FF960E"/>
<path d="M7.91606 28.9679C8.1439 28.9679 8.38625 28.9646 8.64326 28.9612C8.93561 28.9573 9.23803 28.9532 9.56248 28.9532C10.0828 28.9532 10.5184 28.9648 10.9341 28.9897C13.0825 29.113 29.5837 29.6191 32.9264 29.6191C34.6233 29.6191 36.499 29.165 37.9439 28.4045C39.6065 27.5294 40.5221 26.3521 40.5221 25.0893C40.5221 23.2578 38.4326 22.6664 36.2203 22.0401C35.0141 21.6987 33.7669 21.3456 32.7129 20.7806C32.2382 20.5256 31.5145 20.156 30.6324 19.7142C30.6338 19.6887 30.6363 19.6634 30.6363 19.6375C30.6363 18.8835 30.0229 18.2701 29.2688 18.2701C28.9303 18.2701 28.6209 18.3943 28.3819 18.5988C28.0624 18.4417 27.7349 18.281 27.4017 18.1178C27.3719 17.39 26.7721 16.8066 26.0371 16.8066C25.7402 16.8066 25.4659 16.9028 25.2416 17.0641C24.9428 16.9188 24.6435 16.7735 24.3452 16.6287C24.3515 16.5755 24.3557 16.5216 24.3557 16.4666C24.3557 15.7127 23.7423 15.0993 22.9883 15.0993C22.6099 15.0993 22.2671 15.2539 22.0193 15.503C19.1045 14.0956 16.7149 12.9524 16.5007 12.85C16.3703 12.761 16.2249 12.714 16.0789 12.714C15.8435 12.714 15.6173 12.8284 15.4734 13.0205L13.8634 15.1796C13.6477 15.4718 13.5629 15.7663 13.6115 16.0552C13.7077 16.6275 14.2982 17.033 14.7725 17.3587C14.9614 17.4884 15.2423 17.6812 15.2874 17.7748C15.2867 17.7755 15.286 17.7762 15.2854 17.7768C15.023 18.0333 14.1808 18.4152 12.9358 18.4152C12.2161 18.4152 11.4577 18.2777 10.7427 18.0173C9.86767 17.6987 9.50613 16.8246 9.21568 16.1222C8.97278 15.5347 8.76293 15.0275 8.2967 15.0275C7.943 15.0275 7.53376 15.3448 6.92622 16.091C4.8612 18.7158 4.95773 22.7262 5.02826 25.6545C5.03579 25.9681 5.04308 26.2695 5.04728 26.5555C5.08009 28.7949 6.25696 28.9679 7.91606 28.9679ZM25.2237 20.8313C25.2237 20.8313 25.4886 20.5692 25.816 20.6672C26.1009 20.7525 26.7746 20.934 27.1868 21.0364C27.5392 21.1239 27.221 21.401 27.221 21.401L21.8701 26.2987C21.8658 26.3018 21.6482 26.5003 21.318 26.5003C20.7849 26.5003 19.7514 26.4963 19.3302 26.4963C18.9802 26.4963 19.2706 26.2009 19.2706 26.2009C19.2706 26.2009 25.223 20.8313 25.2237 20.8313ZM21.1495 19.6753C21.1509 19.6741 21.5625 19.2681 22.058 19.425C22.3092 19.5045 22.8989 19.6508 23.2749 19.7561C23.5965 19.846 23.2555 20.1778 23.2553 20.1781L16.6317 26.1833C16.6271 26.1867 16.4739 26.4635 15.9576 26.4635C15.3751 26.4635 14.2634 26.4901 13.8086 26.4901C13.5515 26.4901 13.7801 26.2136 13.7799 26.2138L21.1495 19.6753Z" fill="#45B5A9"/>
</svg>
