<svg width="46" height="46" viewBox="0 0 46 46" fill="none" xmlns="http://www.w3.org/2000/svg">
<path d="M23 33.0625C22.7498 33.0624 22.5039 32.9971 22.2866 32.8729L9.70313 25.6809C9.59378 25.6178 9.46974 25.5845 9.34349 25.5846C9.21723 25.5846 9.09321 25.6179 8.98392 25.6812C8.87462 25.7444 8.7839 25.8352 8.7209 25.9447C8.65789 26.0541 8.62481 26.1781 8.625 26.3044V33.0625C8.62479 33.319 8.69324 33.571 8.82327 33.7921C8.95329 34.0133 9.14013 34.1957 9.36442 34.3203L22.3019 41.5078C22.5155 41.6264 22.7557 41.6887 23 41.6887C23.2443 41.6887 23.4845 41.6264 23.6981 41.5078L36.6356 34.3203C36.8599 34.1957 37.0467 34.0133 37.1767 33.7921C37.3068 33.571 37.3752 33.319 37.375 33.0625V26.3044C37.3752 26.1781 37.3421 26.0541 37.2791 25.9447C37.2161 25.8352 37.1254 25.7444 37.0161 25.6812C36.9068 25.6179 36.7828 25.5846 36.6565 25.5846C36.5303 25.5845 36.4062 25.6178 36.2969 25.6809L23.7134 32.8729C23.4961 32.9971 23.2502 33.0624 23 33.0625Z" fill="#FF960E"/>
<path d="M44.5553 17.1153C44.5553 17.1153 44.5553 17.1081 44.5553 17.1054C44.5321 16.8775 44.4547 16.6585 44.3297 16.4666C44.2047 16.2747 44.0356 16.1155 43.8366 16.0021L23.7116 4.50211C23.4943 4.37794 23.2484 4.31262 22.9982 4.31262C22.748 4.31262 22.5021 4.37794 22.2849 4.50211L2.15986 16.0021C1.93991 16.1279 1.7571 16.3095 1.62996 16.5287C1.50282 16.7478 1.43585 16.9967 1.43585 17.25C1.43585 17.5034 1.50282 17.7523 1.62996 17.9714C1.7571 18.1906 1.93991 18.3722 2.15986 18.498L22.2849 29.998C22.5021 30.1221 22.748 30.1875 22.9982 30.1875C23.2484 30.1875 23.4943 30.1221 23.7116 29.998L41.418 19.8807C41.4453 19.8649 41.4764 19.8566 41.508 19.8566C41.5396 19.8566 41.5706 19.865 41.598 19.8808C41.6253 19.8967 41.648 19.9195 41.6637 19.9469C41.6794 19.9743 41.6876 20.0054 41.6875 20.037V33.0221C41.6875 33.7957 42.2823 34.4596 43.0558 34.4982C43.2502 34.5076 43.4444 34.4774 43.6268 34.4095C43.8091 34.3416 43.9758 34.2373 44.1167 34.1031C44.2575 33.9689 44.3697 33.8074 44.4463 33.6286C44.523 33.4497 44.5625 33.2571 44.5625 33.0625V17.25C44.5624 17.205 44.56 17.16 44.5553 17.1153Z" fill="#45B5A9"/>
</svg>
