<svg width="46" height="46" viewBox="0 0 46 46" fill="none" xmlns="http://www.w3.org/2000/svg">
<path d="M33.0625 24.7251C33.0625 24.4376 33.0625 24.2938 33.0625 24.0063C33.0625 14.3751 27.3125 5.89385 18.975 3.1626C17.5375 3.4501 16.1 3.88135 14.8063 4.45635C20.2688 8.76885 23.575 15.2376 23.8625 22.2813C26.8813 23.8626 30.0438 24.5813 33.0625 24.7251Z" fill="#FF960E"/>
<path d="M22.7125 24.8688C19.9812 26.5938 17.6812 28.8938 16.1 31.625C16.2437 31.7688 16.5312 31.9125 16.675 31.9125C25.1562 36.8 35.5062 35.9375 41.975 29.9C42.4062 28.6063 42.8375 27.1688 42.9812 25.7313C40.1062 27.025 36.9437 27.6 33.7812 27.6C29.9 27.6 26.1625 26.7375 22.7125 24.8688Z" fill="#45B5A9"/>
<path d="M36.0813 24.0063C36.0813 24.15 36.0813 24.4375 36.0813 24.5813C38.525 24.2938 40.9688 23.575 43.125 22.425C42.8375 12.3625 35.075 4.02505 25.1562 3.0188C31.625 7.3313 36.0813 15.2375 36.0813 24.0063Z" fill="#FF960E"/>
<path d="M16.675 11.2126C16.8188 11.0688 16.9625 11.0688 17.1062 10.9251C15.8125 9.05635 14.0875 7.33135 12.2188 6.0376C6.6125 9.63135 2.875 15.9563 2.875 23.0001C2.875 25.3001 3.30625 27.6001 4.025 29.6126C5.03125 22.2813 9.4875 15.2376 16.675 11.2126Z" fill="#FF960E"/>
<path d="M28.175 37.9501C23.7188 37.9501 19.2625 36.8001 15.0938 34.3563C14.95 34.2126 14.8062 34.2126 14.6625 34.0688C13.8 36.0813 13.225 38.2376 12.9375 40.3938C15.8125 42.1188 19.2625 43.1251 22.8562 43.1251C29.1812 43.1251 34.9312 40.1063 38.525 35.5063C35.5062 37.0876 31.9125 37.9501 28.175 37.9501Z" fill="#FF960E"/>
<path d="M21.1312 22.425C20.9875 19.2625 20.125 16.1 18.6875 13.3688C18.5437 13.5125 18.2562 13.5125 18.1125 13.6563C10.0625 18.2563 5.74995 26.8813 6.89995 35.075C7.9062 36.3688 9.0562 37.6625 10.35 38.6688C11.5 32.0563 15.3812 26.0188 21.1312 22.425Z" fill="#FF960E"/>
</svg>
