<svg width="46" height="46" viewBox="0 0 46 46" fill="none" xmlns="http://www.w3.org/2000/svg">
<path d="M39.8667 27.4825V31.08C39.8667 35.0882 36.9427 38.8664 32.9673 39.967C32.6881 40.0327 32.3924 40.0327 32.1296 39.967C30.1912 39.4413 28.4828 38.2586 27.2836 36.7309C25.9859 35.121 25.2302 33.1334 25.2302 31.08V27.4825C25.2302 26.7925 25.7394 26.0369 26.3637 25.7741L30.9304 23.9014C31.9653 23.4907 33.1152 23.4907 34.1501 23.9014L35.7928 24.5749L38.7332 25.7741C39.3574 26.0369 39.8667 26.7925 39.8667 27.4825Z" fill="#FF960E"/>
<path d="M36.4979 20.3201L36.2022 22.0778L35.0523 21.6179C33.4261 20.9608 31.6519 20.9608 29.9928 21.6179L25.4097 23.507C23.8491 24.1641 22.7649 25.7903 22.7649 27.4823V31.0798C22.7649 33.0346 23.307 34.9895 24.3091 36.7307H12.2352C9.98472 36.7307 7.86564 34.9402 7.48782 32.7225L5.41801 20.3201C5.15518 18.7924 5.92725 16.739 7.14285 15.7698L17.9518 7.1292C19.6109 5.79861 22.305 5.79861 23.9641 7.14562L34.7731 15.7698C35.9722 16.739 36.7607 18.7924 36.4979 20.3201Z" fill="#45B5A9"/>
</svg>
