<svg width="46" height="46" viewBox="0 0 46 46" fill="none" xmlns="http://www.w3.org/2000/svg">
<path d="M15.1608 21.9459C15.2459 21.6215 15.4146 21.3251 15.65 21.0863C15.8854 20.8475 16.1794 20.6747 16.5025 20.5851C17.5129 20.2833 18.4297 19.7292 19.1667 18.9751C19.834 18.2938 20.3214 17.4573 20.585 16.5409C20.6746 16.2178 20.8475 15.9238 21.0863 15.6884C21.3251 15.4529 21.6215 15.2843 21.9458 15.1992C22.2804 15.0999 22.6358 15.0938 22.9735 15.1817C23.3113 15.2695 23.6187 15.4479 23.8625 15.6976L40.4992 32.3534C41.0865 32.8729 41.5614 33.5071 41.8946 34.2169C42.2278 34.9268 42.4123 35.6972 42.4368 36.481C42.4612 37.2648 42.3251 38.0452 42.0368 38.7745C41.7485 39.5037 41.3141 40.1662 40.7602 40.7214C40.2064 41.2765 39.5449 41.7125 38.8164 42.0025C38.0878 42.2925 37.3077 42.4305 36.5238 42.4079C35.74 42.3853 34.9691 42.2026 34.2585 41.8711C33.5479 41.5396 32.9126 41.0662 32.3917 40.4801L15.6592 23.7859C15.4228 23.5493 15.2525 23.255 15.165 22.9322C15.0776 22.6095 15.0762 22.2694 15.1608 21.9459Z" fill="#45B5A9"/>
<path d="M4.5425 7.05328C5.74624 5.95701 7.15556 5.11052 8.68881 4.56286C10.2221 4.0152 11.8488 3.77726 13.4746 3.86283C15.1005 3.94841 16.6932 4.35579 18.1605 5.06137C19.6278 5.76695 20.9405 6.75671 22.0225 7.97328C22.9056 8.87966 23.5981 9.95386 24.059 11.1324C24.5198 12.311 24.7398 13.5699 24.7058 14.8349C24.7058 17.3907 23.7087 19.8455 21.9267 21.6775C20.2674 23.3738 18.0601 24.4265 15.6975 24.6483H15.0075C13.9765 24.6644 12.9529 24.4725 11.9979 24.0839C11.0428 23.6953 10.176 23.118 9.44917 22.3866C7.83273 20.5454 6.80468 18.2624 6.4975 15.8316C6.16329 13.6113 5.37371 11.484 4.17834 9.58328C3.91717 9.19063 3.80992 8.71548 3.8771 8.24871C3.94429 7.78195 4.18119 7.35633 4.5425 7.05328Z" fill="#FF960E"/>
</svg>
