<svg width="45" height="45" viewBox="0 0 45 45" fill="none" xmlns="http://www.w3.org/2000/svg">
<rect x="13" y="13" width="15" height="15" rx="3" fill="#FF960E"/>
<path d="M25.4182 10.8364C24.5031 9.70884 23.3619 8.7861 22.0685 8.12781C20.775 7.46953 19.358 7.09037 17.9091 7.01482C16.458 6.93706 15.0068 7.166 13.6499 7.68678C12.293 8.20755 11.0607 9.00848 10.0331 10.0375C9.00559 11.0665 8.2058 12.3006 7.68578 13.6595C7.16576 15.0184 6.93715 16.4717 7.0148 17.9249C7.08951 19.3723 7.46634 20.7879 8.12097 22.0805C8.77561 23.3731 9.69352 24.5139 10.8155 25.4294L24.341 36.6476C25.9912 38.1934 28.1766 39.0365 30.4359 38.9988C32.6952 38.9611 34.8513 38.0455 36.4491 36.4454C38.0469 34.8454 38.9611 32.6861 38.9988 30.4235C39.0365 28.161 38.1946 25.9724 36.651 24.3199L25.4182 10.8364ZM19.4017 19.4196L18.2476 27.5867L15.4625 25.2907L16.4165 18.6183L13.8776 16.0757L16.0626 13.8875L18.6015 16.4301L25.2489 15.4747L27.557 18.2639L19.4017 19.4196Z" fill="#45B5A9"/>
</svg>
