<svg width="45" height="45" viewBox="0 0 45 45" fill="none" xmlns="http://www.w3.org/2000/svg">
<g clip-path="url(#clip0_2010_80)">
<path d="M32.5108 21.2045C33.5367 20.4515 34.0823 19.5091 34.0823 18.4051C34.0823 17.1362 32.6853 15.5997 29.8113 13.7076C29.4311 13.4573 29.0424 13.2125 28.653 12.9752C29.9288 12.466 30.5584 11.6946 30.5584 10.6528C30.5584 8.90487 26.8283 6.7041 23.699 5.16565C23.2674 4.9536 22.7517 4.9445 22.348 5.14203C19.1969 6.686 15.4405 8.89526 15.4405 10.6528C15.4405 11.6946 16.0701 12.466 17.3458 12.9752C16.9797 13.1983 16.6142 13.4282 16.2555 13.663C13.3358 15.5753 11.9165 17.1264 11.9165 18.405C11.9165 19.5089 12.4619 20.4513 13.4877 21.2043C10.0616 23.5312 8.39258 25.4225 8.39258 26.9753C8.39258 29.0771 9.93021 30.8153 12.8391 32.0019C15.4072 33.0495 19.0154 33.6264 22.9992 33.6264C26.9831 33.6264 30.5913 33.0494 33.1593 32.0019C36.0683 30.8153 37.6059 29.0771 37.6059 26.9753C37.6061 25.4226 35.937 23.5317 32.5108 21.2045Z" fill="#45B5A9"/>
<path d="M25.1452 35.8262C25.0997 35.8262 25.057 35.8275 25.0189 35.8292C24.3503 35.8606 23.6708 35.8766 22.9996 35.8766C22.3123 35.8766 21.506 35.861 20.9452 35.8368C20.9218 35.8358 20.8978 35.8353 20.8736 35.8353C20.1661 35.8353 19.6719 36.2351 19.6719 36.8077V40.1827C19.6719 40.6337 20.0388 41.0007 20.4898 41.0007H25.4997C25.9507 41.0007 26.3177 40.6337 26.3177 40.1827V36.8083C26.3177 36.3336 26.0096 35.8262 25.1452 35.8262Z" fill="#FF960E"/>
</g>
<defs>
<clipPath id="clip0_2010_80">
<rect width="36" height="36" fill="white" transform="translate(5 5)"/>
</clipPath>
</defs>
</svg>
