<svg width="45" height="45" viewBox="0 0 45 45" fill="none" xmlns="http://www.w3.org/2000/svg">
<path d="M40.9148 24.5592C39.0141 21.8447 35.2728 21.1849 32.5588 23.0855C29.8449 24.9863 29.1844 28.727 31.0863 31.4415C32.9859 34.1548 36.7272 34.8153 39.4411 32.9146C42.1562 31.0145 42.8143 27.2726 40.9148 24.5592Z" fill="#FF960E"/>
<path d="M26.1897 25.7844C26.2417 23.915 26.9202 20.9035 29.9963 17.8164C31.2174 16.5915 34.1774 14.7239 39.7129 14.9376C41.574 14.8347 42.0904 13.0871 41.9876 12.1615C41.8848 11.2366 41.1727 10.2063 39.3005 10.1054C36.8209 9.97146 30.783 9.16825 24.2124 15.4196C22.6522 16.9032 18.213 23.163 18.213 23.163C18.213 23.163 15.723 26.3352 12.0558 29.2817L3 37.5458C5.72615 37.6857 5.82163 40 8.71663 40C11.7035 40 11.7035 37.5324 14.689 37.5324C17.6734 37.5324 17.6734 40 20.659 40C23.6445 40 23.6445 37.5324 26.6313 37.5324C29.3611 37.5324 29.601 39.5911 31.9051 39.9434C31.128 37.788 29.2945 34.7978 27.5759 31.9335C26.8162 30.6659 26.134 27.7681 26.1897 25.7844Z" fill="#45B5A9"/>
</svg>
