<svg width="45" height="45" viewBox="0 0 45 45" fill="none" xmlns="http://www.w3.org/2000/svg">
<path d="M36.6912 18.2827C38.2292 18.2827 39.4762 17.0357 39.4762 15.4977C39.4762 13.9597 38.2292 12.7266 36.6912 12.7266C35.1533 12.7266 33.9062 13.9736 33.9062 15.4977C33.9062 17.0357 35.1533 18.2827 36.6912 18.2827Z" fill="#45B5A9"/>
<path d="M35.3184 38.3469C36.6624 39.1505 38.3944 38.7071 39.198 37.3631L38.2281 36.7812C37.757 37.5848 36.704 37.8481 35.9142 37.3631L6.58194 20.1406L6 21.1244L35.3184 38.3469Z" fill="#45B5A9"/>
<path d="M24.7045 7.62862C23.0141 6.49246 20.728 6.93584 19.5779 8.64008C18.9544 9.56841 18.7743 10.7461 19.0791 11.7022L21.0328 18.0757L15.158 19.9462C14.4237 20.2372 13.8556 20.93 13.7586 21.7752C13.6062 23.0222 14.5345 23.8397 15.7815 23.9921C16.0586 24.0198 16.2526 23.9367 16.5158 23.8812L24.5382 21.221C25.1202 21.0131 25.7714 20.4173 25.8268 19.9185C25.8684 19.5444 25.9931 19.2396 25.9099 19.0179L24.6907 14.6534L29.5124 17.5215L30.0943 21.7059C30.1498 22.4403 30.4823 22.9668 31.0365 23.2716L37.3408 26.9572C38.0336 27.3313 38.9065 27.0819 39.2806 26.3752C39.6686 25.6825 39.4053 24.8096 38.7125 24.4216L33.7245 21.5119L33.1426 14.0576C33.0594 13.1709 32.5745 12.3672 31.8679 11.8684L24.7045 7.62862Z" fill="#FF960E"/>
</svg>
