<svg width="45" height="45" viewBox="0 0 45 45" fill="none" xmlns="http://www.w3.org/2000/svg">
<path d="M35.1894 5C33.5677 5.73962 30.7621 6.31809 29.6339 8.66632C27.9342 8.8144 24.1036 9.47762 20.3434 11.7259C15.9271 14.3666 11.5244 19.131 10.3265 27.9703L10.29 28.2392L10.0792 28.4102C7.73261 30.3107 6.98866 31.37 6.70292 33.0587C6.43413 34.6474 6.64819 36.9704 6.67533 40.8028H29.7438C30.0064 39.5188 30.5374 38.5798 30.6918 37.6431C30.8695 36.5655 30.7063 35.3673 29.1098 33.1926C25.8353 28.7319 25.5483 23.352 28.128 20.1729C27.4702 19.9627 26.981 19.6494 26.6489 19.2192C26.1841 18.6169 26.0864 17.9265 25.9975 17.2517L27.3542 17.0729C27.4387 17.7149 27.5351 18.128 27.732 18.3832C27.9289 18.6383 28.2876 18.8751 29.2181 19.0262L29.2164 19.036L29.2295 19.023L29.6854 19.7394C31.2024 22.1231 32.9419 23.6383 35.2597 23.8776L35.7545 23.9287L35.8584 24.4152C36.0667 25.3903 36.5141 25.8667 37.0075 26.1056C37.5008 26.3445 38.0888 26.3294 38.5635 26.1212C39.2716 25.8106 39.6671 25.2584 39.8329 24.3947C39.9942 23.5548 39.8744 22.431 39.4424 21.1941C36.8931 18.2867 36.0617 14.5598 34.5849 11.4056C34.1246 10.6495 33.6387 9.99794 33.0353 9.51616C33.4265 7.97414 34.1599 6.43302 35.1894 5ZM32.757 13.5136C33.0234 13.5136 33.2788 13.6195 33.4672 13.8078C33.6555 13.9962 33.7614 14.2517 33.7614 14.5181C33.7614 14.6501 33.7354 14.7807 33.685 14.9026C33.6345 15.0245 33.5605 15.1352 33.4672 15.2285C33.374 15.3218 33.2633 15.3958 33.1414 15.4463C33.0195 15.4968 32.8889 15.5228 32.757 15.5228C32.6251 15.5228 32.4944 15.4968 32.3726 15.4463C32.2507 15.3958 32.14 15.3218 32.0467 15.2285C31.9535 15.1352 31.8795 15.0245 31.829 14.9026C31.7786 14.7807 31.7526 14.6501 31.7526 14.5181C31.7526 14.2517 31.8584 13.9962 32.0468 13.8078C32.2351 13.6195 32.4906 13.5136 32.757 13.5136ZM38.5369 22.5479C38.6598 22.5452 38.7818 22.5512 38.9005 22.5621L38.7758 23.9248C38.4772 23.8974 38.3567 23.9564 38.3524 23.9601C38.348 23.9637 38.2737 24.01 38.3041 24.4075L36.9397 24.5118C36.8912 23.8771 37.0383 23.2798 37.4684 22.9157C37.791 22.6426 38.1681 22.5559 38.5369 22.5479Z" fill="#FF960E"/>
<path d="M21.0559 6.44199C18.4321 6.44883 15.8875 7.05695 12.0811 8.23669C14.4486 8.99075 17.4323 9.67336 18.6211 11.202C18.9604 10.9727 19.3007 10.755 19.6411 10.5513C22.7204 8.71026 25.7517 7.86908 27.8681 7.50771C25.1427 6.78732 23.0756 6.43659 21.0559 6.44199ZM16.7301 11.1353C16.6442 11.1345 16.558 11.1345 16.4715 11.1356C14.1643 11.1637 11.675 11.8763 9.12496 13.5135C11.1915 13.7927 13.2807 13.7966 14.6421 14.684C15.8507 13.3218 17.1615 12.2033 18.4943 11.2886C17.9205 11.194 17.3318 11.1413 16.7301 11.1353ZM32.757 13.5136C33.0234 13.5136 33.2788 13.6195 33.4672 13.8078C33.6555 13.9962 33.7614 14.2517 33.7614 14.5181C33.7614 14.6501 33.7354 14.7807 33.685 14.9026C33.6345 15.0245 33.5605 15.1352 33.4672 15.2285C33.374 15.3218 33.2633 15.3958 33.1414 15.4463C33.0195 15.4968 32.8889 15.5228 32.757 15.5228C32.6251 15.5228 32.4944 15.4968 32.3726 15.4463C32.2507 15.3958 32.14 15.3218 32.0467 15.2285C31.9535 15.1352 31.8795 15.0245 31.829 14.9026C31.7786 14.7807 31.7526 14.6501 31.7526 14.5181C31.7526 14.2517 31.8584 13.9962 32.0468 13.8078C32.2351 13.6195 32.4906 13.5136 32.757 13.5136ZM14.5967 14.735C11.8302 14.8486 9.35909 15.2314 6.63344 16.6176C9.15985 17.1569 10.5036 17.6443 11.5763 19.1891C12.4521 17.4765 13.4801 16.0019 14.5967 14.735ZM10.4481 19.0976C8.85276 19.1121 7.5669 19.9855 5.99994 20.811C8.11724 20.811 9.50169 21.1045 10.4627 21.7273C10.7919 20.8416 11.159 20.0083 11.5581 19.2246C11.1689 19.1342 10.8008 19.0946 10.4481 19.0976ZM10.4008 21.8965C9.03762 22.3408 7.70593 22.44 6.27853 23.5904C7.6179 23.9429 8.92307 24.3198 9.42537 25.2653C9.69112 24.0665 10.0193 22.9452 10.4008 21.8965ZM38.5369 22.5479C38.6598 22.5452 38.7818 22.5512 38.9005 22.5621L38.7758 23.9248C38.4772 23.8974 38.3567 23.9564 38.3524 23.9601C38.348 23.9637 38.2737 24.01 38.3041 24.4075L36.9397 24.5118C36.8912 23.8771 37.0383 23.2798 37.4684 22.9157C37.791 22.6426 38.1681 22.5559 38.5369 22.5479ZM8.7528 25.8829C7.9659 25.8928 6.9467 26.3121 6.11845 26.8204C7.04377 27.3396 7.05775 28.6046 6.79786 29.6837C7.35277 28.9916 8.07908 28.2909 9.01429 27.5189C9.09152 26.9835 9.18076 26.4623 9.28079 25.9541C9.12253 25.9032 8.94489 25.8804 8.7528 25.8829Z" fill="#45B5A9"/>
</svg>
