<svg width="31" height="30" viewBox="0 0 31 30" fill="none" xmlns="http://www.w3.org/2000/svg">
<path d="M26.438 24.7343C27.3513 20.5438 28.2214 16.2534 28.7094 12.0569C28.8497 10.8501 28.9595 9.63993 29.0292 8.4269C29.5231 8.71026 30.0169 8.9937 30.5108 9.27707C27.8392 10.6938 24.8302 11.1831 21.8443 10.7555C22.248 10.3517 22.6517 9.94804 23.0555 9.54429C24.6492 14.6831 26.243 19.822 27.8368 24.9609C27.9894 25.4529 27.6561 26.0565 27.149 26.1721C26.6147 26.2938 26.1012 26.0112 25.9378 25.4844C24.3441 20.3455 22.7503 15.2066 21.1566 10.0678C21.0534 9.73517 21.1676 9.35196 21.4098 9.10981C21.6819 8.83767 22.0074 8.80498 22.3677 8.85658C22.2735 8.84312 22.4356 8.86569 22.4479 8.86714C22.524 8.8762 22.6002 8.88467 22.6765 8.89235C22.848 8.90968 23.0199 8.92333 23.1921 8.93364C23.5173 8.95307 23.8431 8.95996 24.1688 8.95445C24.4945 8.94887 24.8201 8.93075 25.1445 8.90049C25.4833 8.86891 25.618 8.85086 25.9649 8.78877C27.2417 8.56027 28.4185 8.15908 29.5168 7.57666C30.1385 7.24701 31.0432 7.64617 30.9984 8.42683C30.7421 12.8874 29.9772 17.3135 29.0908 21.6869C28.8491 22.8792 28.5958 24.0691 28.3368 25.2577C28.2235 25.7774 27.6184 26.0808 27.1256 25.9454C26.589 25.798 26.3243 25.2555 26.438 24.7343Z" fill="#FF960E"/>
<path d="M23.6084 28.3644C19.2915 21.4547 15.0983 14.468 11.0331 7.40725C9.89914 5.43771 8.77524 3.46233 7.661 1.48151C8.11004 1.59927 8.55908 1.71702 9.00813 1.83472C7.76175 2.63087 6.51532 3.42695 5.26894 4.2231C4.64575 4.62114 4.02255 5.01925 3.39937 5.41729C3.10608 5.60463 2.81282 5.79197 2.51954 5.97931C2.38445 6.06562 2.24778 6.14984 2.1144 6.23885C2.06412 6.27239 2.01148 6.30554 1.96429 6.34308C2.07227 6.25716 1.97393 6.36448 1.92352 6.39704C1.83517 6.45408 1.94419 6.38096 1.95515 6.3276C1.96907 6.25992 1.9478 6.19763 1.95312 6.13612C1.95364 6.13022 1.83077 5.92154 1.97826 6.18594C1.98102 6.19093 2.08073 6.33514 2.01483 6.24672C2.2004 6.49563 2.42436 6.72399 2.62896 6.95748C3.04945 7.43737 3.4759 7.91202 3.90742 8.382C4.77853 9.33077 5.67027 10.2606 6.57768 11.1746C10.3622 14.9866 14.4045 18.5363 18.5273 21.9762C20.7664 23.8444 23.0337 25.6785 25.3102 27.5008C25.7257 27.8334 25.6571 28.5465 25.3102 28.8933C24.8997 29.3038 24.3343 29.2266 23.9178 28.8933C19.6314 25.462 15.3761 21.9875 11.2824 18.3268C9.19809 16.463 7.1553 14.5515 5.18531 12.567C4.23792 11.6126 3.30761 10.6411 2.39994 9.64885C1.95752 9.16509 1.52056 8.67633 1.08995 8.18206C0.585247 7.60272 -0.00742531 7.018 0.000320435 6.19342C0.00891876 5.27728 0.782431 4.75361 1.4708 4.31395C2.18562 3.85736 2.9005 3.40076 3.61533 2.94417C5.08166 2.00755 6.548 1.07093 8.01441 0.134305C8.45741 -0.14867 9.10836 0.0374192 9.36154 0.487514C13.356 7.58847 17.4774 14.6179 21.7251 21.5704C22.9099 23.5097 24.1048 25.443 25.309 27.3704C25.5908 27.8215 25.405 28.4548 24.9558 28.7175C24.4838 28.9936 23.8909 28.8167 23.6084 28.3644Z" fill="#FF960E"/>
<path d="M15.0324 26.8323C13.3709 25.5807 11.8276 24.1949 10.436 22.6476C10.0805 22.2524 10.0459 21.6452 10.436 21.2552C10.7973 20.8939 11.4714 20.8583 11.8284 21.2552C13.0998 22.6688 14.5404 24.0128 16.0262 25.132C16.4503 25.4514 16.6701 25.9822 16.3794 26.4791C16.135 26.8969 15.4596 27.1542 15.0324 26.8323Z" fill="#FF960E"/>
</svg>
