<svg width="48" height="35" viewBox="0 0 48 35" fill="none" xmlns="http://www.w3.org/2000/svg">
<path d="M22.6364 23.5243C21.5017 18.3812 20.2481 13.2646 18.8734 8.18043C18.4815 6.73109 18.0796 5.28451 17.6686 3.84048C17.4147 4.28781 17.1607 4.73507 16.9067 5.18241C19.7953 4.17487 22.6839 3.16734 25.5725 2.1598C25.1123 1.80919 24.652 1.45851 24.1916 1.10791C24.8242 7.6651 25.4568 14.2223 26.0893 20.7796C26.1319 21.221 26.1917 21.6646 26.2162 22.1074C26.2182 22.1428 26.2087 22.3013 26.2193 22.3157C26.2443 22.2285 26.2692 22.1413 26.2943 22.054C26.6876 21.8199 26.7686 21.743 26.5373 21.8232C26.3556 21.8345 26.1613 21.8889 25.9811 21.9173C25.0661 22.0611 24.1511 22.205 23.236 22.3488C22.6536 22.4404 22.3307 23.1687 22.4741 23.6907C22.6448 24.3117 23.2318 24.5445 23.816 24.4527C24.6606 24.3199 25.5053 24.1871 26.35 24.0543C26.7659 23.9889 27.1938 23.9544 27.571 23.749C28.0781 23.4729 28.3299 22.9715 28.3897 22.4173C28.4301 22.0434 28.3557 21.6562 28.3197 21.284C28.2781 20.8516 28.2363 20.4193 28.1946 19.9869C28.1112 19.1222 28.0277 18.2575 27.9443 17.3929C27.6107 13.9342 27.277 10.4754 26.9433 7.01669C26.7533 5.04714 26.5634 3.07752 26.3733 1.10798C26.3103 0.455122 25.7202 -0.197731 24.9924 0.0560798C22.1038 1.06361 19.2152 2.07115 16.3266 3.07869C15.7738 3.27148 15.3941 3.82143 15.5646 4.42061C17.0064 9.48614 18.3309 14.5849 19.5334 19.7125C19.8763 21.1742 20.2089 22.6383 20.5324 24.1044C20.6594 24.68 21.3274 25.0167 21.8743 24.8664C22.4678 24.7031 22.7637 24.1015 22.6364 23.5243Z" fill="#FF960E"/>
<path d="M24.24 29.7422C24.2536 29.6957 24.2776 29.6408 24.2873 29.5923C24.2486 29.7858 24.2243 29.7168 24.2684 29.6408C24.3188 29.554 24.3754 29.469 24.4244 29.3819C24.297 29.6083 24.4238 29.3907 24.4979 29.3184C24.5337 29.2835 24.5738 29.2523 24.609 29.2171C24.5243 29.3016 24.4736 29.3082 24.5992 29.2283C24.6856 29.1732 24.7722 29.1231 24.8618 29.0735C25.0919 28.946 24.7032 29.1123 24.9559 29.0323C25.0554 29.0008 25.1533 28.9697 25.2551 28.9461C25.3055 28.9344 25.3591 28.9294 25.4084 28.9147C25.5363 28.8766 25.1837 28.9258 25.3903 28.9177C25.4951 28.9137 25.5983 28.9052 25.7035 28.9072C25.7925 28.9089 26.0932 28.9603 25.802 28.9013C25.9036 28.9219 26.0049 28.9382 26.1051 28.9656C26.1545 28.979 26.203 28.9977 26.2524 29.0104C26.4446 29.0602 26.1321 28.9366 26.2408 29.0002C26.3282 29.0513 26.4206 29.0952 26.5083 29.1467C26.7264 29.2747 26.4104 29.0294 26.5899 29.2094C26.654 29.2738 26.7143 29.3398 26.7761 29.4062C26.6166 29.2347 26.7183 29.3245 26.7493 29.3823C26.7891 29.4566 26.834 29.5307 26.875 29.6045C26.9147 29.6758 26.9023 29.7615 26.8631 29.5757C26.8741 29.6281 26.8992 29.6834 26.9135 29.7346C26.9395 29.8282 26.9546 30.1207 26.9502 29.8532C26.952 29.9648 26.9646 30.0751 26.9613 30.1872C26.9597 30.2432 26.9531 30.299 26.9512 30.3549C26.9559 30.2156 26.9777 30.2207 26.9479 30.3577C26.9267 30.4549 26.9053 30.5515 26.8768 30.647C26.8542 30.7228 26.7342 31.0034 26.8368 30.7874C26.7875 30.8912 26.7368 30.9936 26.6786 31.0927C26.6496 31.1421 26.6192 31.1909 26.5875 31.2387C26.5551 31.2877 26.3863 31.4669 26.5535 31.2936C26.4742 31.3757 26.4034 31.4647 26.3208 31.5441C26.2558 31.6064 26.0102 31.7606 26.2145 31.6441C26.1289 31.6928 26.0503 31.7532 25.9636 31.801C25.9143 31.828 25.8613 31.8494 25.8129 31.8775C25.7091 31.9378 25.9919 31.832 25.7982 31.8765C25.687 31.902 25.5788 31.9357 25.4664 31.9579C25.7032 31.911 25.3571 31.954 25.2739 31.9514C25.2086 31.9494 25.1429 31.9449 25.0779 31.9379C25.29 31.9607 25.1222 31.9414 25.0786 31.9293C25.0157 31.912 24.952 31.899 24.8895 31.8803C24.8656 31.8731 24.5762 31.7603 24.7835 31.8531C24.6638 31.7995 24.5475 31.737 24.436 31.6681C24.3795 31.6333 24.3256 31.596 24.2706 31.5592C24.0361 31.4022 24.3779 31.6848 24.1801 31.4819C24.075 31.3742 23.9672 31.2721 23.8657 31.1604C23.7507 31.0339 23.9499 31.2843 23.8503 31.1453C23.8017 31.0774 23.7547 31.0084 23.711 30.9373C23.6761 30.8806 23.6425 30.8228 23.611 30.764C23.6009 30.7452 23.4719 30.4561 23.5531 30.6627C23.5046 30.5394 23.4637 30.4128 23.4316 30.2844C23.4155 30.2199 23.403 30.1555 23.3896 30.0906C23.4369 30.3196 23.3862 30.0258 23.3846 29.9867C23.3775 29.8197 23.3892 29.6546 23.4101 29.4889C23.4821 28.9205 22.857 28.374 22.3192 28.398C21.6667 28.4273 21.3054 28.8799 21.2283 29.4889C21.0212 31.1248 22.0218 32.7981 23.4197 33.6024C24.8703 34.4371 26.6539 34.2477 27.8635 33.0866C28.8952 32.0965 29.4345 30.4644 28.9935 29.0746C28.5335 27.6251 27.1977 26.7531 25.7034 26.7253C24.1344 26.6961 22.5905 27.6168 22.1361 29.1621C21.9752 29.7093 22.3304 30.3747 22.898 30.504C23.4829 30.6373 24.0676 30.3283 24.24 29.7422Z" fill="#FF960E"/>
<path d="M6.46883 15.4578C5.71256 18.5843 5.72732 21.8548 6.51821 24.9733C6.66308 25.5444 7.30037 25.889 7.86013 25.7352C8.43939 25.576 8.76738 24.9663 8.62208 24.3933C7.9285 21.6586 7.91031 18.7761 8.57269 16.0378C8.70658 15.4841 8.39758 14.8295 7.81076 14.6958C7.24925 14.568 6.61232 14.8645 6.46883 15.4578Z" fill="#FF960E"/>
<path d="M0.492298 15.499C-0.0921948 16.968 -0.147324 18.6268 0.279573 20.1448C0.439059 20.7119 1.05126 21.0633 1.6215 20.9067C2.18912 20.7507 2.54351 20.1339 2.38345 19.5648C2.05298 18.3897 2.12519 17.2627 2.59616 16.079C2.80765 15.5475 2.36534 14.8581 1.83422 14.7371C1.20472 14.5938 0.718764 14.9298 0.492298 15.499Z" fill="#FF960E"/>
<path d="M38.7815 12.5347C39.533 13.3646 40.1422 14.2541 40.677 15.3132C41.1677 16.2849 41.5208 17.3417 41.7539 18.4957C41.8706 19.0735 42.5561 19.4059 43.0958 19.2576C43.6973 19.0923 43.9748 18.4952 43.8578 17.9157C43.3362 15.3338 42.0893 12.9412 40.3243 10.992C39.9287 10.5551 39.1836 10.5899 38.7816 10.992C38.347 11.4265 38.385 12.0967 38.7815 12.5347Z" fill="#FF960E"/>
<path d="M43.9709 11.428C44.5343 12.2244 45.0977 13.0207 45.6611 13.8171C46.0008 14.2973 46.6138 14.5242 47.1536 14.2084C47.6286 13.9306 47.887 13.1993 47.5449 12.7158C46.9815 11.9195 46.4182 11.1232 45.8548 10.3268C45.515 9.84654 44.9021 9.61971 44.3623 9.93549C43.8873 10.2133 43.6289 10.9446 43.9709 11.428Z" fill="#FF960E"/>
</svg>
