<svg width="41" height="28" viewBox="0 0 41 28" fill="none" xmlns="http://www.w3.org/2000/svg">
<path d="M22.9713 23.3174C19.7052 18.431 16.2584 13.6351 13.5447 8.4078C12.8085 6.98978 12.1242 5.52813 11.5628 4.09972C11.4145 4.46423 11.2661 4.82867 11.1179 5.19318C13.6371 3.87489 16.2067 2.79008 18.9087 1.90414C18.5117 1.67874 18.1147 1.45333 17.7176 1.22786C18.6926 7.03548 19.6675 12.843 20.6425 18.6507C20.9201 20.3039 21.1975 21.9572 21.4751 23.6104C21.5617 24.1265 22.199 24.415 22.6662 24.2867C23.2132 24.1364 23.4293 23.6133 23.3425 23.0957C22.3675 17.288 21.3926 11.4805 20.4176 5.67285C20.14 4.01961 19.8625 2.36631 19.585 0.713077C19.5011 0.213208 18.8523 -0.113475 18.3939 0.0367956C15.5535 0.968112 12.789 2.13516 10.1405 3.52103C9.79583 3.70138 9.54622 4.23463 9.69552 4.6145C11.8885 10.1939 15.1843 15.2374 18.5239 20.1842C19.449 21.5545 20.3805 22.9203 21.2993 24.2947C21.5896 24.7289 22.1534 24.9174 22.624 24.6421C23.055 24.39 23.2632 23.7541 22.9713 23.3174Z" fill="#FF960E"/>
<path d="M11.9685 26.0904C8.31687 24.8076 4.82198 23.195 1.45348 21.2504C1.5188 21.7573 1.58412 22.2642 1.64945 22.7711C3.6721 20.8797 5.69475 18.9884 7.7174 17.097C7.21049 17.0317 6.70359 16.9664 6.19668 16.901C7.99799 19.8313 9.52187 22.9254 10.7159 26.1193C10.8989 26.6089 11.3706 26.943 11.907 26.7956C12.3772 26.6664 12.7673 26.0969 12.5832 25.6045C11.3236 22.2353 9.75276 18.9884 7.86883 15.9237C7.53466 15.3801 6.80945 15.2964 6.34812 15.7277C4.32547 17.6191 2.30281 19.5105 0.280164 21.4018C-0.17607 21.8284 -0.0498756 22.6188 0.476136 22.9225C3.96812 24.9385 7.64975 26.6214 11.4538 27.9578C11.9322 28.1258 12.5342 27.7671 12.6448 27.2815C12.7681 26.7402 12.4808 26.2703 11.9685 26.0904Z" fill="#FF960E"/>
<path d="M32.7794 21.8705C32.9586 17.7284 32.4433 13.5864 32.6225 9.44417C32.2139 9.75537 31.8054 10.0666 31.3968 10.3778C32.7812 10.614 34.1778 10.7736 35.5605 11.0192C36.9258 11.2618 38.2536 11.6314 39.5361 12.161C39.3433 11.6869 39.1504 11.2128 38.9575 10.7387C38.1944 12.2222 37.4119 13.7004 36.5026 15.1007C36.2969 15.4175 36.0847 15.73 35.865 16.0373C35.7514 16.1961 35.6359 16.3535 35.5183 16.5092C35.4898 16.547 35.356 16.7193 35.4502 16.5991C35.3852 16.682 35.3199 16.7646 35.2539 16.8466C34.7616 17.4578 34.2346 18.0407 33.6762 18.5922C32.9813 19.2786 32.2386 19.9139 31.4666 20.5117C31.0528 20.8322 31.1298 21.5441 31.4666 21.881C31.875 22.2894 32.4211 22.2023 32.8359 21.881C34.1701 20.8478 35.4066 19.6953 36.4803 18.3913C37.5161 17.1333 38.4103 15.7743 39.2145 14.3586C39.7081 13.4897 40.1725 12.6046 40.6295 11.716C40.9427 11.1073 40.6442 10.5387 40.0509 10.2936C38.7684 9.76395 37.4406 9.39434 36.0753 9.15183C34.6925 8.90622 33.296 8.74665 31.9116 8.5104C31.2782 8.40234 30.7151 8.76898 30.6859 9.44404C30.5067 13.5862 31.0221 17.7282 30.8429 21.8704C30.8209 22.3771 31.3039 22.8614 31.8111 22.8387C32.3545 22.8144 32.7559 22.4134 32.7794 21.8705Z" fill="#FF960E"/>
</svg>
