<svg width="36" height="36" viewBox="0 0 36 36" fill="none" xmlns="http://www.w3.org/2000/svg">
<path d="M2.01461 12.2803C5.74304 9.89446 8.40858 5.97211 9.02766 1.64508C8.21006 1.74924 7.39256 1.85348 6.57496 1.95764C9.53447 6.50423 15.3353 7.77601 20.5111 7.31027C22.2677 7.1522 24.0073 6.8516 25.7348 6.50956C25.2297 5.86883 24.7245 5.2281 24.2193 4.58737C22.5129 7.80977 21.8441 11.6607 22.9101 15.1864C23.8959 18.4467 26.355 21.0336 29.5864 22.2847C31.3112 22.9525 33.2121 23.0875 35.0225 22.7076C34.6778 21.9104 34.3332 21.1132 33.9885 20.316C29.9487 22.6375 28.0782 27.5687 29.0418 31.9611C29.306 33.1661 29.822 34.3448 30.545 35.3557C30.959 35.9346 31.72 36.2022 32.381 35.8251C32.9686 35.49 33.2791 34.6174 32.8624 34.0348C32.5899 33.6538 32.3479 33.2547 32.144 32.8346C32.1218 32.7889 31.9963 32.5076 32.0507 32.6369C32.1052 32.7666 31.9911 32.4803 31.9734 32.4332C31.8829 32.1909 31.8036 31.9447 31.7356 31.6955C31.6771 31.4817 31.627 31.2659 31.5848 31.0485C31.5638 30.9398 31.5498 30.8294 31.5277 30.7209C31.4967 30.57 31.5352 30.7776 31.537 30.7942C31.5292 30.7206 31.5195 30.6472 31.5121 30.5736C31.4657 30.1122 31.454 29.6477 31.4751 29.1847C31.4853 28.9616 31.5047 28.7395 31.5284 28.5174C31.5343 28.462 31.5412 28.4065 31.5486 28.3512C31.5463 28.3691 31.5068 28.5721 31.5411 28.4226C31.5701 28.296 31.5847 28.165 31.6102 28.0375C31.7053 27.5625 31.835 27.0938 31.9982 26.6367C32.0358 26.5313 32.0753 26.4266 32.1164 26.3225C32.1504 26.2366 32.2505 26.0145 32.1551 26.2228C32.256 26.0025 32.3618 25.7849 32.4775 25.5716C32.7 25.1614 32.9574 24.7767 33.2312 24.3979C33.2427 24.3819 33.3579 24.2356 33.2635 24.3541C33.1683 24.4736 33.3179 24.2901 33.3352 24.2702C33.4325 24.1574 33.5303 24.0453 33.6323 23.9365C33.8106 23.746 33.9976 23.5635 34.1931 23.3896C34.291 23.3026 34.3907 23.2177 34.4926 23.1352C34.5364 23.0998 34.5807 23.0653 34.625 23.0306C34.7819 22.9076 34.4593 23.1455 34.6249 23.0333C34.8606 22.8735 35.0958 22.7179 35.3432 22.5757C35.9145 22.2474 36.1586 21.5325 35.8923 20.9418C35.6151 20.327 34.9799 20.0433 34.3091 20.1841C34.1424 20.2191 33.9754 20.2513 33.8066 20.2762C34.0756 20.2365 33.5901 20.2922 33.5326 20.2959C33.1968 20.3174 32.859 20.3166 32.5233 20.2946C32.4665 20.2908 31.9845 20.2395 32.2531 20.2763C32.0864 20.2535 31.9205 20.2237 31.7558 20.1903C31.425 20.1229 31.0982 20.0363 30.7779 19.9317C30.6168 19.8791 30.4583 19.8208 30.2999 19.7611C30.5305 19.8479 30.0798 19.6638 30.0359 19.6433C29.7276 19.4992 29.4272 19.3387 29.1363 19.1634C28.9904 19.0755 28.8468 18.9837 28.7058 18.8886C28.6352 18.8409 28.5659 18.7914 28.4959 18.7429C28.4914 18.7397 28.3225 18.6153 28.4262 18.6935C28.5418 18.7808 28.3329 18.6189 28.3096 18.6002C28.2432 18.5468 28.1776 18.4926 28.1127 18.4375C27.9666 18.3136 27.8241 18.1856 27.6855 18.0537C27.4547 17.8339 27.2352 17.6028 27.0278 17.3619C26.9725 17.2977 26.9179 17.233 26.8646 17.1672C26.7292 17.0002 26.9666 17.3055 26.8399 17.1323C26.7277 16.9788 26.6167 16.8252 26.5122 16.6665C26.1043 16.0467 25.8456 15.5132 25.6323 14.903C25.1113 13.4135 24.9901 12.1389 25.1268 10.5442C25.1685 10.0577 25.1893 9.927 25.2852 9.44669C25.3666 9.0394 25.4669 8.63586 25.5851 8.23729C25.7103 7.81517 25.8556 7.39881 26.0203 6.98978C26.1352 6.70418 26.3333 6.29217 26.5366 5.90817C27.0913 4.86076 26.1811 3.7563 25.0211 3.98598C21.8231 4.61912 18.4209 5.17916 15.2073 4.51052C14.5363 4.37095 13.8755 4.18339 13.2338 3.94638C13.1483 3.9148 13.0632 3.88236 12.9784 3.84895C13.0877 3.89614 13.0684 3.88811 12.9204 3.82495C12.754 3.75238 12.5886 3.67771 12.4254 3.59867C12.1408 3.46084 11.8617 3.31211 11.5897 3.15195C11.281 2.97016 10.9788 2.77493 10.6917 2.56199C10.8518 2.68071 10.4735 2.3843 10.4382 2.35464C10.3364 2.26889 10.2363 2.18113 10.1381 2.09145C9.87639 1.85234 9.62885 1.59833 9.39795 1.33069C9.34015 1.2637 9.28334 1.19583 9.2277 1.12709C9.30079 1.2179 9.28961 1.20097 9.19397 1.07641C9.09234 0.93029 8.98946 0.785924 8.8923 0.636843C8.60048 0.188464 8.10002 -0.0592789 7.5552 0.0121651C7.08525 0.0737518 6.51153 0.446673 6.4396 0.949485C6.30067 1.92074 6.06144 2.87402 5.71781 3.79599C5.67881 3.90058 5.63838 4.00465 5.59678 4.10828C5.57378 4.16568 5.48056 4.38943 5.55025 4.22823C5.45274 4.45372 5.34574 4.67583 5.2349 4.89539C5.01303 5.33505 4.76799 5.76336 4.50121 6.17859C3.95192 7.03347 3.55112 7.53393 2.81377 8.27585C2.46433 8.6274 2.09566 8.96081 1.71016 9.27432C1.62258 9.34559 1.53393 9.41573 1.44446 9.48473C1.3465 9.56027 1.50717 9.44373 1.3355 9.56429C1.11291 9.72061 0.889257 9.87397 0.659876 10.0207C0.0546618 10.408 -0.200841 11.1786 0.17848 11.811C0.530514 12.3975 1.40608 12.6697 2.01461 12.2803Z" fill="#FF960E"/>
<path d="M7.04413 27.294C8.71204 23.7842 10.2251 20.2166 11.5596 16.5902C11.7762 16.0014 11.3099 15.2681 10.6499 15.1311C9.93012 14.9818 9.27979 15.3292 9.04779 15.9596C7.78544 19.39 6.37045 22.7812 4.79491 26.0966C4.51577 26.684 4.60407 27.3689 5.26212 27.7195C5.81242 28.0126 6.76325 27.885 7.04413 27.294Z" fill="#FF960E"/>
<path d="M14.4615 33.6344C16.2828 33.1727 18.1039 32.7111 19.9252 32.2495C20.6101 32.0759 21.0533 31.5264 20.8565 30.9656C20.6718 30.4395 19.9042 30.0624 19.2163 30.2367C17.3951 30.6983 15.5739 31.16 13.7526 31.6216C13.0678 31.7952 12.6246 32.3446 12.8214 32.9054C13.0061 33.4316 13.7736 33.8087 14.4615 33.6344Z" fill="#FF960E"/>
</svg>
