<svg width="41" height="26" viewBox="0 0 41 26" fill="none" xmlns="http://www.w3.org/2000/svg">
<path d="M0.147469 13.7282C1.75065 17.3569 3.35383 20.9854 4.95701 24.6141C5.23026 25.2326 6.13329 25.3771 6.66986 25.0632C7.30741 24.6903 7.3933 23.9713 7.11896 23.3504C5.51578 19.7217 3.91258 16.0931 2.3094 12.4644C2.03615 11.8459 1.13312 11.7014 0.596555 12.0153C-0.0409957 12.3882 -0.126864 13.1072 0.147469 13.7282Z" fill="#FF960E"/>
<path d="M16.5221 23.0847C14.4271 17.4779 12.6735 11.7454 11.2813 5.92403C10.8836 4.26093 10.5162 2.59073 10.1766 0.914852C10.0422 0.251929 9.2563 -0.129819 8.63661 0.0404397C7.94673 0.229977 7.62749 0.915517 7.76219 1.58044C8.95099 7.44659 10.496 13.2388 12.3947 18.9152C12.9371 20.5369 13.5092 22.1485 14.1077 23.7503C14.3443 24.3833 14.9543 24.8152 15.6477 24.6247C16.2558 24.4575 16.7599 23.7212 16.5221 23.0847Z" fill="#FF960E"/>
<path d="M23.4862 12.2963C23.3438 14.8308 23.2014 17.3654 23.0591 19.9C23.0223 20.555 23.6612 21.181 24.311 21.1519C25.0208 21.1201 25.5235 20.6016 25.5629 19.9C25.7053 17.3654 25.8476 14.8308 25.99 12.2963C26.0268 11.6413 25.3879 11.0153 24.7381 11.0444C24.0284 11.0762 23.5256 11.5947 23.4862 12.2963Z" fill="#FF960E"/>
<path d="M31.8614 24.064C34.4662 18.8925 37.271 13.8233 40.2686 8.86904C40.6187 8.29049 40.3966 7.4937 39.8195 7.15619C39.2265 6.80933 38.4577 7.02524 38.1067 7.60528C35.1091 12.5596 32.3044 17.6287 29.6994 22.8003C29.3954 23.4038 29.5397 24.157 30.1485 24.5131C30.7049 24.8385 31.556 24.6701 31.8614 24.064Z" fill="#FF960E"/>
</svg>
