<svg width="51" height="116" viewBox="0 0 51 116" fill="none" xmlns="http://www.w3.org/2000/svg">
<path fill-rule="evenodd" clip-rule="evenodd" d="M36.7137 25.7867C37.46 36.9823 38.441 48.1813 36.9896 59.372C36.4105 63.8073 35.3807 68.1979 34.3643 72.5653C33.5093 76.2272 30.5289 77.6086 27.2283 78.2037C24.1722 78.7536 21.6839 77.4876 20.0717 74.8603C18.9728 73.083 18.1111 71.155 17.2015 69.2571C14.2279 63.0697 10.8057 57.0429 8.46216 50.6204C5.29238 41.9576 2.64154 33.0253 4.01713 23.5478C4.70872 18.8109 5.93605 14.2562 8.43007 10.0583C10.1535 7.16226 12.5159 5.08241 15.3729 3.50734C19.3561 1.31254 23.6204 1.79908 27.0467 4.85966C32.4104 9.67295 34.7347 16.0933 36.2992 22.8729C36.5214 23.824 36.5809 24.8139 36.7137 25.7867ZM34.3315 25.3836C33.5914 22.7697 33.0466 19.5426 31.7764 16.6322C30.3945 13.4579 28.613 10.3713 26.5077 7.63172C24.3897 4.88672 21.1649 3.6646 17.8517 5.22395C12.2811 7.8484 8.77832 12.3828 8.28776 18.5916C7.88951 23.5888 7.53021 28.6635 8.85626 33.6451C9.14428 34.715 9.20119 35.859 9.26886 36.9778C9.72776 43.9912 11.1088 50.7603 14.2351 57.1137C16.7627 62.2694 19.286 67.4281 21.7919 72.5986C23.1474 75.3886 24.1053 76.0477 26.5312 75.818C29.2624 75.5562 31.2789 74.1124 31.8423 71.7793C32.6509 68.3839 33.407 64.9673 34.0478 61.538C36.2625 49.685 34.6438 37.8163 34.3315 25.3836Z" fill="#FFEACF"/>
<path fill-rule="evenodd" clip-rule="evenodd" d="M35.7263 112.276C31.3399 112.627 27.5868 111.78 24.4641 109.591C20.6064 106.887 17.7491 103.075 16.4463 98.5225C15.3352 94.6301 18.1121 87.1701 24.8675 85.117C27.9303 84.1831 31.1917 83.8204 34.3921 83.4779C38.6847 83.0288 46.5911 87.5326 47.9666 92.4956C48.5064 94.4393 48.8136 96.7576 48.2719 98.6266C46.7885 103.748 43.4478 107.738 39.1752 110.861C38.087 111.656 36.612 111.921 35.7263 112.276ZM43.1017 95.9579C42.2117 92.0046 38.8608 89.253 34.3956 87.6942C29.6061 86.0283 25.1127 86.791 21.711 90.6115C19.7752 92.7845 18.6612 95.6753 19.5617 98.7876C21.0573 103.954 27.1596 108.946 32.5662 108.411C40.4116 107.637 43.9637 104.243 43.1017 95.9579ZM46.5649 94.8038C46.5216 90.6781 44.0203 87.4982 40.6766 87.3968C42.6246 89.8505 44.7292 92.4979 46.5649 94.8038Z" fill="#FFEACF"/>
</svg>
