<svg width="37" height="37" viewBox="0 0 37 37" fill="none" xmlns="http://www.w3.org/2000/svg">
<circle cx="18.5" cy="10.5" r="4.5" fill="#45B5A9"/>
<path d="M30.0625 14.8002L27.9813 6.35957C27.8656 6.0127 27.6344 5.78145 27.4031 5.5502C21.8531 2.89082 15.3781 2.89082 9.7125 5.5502C9.36562 5.66582 9.13438 5.89707 9.01875 6.24395L6.9375 14.8002C6.9375 15.0314 6.9375 15.3783 7.16875 15.6096C7.28437 15.8408 7.63125 16.0721 7.8625 16.0721C11.4469 16.8814 14.9156 17.2283 18.5 17.2283C22.0844 17.2283 25.6688 16.8814 29.1375 16.0721C29.4844 15.9564 29.7156 15.8408 29.8312 15.6096C30.0625 15.3783 30.0625 15.0314 30.0625 14.8002ZM20.8125 11.5627H19.6562V12.7189C19.6562 13.4127 19.1938 13.8752 18.5 13.8752C17.8062 13.8752 17.3438 13.4127 17.3438 12.7189V11.5627H16.1875C15.4937 11.5627 15.0312 11.1002 15.0312 10.4064C15.0312 9.7127 15.4937 9.2502 16.1875 9.2502H17.3438V8.09395C17.3438 7.40019 17.8062 6.9377 18.5 6.9377C19.1938 6.9377 19.6562 7.40019 19.6562 8.09395V9.2502H20.8125C21.5063 9.2502 21.9688 9.7127 21.9688 10.4064C21.9688 11.1002 21.5063 11.5627 20.8125 11.5627Z" fill="#FF960E"/>
<path d="M30.4092 18.1533C30.178 18.2689 29.9467 18.3846 29.7155 18.3846C26.0155 19.1939 22.1999 19.6564 18.4999 19.6564C14.7999 19.6564 10.9842 19.1939 7.28424 18.3846C7.05299 18.3846 6.82174 18.2689 6.59049 18.1533C5.66549 19.1939 5.43424 21.0439 6.12799 23.0096C6.59049 24.5127 7.51549 25.7846 8.67174 26.3627C8.90299 26.4783 9.24986 26.5939 9.48111 26.5939C10.8686 30.7564 14.3374 33.5314 18.4999 33.5314C22.6624 33.5314 26.1311 30.7564 27.5186 26.5939C27.8655 26.5939 28.0967 26.4783 28.4436 26.3627C29.4842 25.9002 30.5249 24.6283 30.9874 23.0096C31.4499 21.0439 31.2186 19.1939 30.4092 18.1533Z" fill="#FF960E"/>
</svg>
