<svg width="37" height="37" viewBox="0 0 37 37" fill="none" xmlns="http://www.w3.org/2000/svg">
<path fill-rule="evenodd" clip-rule="evenodd" d="M16.2623 33.1884L16.6478 32.5372C17.2657 31.4933 17.5745 30.9715 18.0666 30.6804C18.5587 30.3892 19.2007 30.3687 20.4844 30.3277C21.6881 30.2891 22.4972 30.1841 23.189 29.8975C24.6454 29.2943 25.8024 28.1373 26.4056 26.6809C26.8581 25.5886 26.8581 24.2039 26.8581 21.4344V20.2456C26.8581 16.3543 26.8581 14.4086 25.9823 12.9793C25.4922 12.1795 24.8197 11.5071 24.0199 11.017C22.5906 10.1411 20.6451 10.1411 16.7537 10.1411H13.1874C9.29612 10.1411 7.35046 10.1411 5.92117 11.017C5.1214 11.5071 4.44899 12.1795 3.95887 12.9793C3.08301 14.4086 3.08301 16.3543 3.08301 20.2456V21.4344C3.08301 24.2039 3.08301 25.5886 3.53546 26.6809C4.13871 28.1373 5.29581 29.2943 6.75221 29.8975C7.44394 30.1841 8.25296 30.2891 9.45667 30.3277C10.7404 30.3687 11.3823 30.3892 11.8744 30.6804C12.3665 30.9715 12.6754 31.4933 13.2932 32.5372L13.6787 33.1884C14.2531 34.1589 15.688 34.1589 16.2623 33.1884ZM20.1713 22.0287C20.9921 22.0287 21.6573 21.3633 21.6573 20.5427C21.6573 19.7221 20.9921 19.0568 20.1713 19.0568C19.3507 19.0568 18.6854 19.7221 18.6854 20.5427C18.6854 21.3633 19.3507 22.0287 20.1713 22.0287ZM16.4565 20.5427C16.4565 21.3633 15.7913 22.0287 14.9706 22.0287C14.1499 22.0287 13.4846 21.3633 13.4846 20.5427C13.4846 19.7221 14.1499 19.0568 14.9706 19.0568C15.7913 19.0568 16.4565 19.7221 16.4565 20.5427ZM9.76976 22.0287C10.5904 22.0287 11.2557 21.3633 11.2557 20.5427C11.2557 19.7221 10.5904 19.0568 9.76976 19.0568C8.9491 19.0568 8.2838 19.7221 8.2838 20.5427C8.2838 21.3633 8.9491 22.0287 9.76976 22.0287Z" fill="#45B5A9"/>
<path d="M23.3865 3.0835C25.1622 3.08348 26.5741 3.08348 27.7064 3.19114C28.8676 3.30153 29.8493 3.53295 30.7238 4.06885C31.6235 4.62023 32.38 5.3767 32.9313 6.27644C33.4673 7.15097 33.6987 8.13267 33.8091 9.29378C33.9167 10.4261 33.9167 11.8382 33.9167 13.6137V14.8264C33.9167 16.0901 33.9167 17.0951 33.8611 17.9102C33.8042 18.7439 33.6855 19.46 33.4076 20.1305C32.729 21.7688 31.4274 23.0706 29.7889 23.7492C29.7479 23.7662 29.7067 23.7827 29.6653 23.7984C29.4675 23.8741 29.2982 23.9389 29.1494 23.9871C29.171 23.2644 29.171 22.4411 29.171 21.5121V20.1365C29.171 18.284 29.171 16.7322 29.0511 15.4706C28.9256 14.1498 28.6524 12.9104 27.9543 11.7713C27.2735 10.6604 26.3396 9.72637 25.2286 9.04558C24.0895 8.34756 22.8502 8.07438 21.5293 7.94881C20.2677 7.82885 18.7159 7.82889 16.8634 7.82893H13.0784C11.8203 7.8289 10.7008 7.82889 9.7168 7.86644C9.76265 7.70757 9.82545 7.52547 9.89918 7.31173C10.0246 6.94818 10.183 6.60437 10.384 6.27644C10.9354 5.3767 11.6918 4.62023 12.5916 4.06885C13.4661 3.53295 14.4478 3.30153 15.609 3.19114C16.7413 3.08348 18.1532 3.08348 19.9289 3.0835H23.3865Z" fill="#FF960E"/>
</svg>
