<svg width="37" height="37" viewBox="0 0 37 37" fill="none" xmlns="http://www.w3.org/2000/svg">
<ellipse cx="18.5" cy="24.5" rx="4.5" ry="5.5" fill="#45B5A9"/>
<path fill-rule="evenodd" clip-rule="evenodd" d="M8.09342 15.501V12.3335C8.09342 6.58629 12.7525 1.92725 18.4997 1.92725C24.2469 1.92725 28.9059 6.58629 28.9059 12.3335V15.501C30.6246 15.6294 31.7437 15.9533 32.5617 16.7715C33.9163 18.1262 33.9163 20.3064 33.9163 24.6668C33.9163 29.0273 33.9163 31.2075 32.5617 32.5622C31.207 33.9168 29.0268 33.9168 24.6663 33.9168H12.333C7.97251 33.9168 5.79227 33.9168 4.43764 32.5622C3.08301 31.2075 3.08301 29.0273 3.08301 24.6668C3.08301 20.3064 3.08301 18.1262 4.43764 16.7715C5.25569 15.9533 6.37485 15.6294 8.09342 15.501ZM10.4059 12.3335C10.4059 7.86345 14.0296 4.23975 18.4997 4.23975C22.9697 4.23975 26.5934 7.86345 26.5934 12.3335V15.4224C26.003 15.4168 25.3624 15.4168 24.6663 15.4168H12.333C11.6369 15.4168 10.9964 15.4168 10.4059 15.4224V12.3335ZM18.4997 20.4272C19.1382 20.4272 19.6559 20.9449 19.6559 21.5835V27.7502C19.6559 28.3887 19.1382 28.9064 18.4997 28.9064C17.8611 28.9064 17.3434 28.3887 17.3434 27.7502V21.5835C17.3434 20.9449 17.8611 20.4272 18.4997 20.4272Z" fill="#FF960E"/>
</svg>
