<svg width="37" height="37" viewBox="0 0 37 37" fill="none" xmlns="http://www.w3.org/2000/svg">
<path d="M32.0667 22.1057V24.9994C32.0667 28.2234 29.7148 31.2623 26.5173 32.1476C26.2927 32.2005 26.0548 32.2005 25.8434 32.1476C24.2843 31.7248 22.9101 30.7735 21.9456 29.5447C20.9017 28.2498 20.2939 26.651 20.2939 24.9994V22.1057C20.2939 21.5508 20.7035 20.943 21.2056 20.7316L24.8789 19.2253C25.7113 18.895 26.6362 18.895 27.4686 19.2253L28.7899 19.767L31.155 20.7316C31.6571 20.943 32.0667 21.5508 32.0667 22.1057Z" fill="#FF960E"/>
<path d="M29.3567 16.3448L29.1189 17.7585L28.194 17.3886C26.8859 16.8601 25.4589 16.8601 24.1244 17.3886L20.438 18.9081C19.1827 19.4366 18.3107 20.7447 18.3107 22.1056V24.9993C18.3107 26.5716 18.7467 28.144 19.5527 29.5446H9.84111C8.03093 29.5446 6.32645 28.1043 6.02255 26.3206L4.35771 16.3448C4.1463 15.1159 4.76731 13.4643 5.74507 12.6847L14.4392 5.73464C15.7738 4.66439 17.9407 4.66439 19.2752 5.74785L27.9694 12.6847C28.9339 13.4643 29.5682 15.1159 29.3567 16.3448Z" fill="#45B5A9"/>
</svg>
