<svg width="37" height="37" viewBox="0 0 37 37" fill="none" xmlns="http://www.w3.org/2000/svg">
<g clip-path="url(#clip0_395_20822)">
<path d="M5.24648 23.6125C7.46836 23.6125 9.28242 21.8125 9.28242 19.5766C9.28242 17.3547 7.48242 15.5547 5.24648 15.5547C3.02461 15.5547 1.22461 17.3547 1.22461 19.5766C1.22461 21.8125 3.03867 23.6125 5.24648 23.6125Z" fill="#FF960E"/>
<path d="M27.8304 30.5453C28.0132 30.4187 28.2664 30.4609 28.407 30.6296L29.1523 31.6562C29.2789 31.839 29.2367 32.0921 29.0679 32.2328L23.5976 36.1984C23.4148 36.325 23.1617 36.2828 23.0211 36.114L22.2757 35.0875C22.1492 34.9046 22.1914 34.6515 22.3601 34.5109L27.8304 30.5453Z" fill="#45B5A9"/>
<path d="M21.6576 25.4126L19.4779 21.6157L18.3389 22.4454L20.5186 26.2704L21.6576 25.4126Z" fill="#45B5A9"/>
<path d="M16.5947 16.5392L8.15723 1.71729L6.54004 1.73135L15.4416 17.3688L16.5947 16.5392Z" fill="#45B5A9"/>
<path d="M24.5407 24.3718C25.0188 24.0202 25.5672 23.753 26.186 23.753L34.0188 23.7671C35.5376 23.7671 36.7751 25.0046 36.7751 26.5233C36.7751 28.0421 35.5516 29.2796 34.0188 29.2796L27.4797 29.2655L19.1266 35.1577C16.1876 37.2811 14.4016 34.9468 14.4016 34.9468L7.84849 28.3936C6.75162 27.0718 6.99068 24.5686 8.29849 23.4577L17.3688 17.003C18.2688 16.2436 19.6047 16.3702 20.3641 17.2561C21.1235 18.1561 20.9969 19.5061 20.0969 20.2515L14.2891 24.4983L18.4657 28.6186L24.5407 24.3718Z" fill="#FF960E"/>
</g>
<defs>
<clipPath id="clip0_395_20822">
<rect width="36" height="36" fill="white" transform="translate(1 1)"/>
</clipPath>
</defs>
</svg>
