<svg width="37" height="37" viewBox="0 0 37 37" fill="none" xmlns="http://www.w3.org/2000/svg">
<path d="M5.20701 7.83554C4.625 8.66476 4.625 11.1296 4.625 16.0592V18.4869C4.625 27.1788 11.1601 31.397 15.2603 33.1881C16.3725 33.6739 16.9286 33.9168 18.5 33.9168C20.0714 33.9168 20.6275 33.6739 21.7397 33.1881C25.8399 31.397 32.375 27.1788 32.375 18.4869V16.0592C32.375 11.1296 32.375 8.66476 31.793 7.83554C31.211 7.00633 28.8935 6.21302 24.2583 4.62638L23.3752 4.32411C20.959 3.49703 19.7509 3.0835 18.5 3.0835C17.2491 3.0835 16.041 3.49703 13.6248 4.32411L12.7417 4.62638C8.10658 6.21302 5.789 7.00633 5.20701 7.83554Z" fill="#45B5A9"/>
<path d="M16.7442 12.8933L16.5421 13.2558C16.3201 13.654 16.2091 13.8531 16.0361 13.9845C15.863 14.1158 15.6474 14.1646 15.2165 14.2621L14.824 14.3509C13.3072 14.6941 12.5489 14.8657 12.3684 15.4459C12.188 16.0262 12.705 16.6307 13.7391 17.84L14.0066 18.1528C14.3004 18.4964 14.4474 18.6682 14.5135 18.8808C14.5796 19.0934 14.5573 19.3225 14.5129 19.781L14.4725 20.1984C14.3161 21.8116 14.238 22.6184 14.7103 22.977C15.1827 23.3356 15.8929 23.0086 17.3131 22.3548L17.6804 22.1855C18.084 21.9997 18.2858 21.9068 18.4997 21.9068C18.7135 21.9068 18.9153 21.9997 19.3189 22.1855L19.6863 22.3548C21.1065 23.0086 21.8166 23.3356 22.2889 22.977C22.7615 22.6184 22.6831 21.8116 22.5268 20.1984L22.4864 19.781C22.442 19.3225 22.4198 19.0932 22.486 18.8808C22.5519 18.6682 22.6989 18.4964 22.9927 18.1528L23.2603 17.84C24.2943 16.6307 24.8114 16.0262 24.6309 15.4459C24.4505 14.8657 23.6922 14.6941 22.1753 14.3509L21.7828 14.2621C21.3519 14.1646 21.1364 14.1158 20.9633 13.9845C20.7903 13.8531 20.6793 13.654 20.4573 13.2559L20.2552 12.8933C19.4742 11.4921 19.0835 10.7915 18.4997 10.7915C17.9158 10.7915 17.5252 11.4921 16.7442 12.8933Z" fill="#FF960E"/>
</svg>
