<svg width="471" height="463" viewBox="0 0 471 463" fill="none" xmlns="http://www.w3.org/2000/svg">
<path d="M337.846 216.274C338.475 215.447 338.237 214.246 337.334 213.559L245.276 143.314C244.911 143.036 244.246 142.667 243.581 142.473C242.158 142.056 241.46 142.629 241.171 143.008L116.708 306.124C116.242 306.732 116.214 307.529 116.635 308.205C116.784 308.444 116.981 308.658 117.217 308.838L209.136 378.97C209.886 379.696 211.067 380.152 212.008 380.083C212.748 380.027 213.163 379.675 213.381 379.39L337.846 216.274ZM210.129 374.583L129.785 313.278C128.908 312.608 128.032 311.933 127.158 311.258C125.615 310.067 124.07 308.874 122.507 307.707C125.554 304.781 128.152 300.972 130.667 297.284C131.947 295.409 133.155 293.637 134.401 292.005L244.425 147.814L324.767 209.12C325.659 209.8 326.548 210.487 327.438 211.172C328.97 212.355 330.5 213.536 332.045 214.689C328.997 217.618 326.399 221.428 323.883 225.118C322.604 226.992 321.398 228.762 320.153 230.392L210.129 374.583Z" fill="#8F8F8F"/>
<path d="M300.521 161.263L300.626 161.455C300.933 161.948 301.504 162.389 302.361 162.793L302.303 162.982L302.543 162.875C302.728 162.958 302.927 163.039 303.139 163.118C304.331 163.567 305.444 163.657 306.448 163.384C306.976 163.242 307.179 162.902 307.254 162.713C307.326 162.528 307.407 162.155 307.139 161.725C306.972 161.458 306.71 161.241 306.517 161.107C306.473 161.075 306.317 160.967 306.089 160.847C306.298 160.787 306.502 160.672 306.662 160.466C306.78 160.315 307.025 159.894 306.762 159.28L306.668 159.103C306.12 158.222 304.54 157.952 304.522 157.948C303.779 157.833 302.676 157.761 301.675 158.467C300.778 159.095 300.034 160.239 300.521 161.263Z" fill="#8F8F8F"/>
<path d="M280.594 154.89C280.654 155.234 280.783 155.567 280.977 155.88C281.772 157.154 283.62 157.982 285.28 157.808C286.502 157.681 287.419 157.012 287.795 155.974C287.945 155.564 287.857 155.079 287.601 154.705C287.703 154.442 287.755 153.997 287.356 153.356C287.353 153.352 287.351 153.349 287.349 153.345C286.472 152.101 284.678 151.429 283.083 151.75C281.663 152.04 280.306 153.238 280.594 154.89Z" fill="#8F8F8F"/>
<path d="M290.02 160.491L290.07 160.566C294.755 167.226 300.743 172.719 307.865 176.889C308.667 177.359 309.911 177.479 310.521 176.852C311.098 176.259 310.913 175.366 309.772 174.697C303.435 170.987 298.048 166.014 293.759 159.918C293.205 159.132 291.108 158.489 290.289 159.031C289.873 159.305 289.649 159.895 290.02 160.491Z" fill="#8F8F8F"/>
<path d="M208.123 440.173C205.537 427.6 203.392 414.782 201.746 402.061C202.528 401.745 203.312 401.359 204.089 400.912C205.84 410.638 207.324 419.682 208.623 428.526L208.77 428.925C209.155 429.542 210.34 429.879 210.909 429.672L211.63 429.346L211.527 428.651C210.138 419.189 208.504 409.276 206.665 399.177C207.51 398.525 208.347 397.799 209.195 396.98L212.647 420.212L212.718 420.501L212.813 420.653C213.194 421.264 214.25 421.645 214.904 421.403C215.381 421.228 215.65 420.773 215.577 420.273L211.717 394.313C212.197 393.763 212.679 393.19 213.166 392.588L216.439 414.17C216.574 415.045 217.689 415.619 218.548 415.302C219.131 415.086 219.46 414.518 219.365 413.888L215.644 389.349C215.76 389.193 215.873 389.037 215.986 388.881C217.439 395.932 218.64 402.962 219.563 409.807L219.641 410.131L219.739 410.289C220.129 410.915 221.129 411.279 221.8 411.037C222.292 410.86 222.576 410.39 222.506 409.869C221.439 401.952 220.006 393.825 218.249 385.705L218.57 385.251C218.909 384.767 219.248 384.288 219.582 383.813C221.212 390.24 222.598 396.672 223.71 402.959L223.852 403.328C224.233 403.939 225.449 404.285 226.019 404.067L226.729 403.744L226.606 403.042C225.315 395.739 223.667 388.283 221.704 380.879C221.913 380.598 222.119 380.322 222.327 380.052L222.387 379.975L226.514 395.128L226.664 395.473C227.06 396.109 228.043 396.417 228.729 396.119C229.285 395.876 229.548 395.302 229.383 394.692L224.592 377.096L224.901 376.693C227.079 384.357 229.02 392.013 230.677 399.477L230.837 399.867C231.229 400.495 232.174 400.801 232.861 400.52C233.411 400.297 233.691 399.743 233.558 399.142C231.715 390.841 229.532 382.339 227.068 373.863L229.125 371.178L233.656 392.632L233.815 393.02C234.21 393.655 235.284 394.029 235.946 393.764C236.422 393.571 236.679 393.084 236.572 392.58L231.42 368.183L233.671 365.246C235.871 371.552 237.553 377.945 238.677 384.272L238.832 384.671C239.213 385.282 240.306 385.664 240.958 385.415C241.415 385.242 241.676 384.786 241.592 384.307C240.303 377.052 238.311 369.766 235.666 362.641L236.427 361.648C237.668 367.627 239.227 373.462 241.071 379.022L241.2 379.291C241.607 379.945 242.642 380.262 243.328 379.939C243.866 379.687 244.106 379.099 243.91 378.507C241.777 372.075 240.048 365.377 238.77 358.592L240.35 356.528C241.782 363.214 243.47 369.779 245.377 376.073L245.501 376.348C245.895 376.98 247.075 377.368 247.714 377.077L248.464 376.631L248.243 375.907C246.061 368.696 244.175 361.175 242.638 353.542L244.289 351.388C244.631 352.861 244.887 354.387 245.137 355.878C245.333 357.044 245.526 358.192 245.753 359.288L248.615 373.113L248.754 373.456C249.122 374.046 250.301 374.443 250.931 374.19L251.652 373.84L248.643 359.311C248.418 358.23 248.229 357.104 248.037 355.963C247.624 353.511 247.2 350.979 246.396 348.638L247.445 347.268C248.998 354.915 250.176 362.578 250.945 370.076C251.039 370.976 252.284 371.657 253.147 371.362C253.654 371.189 253.958 370.712 253.904 370.172C253.027 361.636 251.633 352.912 249.765 344.24L250.916 342.737C252.472 349.245 253.782 355.742 254.812 362.077C254.955 362.955 256.216 363.616 257.051 363.303C257.564 363.111 257.847 362.612 257.759 362.063C256.572 354.74 255.03 347.25 253.17 339.795L254.296 338.326L259.069 360.024L259.209 360.364C259.586 360.97 260.745 361.36 261.384 361.099L262.116 360.721L256.542 335.386L257.85 333.681C259.435 340.58 260.744 346.899 261.844 352.941L261.997 353.329C262.371 353.93 263.489 354.32 264.132 354.071L264.881 353.679L264.753 352.976C263.457 345.847 261.929 338.577 260.083 330.763L261.469 328.953C262.969 336.014 264.269 342.583 265.431 348.982L265.572 349.338C265.946 349.938 267.186 350.288 267.745 350.074L268.452 349.764L268.324 349.06C267.255 343.188 266.857 340.734 265.572 334.598L269.017 349.656L269.181 350.049C269.572 350.676 270.517 350.977 271.204 350.695C271.763 350.465 272.043 349.901 271.905 349.291L265.958 323.088L267.096 321.601C269.453 329.204 271.534 336.818 273.292 344.261L273.442 344.619C273.842 345.262 274.929 345.637 275.593 345.361C276.067 345.164 276.316 344.677 276.197 344.174C274.233 335.854 271.874 327.344 269.183 318.875L270.11 317.664C271.995 325.388 273.866 332.451 275.817 339.2L275.945 339.488C276.336 340.116 277.51 340.503 278.151 340.217L278.898 339.78L278.69 339.059C276.475 331.392 274.329 323.228 272.311 314.786L273.099 313.758L277.849 331.541L278 331.885C278.396 332.52 279.379 332.828 280.064 332.532C280.618 332.293 280.882 331.725 280.719 331.116L275.31 310.87L275.753 310.291C278.364 318.093 280.678 325.33 282.812 332.367L282.927 332.619C283.316 333.243 284.612 333.583 285.164 333.333L285.877 332.976L285.658 332.252C283.265 324.36 280.611 316.09 277.765 307.664L278.74 306.39L285.169 329.912L285.311 330.233C285.706 330.868 286.717 331.188 287.391 330.892C287.925 330.659 288.177 330.108 288.017 329.525L280.918 303.546L282.497 301.477C284.699 308.974 287.184 316.325 289.893 323.354L290.001 323.572C290.415 324.236 291.494 324.552 292.177 324.211C292.716 323.942 292.934 323.343 292.707 322.752C289.71 314.978 287.005 306.867 284.664 298.637L285.66 297.334L290.184 314.335L290.315 314.635C290.694 315.242 291.886 315.637 292.515 315.364L293.251 314.967L293.01 314.062C293.517 314.485 294.348 314.691 294.879 314.468C295.347 314.27 295.589 313.787 295.467 313.291L294.049 307.534C294.534 307.785 295.145 307.891 295.55 307.738L296.287 307.374L296.168 306.673C295.173 300.827 293.943 294.875 292.412 288.496L293.638 286.889L300.322 310.762L300.453 311.06C300.841 311.682 302.012 312.072 302.651 311.791L303.402 311.351L295.771 284.096L295.983 283.816L303.706 309.354L303.844 309.658C304.251 310.31 305.252 310.619 305.945 310.307C306.494 310.058 306.74 309.485 306.56 308.88L305.09 304.021C305.583 304.513 306.501 304.767 307.07 304.52C307.544 304.316 307.782 303.822 307.65 303.32L300.859 277.432L301.91 276.055C304.517 284.099 306.95 291.974 309.148 299.487L309.276 299.77C309.667 300.398 310.842 300.786 311.483 300.5L312.231 300.062L312.019 299.339C309.528 290.824 306.82 282.09 303.965 273.366L304.832 272.229C305.652 274.233 306.231 276.451 306.793 278.609C307.078 279.699 307.354 280.757 307.65 281.74C308.903 285.91 310.125 290.268 311.386 295.061L311.511 295.353C311.901 295.978 313.163 296.317 313.723 296.075L314.44 295.722L314.25 295.003C312.833 289.617 311.441 284.696 309.992 279.959C309.736 279.118 309.496 278.239 309.253 277.342C308.562 274.8 307.85 272.178 306.621 269.883L306.901 269.517C309.561 277.471 311.981 285.303 314.104 292.818L314.248 293.142C314.649 293.786 315.641 294.096 316.33 293.792C316.877 293.55 317.131 292.985 316.962 292.384C314.587 283.972 311.907 275.357 308.995 266.771L310.329 265.022L319.39 288.76L319.489 288.958C319.891 289.604 321.012 289.944 321.669 289.618C322.172 289.367 322.378 288.807 322.167 288.255L312.307 262.422L313.972 260.235C314.56 261.742 315.049 263.35 315.524 264.916C315.881 266.089 316.229 267.232 316.603 268.288L320.481 279.215L320.59 279.441C320.994 280.09 322.19 280.473 322.835 280.163L323.585 279.696L318.34 264.918C318.075 264.171 317.828 263.396 317.579 262.613C317.068 261.007 316.541 259.354 315.819 257.805L316.479 256.939C319.604 264.575 322.281 272.332 324.445 280.016L324.565 280.286C324.951 280.906 326.241 281.247 326.791 281.002L327.501 280.655L327.298 279.935C327.077 279.146 326.849 278.357 326.617 277.568C326.882 277.606 327.142 277.586 327.365 277.499C327.867 277.303 328.137 276.811 328.036 276.272C326.45 267.823 324.019 259.404 320.808 251.244L320.892 251.132C324.029 259.007 326.732 267.037 328.934 275.02L329.069 275.323C329.464 275.958 330.61 276.342 331.26 276.057L332.014 275.604L331.816 274.885C329.37 266.02 326.349 257.171 322.832 248.578L323.355 247.892C326.272 254.947 328.915 262.057 331.215 269.049L331.333 269.297C331.731 269.936 332.809 270.272 333.47 269.963C333.975 269.726 334.202 269.174 334.02 268.618C333.885 268.208 333.749 267.797 333.611 267.386C333.864 267.406 334.113 267.372 334.333 267.277C334.878 267.038 335.133 266.476 334.969 265.879L328.262 241.439L329.602 239.678C331.682 247.506 333.488 254.895 335.108 262.216L335.265 262.598C335.67 263.248 336.727 263.617 337.399 263.342C337.881 263.145 338.137 262.649 338.024 262.135C336.19 253.856 334.092 245.336 331.785 236.804L332.236 236.211L338.861 258.91L338.978 259.174C339.366 259.795 340.66 260.135 341.212 259.887L341.921 259.543L341.266 257.299C341.756 257.53 342.356 257.62 342.744 257.459L343.469 257.097L337.114 229.798L338.306 228.23C338.96 230.1 339.353 232.244 339.708 234.183C339.907 235.272 340.099 236.312 340.319 237.235L343.106 248.931L343.272 249.326C343.668 249.962 344.593 250.253 345.292 249.963C345.864 249.723 346.151 249.143 346.002 248.517L342.472 233.701C342.307 233.01 342.163 232.301 342.018 231.587C341.61 229.575 341.187 227.501 340.287 225.634C340.718 225.078 341.163 224.515 341.621 223.948C343.413 230.005 344.971 235.536 346.371 240.805L346.505 241.111C346.89 241.73 348.058 242.12 348.698 241.842L349.442 241.42L349.251 240.702C348.357 237.335 347.416 233.922 346.415 230.405C346.943 230.793 347.766 230.973 348.266 230.746L349.013 230.302L348.785 229.576C347.789 226.409 346.573 223.187 345.07 219.742C349.9 213.876 354.034 208.522 356.007 202.762C358.764 194.724 355.451 186.962 346.506 180.352C331.483 169.258 316.433 157.651 301.881 146.425C294.477 140.713 287.074 135.003 279.645 129.334L273.076 124.322C256.007 112.392 244.727 127.303 235.664 139.282C235.036 140.113 234.414 140.933 233.801 141.735C214.81 166.504 195.813 191.267 176.804 216.021L171.633 222.755C153.332 246.587 134.41 271.229 115.719 295.403C114.268 297.282 112.6 299.24 110.836 301.313C105.865 307.156 100.231 313.778 98.031 320.481C96.2096 326.027 97.1885 331.111 101.049 335.783L106.798 356.556L106.921 356.834C107.314 357.464 108.581 357.799 109.143 357.553L109.856 357.204L105.003 339.671C105.188 339.824 105.377 339.977 105.571 340.132L112.051 363.204L112.187 363.508C112.592 364.158 113.717 364.537 114.376 364.245C114.847 364.037 115.078 363.544 114.938 363.045L109.284 342.915C109.936 343.396 110.582 343.885 111.231 344.369L110.701 344.644L110.943 345.374C113.113 351.952 114.813 358.754 115.995 365.595L116.139 365.967C116.529 366.593 117.723 366.924 118.298 366.707L119.014 366.382L118.893 365.68C117.778 359.232 116.19 352.823 114.207 346.592C114.344 346.695 114.482 346.797 114.617 346.899C116.736 353.382 118.395 360.057 119.551 366.746L119.694 367.121C120.074 367.731 121.288 368.078 121.855 367.859L122.569 367.534L122.447 366.834C122.196 365.386 121.923 363.935 121.624 362.486L125.493 375.095L125.607 375.346C126.005 375.984 127.281 376.317 127.844 376.059L128.445 375.75L129.348 378.692L129.462 378.942C129.858 379.578 131.132 379.912 131.696 379.658L132.324 379.34C132.392 379.604 132.46 379.87 132.526 380.135L132.671 380.47C133.068 381.107 134.182 381.488 134.838 381.209C135.307 381.01 135.548 380.524 135.423 380.025C133.525 372.497 131.212 364.939 128.535 357.519L129.127 357.978L136.315 379.817L136.441 380.086C136.842 380.729 137.896 381.052 138.571 380.737C138.605 380.721 138.639 380.703 138.671 380.685L139.101 382.383L139.239 382.702C139.622 383.317 140.784 383.708 141.422 383.435L141.847 383.196C142.473 386.066 143.019 388.948 143.489 391.836L143.575 392.159L143.667 392.306C144.063 392.941 145.068 393.301 145.738 393.052C145.915 392.985 146.064 392.88 146.18 392.75C146.221 392.991 146.26 393.233 146.299 393.475L146.387 393.794L146.478 393.94C146.874 394.575 147.88 394.936 148.548 394.685C148.738 394.613 148.895 394.501 149.013 394.357C149.092 394.809 149.166 395.261 149.24 395.713L149.326 396.035L149.418 396.183C149.813 396.817 150.819 397.178 151.488 396.928C151.99 396.739 152.271 396.25 152.183 395.714C150.845 387.486 148.861 379.254 146.278 371.198L147.463 372.101L155.08 403.134L155.225 403.479C155.622 404.117 156.736 404.496 157.392 404.219C157.862 404.019 158.102 403.534 157.98 403.037L151.061 374.846L152.528 375.964C154.586 385.854 156.872 395.756 159.324 405.397L159.459 405.71C159.843 406.326 161.01 406.716 161.65 406.442L162.386 406.045L162.204 405.328C160.003 396.665 157.912 387.687 155.986 378.605L158.465 380.497C159.242 388.201 160.595 395.895 162.483 403.378L162.631 403.725C163.036 404.375 164.127 404.748 164.792 404.466C165.271 404.261 165.517 403.76 165.387 403.248C163.72 396.648 162.474 389.829 161.677 382.949L162.255 383.389C164.287 393.063 166.489 402.581 168.802 411.678L168.936 411.99C169.319 412.604 170.486 412.995 171.126 412.723L171.867 412.326L171.683 411.607C169.613 403.468 167.609 394.876 165.72 386.032L167.938 387.725C170.133 396.874 172.117 406.17 173.832 415.357L173.996 415.773C174.393 416.411 175.438 416.78 176.108 416.519C176.594 416.33 176.855 415.855 176.757 415.342C175.867 410.584 174.898 405.763 173.857 400.913L179.099 422.826L179.23 423.134C179.614 423.751 180.87 424.094 181.43 423.861L182.021 423.584L182.326 425.197L182.476 425.576C182.853 426.181 183.976 426.57 184.62 426.317L185.366 425.922L180.821 401.994C180.675 401.224 180.561 400.327 180.443 399.385C180.349 398.654 180.256 397.911 180.143 397.176C180.463 397.396 180.782 397.612 181.105 397.827C181.114 397.873 181.124 397.92 181.137 397.968C184.091 408.451 186.74 419.166 189.011 429.823L189.179 430.239C189.57 430.867 190.487 431.16 191.18 430.881C191.749 430.651 192.041 430.082 191.909 429.462C191.877 429.305 191.844 429.149 191.809 428.992L192.521 431.97L192.651 432.278C193.036 432.896 194.293 433.239 194.854 433.003L195.565 432.667L188.149 401.674C188.211 401.7 188.272 401.725 188.334 401.75L195.962 433.641L196.092 433.949C196.479 434.57 197.734 434.91 198.297 434.674L199.006 434.338L191.445 402.741C192.067 402.89 192.686 403.005 193.301 403.089L202.13 436.192L202.273 436.518C202.667 437.149 203.676 437.47 204.351 437.179C204.412 437.153 204.47 437.121 204.524 437.084C204.751 438.233 204.984 439.378 205.219 440.521L205.39 440.949C205.777 441.57 206.689 441.863 207.38 441.587C207.951 441.367 208.123 440.173 208.123 440.173ZM289.306 300.151L287.808 294.52L287.894 294.41L289.306 300.151ZM291.214 296.031L290.102 291.515L290.185 291.408C290.549 292.986 290.892 294.525 291.214 296.031ZM303.68 299.371L298.126 281.007L298.675 280.29L303.68 299.371ZM179.656 392.155C179.447 391.826 179.126 391.633 178.85 391.519L177.429 390.38C176.34 389.504 175.288 388.659 174.282 387.893L130.424 354.428C125.599 350.746 120.743 347.088 115.891 343.434L108.645 337.97C106.863 336.622 105.475 335.16 104.517 333.622C99.9857 326.351 105.192 317.872 111.494 309.794C124.192 293.514 136.978 276.866 149.342 260.765L158.56 248.767C168.742 235.521 178.953 221.892 188.828 208.71C207.909 183.241 227.641 156.906 248.143 132.026C252.178 127.131 260.341 119.893 269.654 126.401L327.375 170.445C329.656 172.186 331.959 173.909 334.262 175.63C337.723 178.219 341.302 180.895 344.746 183.595C346.638 185.077 348.128 186.679 349.173 188.356C352.97 194.449 351.284 201.892 343.871 211.782C317.735 246.636 290.764 281.783 264.681 315.772C255.9 327.214 247.119 338.656 238.353 350.108C234.838 354.698 231.331 359.295 227.826 363.892C220.564 373.407 213.057 383.249 205.605 392.87L205.439 393.083C203.901 395.071 202.573 396.787 200.434 397.991C193.288 402.019 185.97 397.119 179.656 392.155ZM322.257 264.361C321.041 261.039 319.741 257.736 318.361 254.465L318.791 253.899C320.094 257.365 321.25 260.86 322.257 264.361ZM328.62 253.583C327.55 250.832 326.439 248.087 325.287 245.356L326.076 244.317L328.62 253.583ZM338.12 246.522L334.316 233.483L334.905 232.709L338.12 246.522ZM126.67 360.572C128.541 365.963 130.221 371.44 131.693 376.948L126.67 360.572ZM133.838 361.633L135.592 368.551L133.136 361.088L133.838 361.633ZM174.887 393.225C175.377 393.612 175.867 393.997 176.361 394.382C176.434 397.27 177.22 400.356 177.981 403.342C178.363 404.834 178.72 406.243 178.97 407.55L181.487 420.808L174.887 393.225ZM184.703 400.021C184.77 400.058 184.835 400.092 184.9 400.127L186.188 405.515C185.704 403.678 185.209 401.848 184.703 400.021ZM196.285 403.245C197.172 403.211 198.046 403.104 198.904 402.928C199.96 410.981 201.207 419.042 202.63 427.032L196.285 403.245Z" fill="#8F8F8F"/>
<path d="M165.203 366.824C164.263 364.505 163.526 362.054 162.813 359.684C162.321 358.046 161.812 356.355 161.236 354.701C162.377 352.416 163.568 349.957 164.623 347.396C164.855 346.831 164.796 346.201 164.461 345.663C163.936 344.82 162.928 344.497 162.064 344.895C160.691 345.527 159.212 346.096 157.458 346.666C156.081 344.401 154.469 342.177 152.471 339.758C152.079 339.283 151.479 339.01 150.863 339.03C150.278 339.049 149.747 339.329 149.406 339.801C148.315 341.308 148.336 343.46 148.349 345.191L148.351 346.017C148.339 346.989 148.36 348.034 148.413 349.192C145.099 350.025 142.45 350.538 139.899 350.852C139.238 350.932 138.702 351.305 138.431 351.875C138.144 352.474 138.194 353.211 138.559 353.797C138.754 354.109 139.027 354.362 139.352 354.527C142.526 356.153 145.825 358.059 149.426 360.354C149.747 362.977 150.119 365.619 150.536 368.215C150.579 368.481 150.67 368.73 150.805 368.947C151.27 369.693 152.202 370.006 153.061 369.736C153.106 369.739 153.158 369.743 153.217 369.745C154.019 369.779 154.962 369.345 155.235 368.355C155.329 368.012 155.332 367.665 155.246 367.332C155.363 366.958 155.602 366.472 155.803 366.069C155.945 365.786 156.072 365.523 156.16 365.312C156.211 365.189 156.261 365.067 156.313 364.942C158.307 366.318 160.289 367.713 162.267 369.11C162.98 369.614 163.927 369.585 164.618 369.036C165.299 368.498 165.529 367.629 165.203 366.824ZM148.674 353.098C148.74 353.894 148.814 354.691 148.892 355.486C147.885 354.872 146.903 354.288 145.936 353.731C146.798 353.545 147.702 353.336 148.674 353.098ZM152.225 348.179C152.197 347.322 152.193 346.516 152.21 345.743C152.707 346.44 153.171 347.125 153.608 347.806C153.146 347.935 152.687 348.061 152.226 348.186C152.226 348.184 152.225 348.183 152.225 348.179ZM158.766 359.625C158.904 360.072 159.039 360.521 159.174 360.969C159.334 361.5 159.493 362.031 159.656 362.562C159.08 362.161 158.501 361.762 157.922 361.366C158.196 360.787 158.478 360.21 158.766 359.625ZM154.686 359.183C154.143 358.824 153.601 358.466 153.056 358.112C152.904 356.781 152.761 355.45 152.64 354.115C152.578 353.448 152.518 352.779 152.462 352.11L152.803 352.019C153.732 351.768 154.664 351.518 155.592 351.256C156.14 352.33 156.624 353.406 157.035 354.465L155.595 357.332C155.289 357.947 154.985 358.564 154.686 359.183Z" fill="#8F8F8F"/>
<path d="M269.288 112.687C269.397 112.93 269.52 113.159 269.652 113.37C270.391 114.556 271.526 115.345 272.872 115.616C274.756 117.331 277.255 117.477 279.312 115.973L281.795 114.157C292.046 106.677 302.644 98.9397 311.238 89.572C316.656 83.6692 325.079 72.3755 320.633 63.052C316.912 55.2641 306.824 54.7353 299.722 58.5041C295.766 60.6037 292.206 63.9407 288.885 68.6705C288.247 64.2211 287.133 60.4188 285.499 57.1055C285.234 56.5683 284.942 56.0423 284.627 55.5374C282.556 52.214 279.693 50.0462 276.771 49.5904C274.374 49.2149 271.965 49.9869 269.804 51.8209C253.807 65.3958 261.953 96.4675 269.288 112.687ZM284.936 94.894C286.749 94.7229 288.202 93.5529 288.924 91.6829C291.075 86.1143 294.156 78.9453 298.942 72.9033C300.516 70.9163 303.444 67.2165 306.333 66.9117C307.401 66.799 308.403 67.1425 309.398 67.9657L309.712 68.1306C311.657 68.6849 312.054 69.5516 310.862 71.3693L310.775 71.5431C309.859 74.0019 308.595 76.3202 307.003 78.4556C299.944 88.4333 288.558 96.58 278.512 103.769L277.166 104.733C271.824 91.5278 270.169 79.7165 272.249 69.6174C272.731 67.2714 274.75 60.8778 275.576 60.3631C275.578 60.3642 275.719 60.4295 275.959 60.8145C276.94 62.3894 277.713 66.2496 277.966 67.5176L278.048 67.9149C279.472 74.7024 279.221 81.8295 278.977 88.7221L278.961 89.1968C278.923 90.2867 279.203 91.344 279.772 92.2559C280.869 94.022 282.945 95.0823 284.936 94.894Z" fill="#8F8F8F"/>
<path d="M232.201 91.253L231.633 89.571C229.695 83.8173 227.69 77.8677 224.753 72.5193C224.436 71.9395 224.08 71.323 223.686 70.6915C220.331 65.3077 216.706 62.7253 212.913 63.0164C211.04 63.1597 209.47 64.0566 208.372 65.6098C206.887 67.7124 206.39 70.9818 207.136 73.7479C207.594 75.4446 208.428 77.1672 209.642 78.8958C207.67 78.6516 205.878 78.6731 204.21 78.9542C201.947 79.3371 200.182 80.481 199.367 82.0938C198.882 83.0566 198.519 84.63 199.548 86.6681C199.722 87.0092 199.907 87.3392 200.106 87.6586C206.511 97.9367 225.282 96.2445 228.98 95.8015C229.934 95.6866 230.682 95.192 231.08 94.4254C232.186 93.7719 232.636 92.5374 232.201 91.253ZM209.132 85.0047C209.396 85.0571 209.65 85.1049 209.886 85.1416C212.89 85.6144 215.843 86.6597 218.699 87.6729L218.988 87.7732C220.212 88.207 221.393 87.9038 222.149 86.9645C222.992 85.9149 223.077 84.3711 222.353 83.2096C222.163 82.9048 221.922 82.6353 221.637 82.4076C218.525 79.9221 216.191 77.5098 214.502 75.033L214.372 74.8315C213.197 72.9453 212.503 70.5685 212.971 70.0303C213.153 69.8215 213.997 69.7096 216.015 70.6093C216.285 70.7295 216.91 71.2066 218.065 73.0612C218.246 73.3506 218.406 73.6195 218.541 73.8462L218.742 74.1821C221.682 78.9979 223.621 84.6173 225.46 90.0951C220.476 90.4418 213.825 90.1016 208.47 86.976C208.278 86.8649 208.057 86.7458 207.823 86.6214C207.191 86.2861 206.263 85.8307 206.041 85.3521C206.042 85.3378 206.066 85.2734 206.156 85.168C206.693 84.5349 207.989 84.7844 209.132 85.0047Z" fill="#8F8F8F"/>
<path d="M188.611 71.8647C189.017 70.5147 187.717 69.1056 186.399 69.283C185.705 69.3757 185.165 69.8528 184.953 70.5626C182.314 79.3619 180.14 88.3762 178.491 97.3559C178.403 97.8339 178.483 98.2893 178.72 98.6703C179.129 99.326 179.955 99.662 180.774 99.507C181.587 99.353 182.184 98.7499 182.335 97.9343C183.947 89.1525 186.059 80.3822 188.611 71.8647ZM179.471 98.2004L179.472 98.202L179.454 98.2131L179.471 98.2004Z" fill="#8F8F8F"/>
<path d="M192.47 111.48C191.159 102.75 191.886 94.1007 194.629 85.7751C195.074 84.4369 193.802 83.0124 192.471 83.1734C191.772 83.2566 191.217 83.724 190.985 84.4271C188.018 93.4267 187.223 102.713 188.621 112.025C188.661 112.301 188.755 112.556 188.894 112.779C189.371 113.544 190.366 113.86 191.262 113.53C192.121 113.214 192.607 112.39 192.47 111.48Z" fill="#8F8F8F"/>
<path d="M326.566 63.6074C327.394 67.8124 327.049 71.9504 325.54 75.9043C325.319 76.4859 325.371 77.0833 325.685 77.5879C326.084 78.2283 326.858 78.6077 327.613 78.5355C328.319 78.4671 328.897 78.016 329.159 77.3281C330.938 72.6612 331.356 67.8379 330.401 62.9855C330.16 61.7794 328.819 61.0971 327.678 61.545C326.835 61.8768 326.387 62.7069 326.566 63.6074Z" fill="#8F8F8F"/>
<path d="M331.236 75.7291C330.987 76.3098 331.025 76.9343 331.342 77.4441C331.732 78.0699 332.473 78.438 333.228 78.3803C333.94 78.3259 334.537 77.8918 334.827 77.2172C336.4 73.5529 337.398 69.6843 337.791 65.7177C337.923 64.4054 336.608 63.3478 335.344 63.6403C334.552 63.8253 334.009 64.4542 333.928 65.2826C333.566 68.9348 332.684 72.3527 331.236 75.7291Z" fill="#8F8F8F"/>
</svg>
