<svg width="146" height="64" viewBox="0 0 146 64" fill="none" xmlns="http://www.w3.org/2000/svg">
<path d="M99.2124 43.4669C99.7599 38.1486 102.971 34.6772 106.048 30.5253C107.069 29.1482 108.189 27.653 109.292 26.3484C110.16 25.3224 111.232 24.8414 112.599 24.8004C114.322 24.7529 115.994 25.3779 117.249 26.5387C115.379 29.1633 113.298 31.8381 111.376 34.458C115.466 34.0016 119.137 35.7305 121.218 39.2119C121.596 31.2825 124.722 24.8053 133.774 24.803C141.608 24.801 145.44 30.6837 145.925 37.7902C146.427 45.1615 144.359 53.1143 135.856 54.5676C133.467 54.9199 130.522 54.7338 128.326 53.705C124.789 52.0482 123.365 49.6861 122.067 46.283C121.845 47.2011 121.579 47.9643 121.173 48.8172C117.583 56.3658 104.85 56.7995 100.649 49.6362C100.141 48.7704 99.8566 48.0225 99.5337 47.0779C97.6482 56.838 83.5335 56.0492 77.1211 51.63L80.2201 46.4973C82.4881 47.8178 84.2844 48.4644 86.9831 48.5886C88.5734 48.6309 90.2822 48.6079 91.5142 47.4866C92.6092 46.5546 92.8303 44.751 91.7236 43.7358C90.0989 42.2461 86.8898 42.5894 84.7857 42.604C84.1911 41.1711 83.5024 39.3251 84.3063 37.7759C85.5896 35.3034 90.5639 37.421 91.7648 34.9357C92.8573 32.0191 90.3436 30.6702 87.814 30.726C85.1439 30.7851 82.8683 31.5535 81.6034 34.0333C78.6483 33.2239 76.799 30.4883 79.0133 27.789C80.6321 25.8157 84.1978 25.0368 86.6745 24.8457C90.426 24.3596 95.7342 25.6038 97.9241 28.9062C99.014 30.5718 99.3857 32.5945 98.9576 34.5293C98.4808 36.7385 96.9587 38.1433 95.1203 39.3273C97.3009 40.2813 98.3395 41.3192 99.2124 43.4669Z" fill="#3D3D3D"/>
<path d="M132.733 31.2879C135.863 30.9302 137.836 32.7975 138.426 35.7067C139.184 39.4523 139.498 47.0745 134.603 48.2047C131.415 48.6633 129.306 46.8018 128.738 43.7868C128.012 39.9314 127.695 32.3983 132.733 31.2879Z" fill="white"/>
<path d="M110.684 39.2562C113.336 39.2858 115.463 41.4177 115.442 44.0237C115.42 46.6297 113.259 48.728 110.607 48.7159C107.943 48.7039 105.796 46.5667 105.817 43.9482C105.838 41.3297 108.02 39.2264 110.684 39.2562Z" fill="white"/>
<path d="M32.4418 9.92773C32.6907 9.98642 35.2788 11.5251 35.6839 11.7442C39.8137 13.9776 43.9304 16.564 48.068 18.7324C48.0765 20.4765 48.1674 36.1204 48.0085 36.4584C46.3164 37.2737 44.2195 38.6327 42.5295 39.5592C39.182 41.3943 35.8261 43.4261 32.4722 45.233C30.8702 44.4041 28.7532 43.1269 27.1408 42.2101L16.9581 36.4219C16.85 35.7249 16.9124 31.8713 16.9129 30.9812L16.8946 18.7434C21.9986 15.8497 27.3122 12.7248 32.4418 9.92773Z" fill="#FE8E01"/>
<path d="M32.4414 9.92773C32.6902 9.98642 35.2784 11.5251 35.6835 11.7442C39.8132 13.9776 43.9299 16.564 48.0676 18.7324C48.0761 20.4765 48.167 36.1204 48.008 36.4584C47.437 36.1964 46.3377 35.5113 45.7515 35.1759L41.1841 32.5765L35.8202 29.556C34.8278 28.9973 33.4718 28.2759 32.5559 27.6447C32.5724 27.5101 32.5409 26.387 32.5406 26.1569L32.5373 22.2988C32.5365 20.6294 32.7104 10.699 32.4414 9.92773Z" fill="#FEE502"/>
<path d="M37.0476 17.8047C37.3805 17.9392 38.7155 18.7267 39.1177 18.9589C40.4855 19.7492 42.0345 20.5347 43.3456 21.3894C43.3184 23.7432 43.3912 26.1521 43.3452 28.4737C43.3403 28.4745 43.3354 28.476 43.3304 28.4762C43.1864 28.4828 38.1441 25.6297 37.6143 25.2996C37.4125 25.1738 37.236 25.018 37.0663 24.8532C36.9504 23.1137 37.0149 19.5901 37.0476 17.8047Z" fill="white"/>
<path d="M32.5592 27.6465C33.475 28.2777 34.8311 28.9991 35.8234 29.5578L41.1873 32.5783L45.7547 35.1777C46.3409 35.5131 47.4403 36.1982 48.0113 36.4602C46.3192 37.2755 44.2223 38.6345 42.5323 39.5609C39.1848 41.3961 35.8289 43.4279 32.475 45.2348C30.873 44.4058 28.756 43.1287 27.1436 42.2118L16.9609 36.4237C20.3012 34.4367 23.9865 32.5144 27.3726 30.5639C29.0617 29.5909 30.8315 28.4766 32.5592 27.6465Z" fill="#5DBA01"/>
<path d="M27.7501 17.8651L27.826 17.9145C27.9962 18.3791 27.9047 24.0463 27.9028 24.9722C26.0729 26.1065 23.6204 27.3971 21.7156 28.47C21.6903 28.4534 21.5733 28.33 21.5732 28.3242C21.5426 26.8693 21.5701 22.5765 21.5662 21.4408C23.1026 20.3788 26.0305 18.8496 27.7501 17.8651Z" fill="white"/>
<path d="M64.7475 10.0041L64.8669 10.0443C64.9719 10.4153 64.9208 14.0126 64.9258 14.692C64.9573 18.9548 64.8697 23.2504 64.9657 27.5119C64.3307 28.0749 60.9865 29.8209 60.0219 30.3728C57.6901 31.7263 55.3507 33.067 53.0038 34.3948C51.9422 34.9958 50.4867 35.8703 49.422 36.3712C49.1071 35.9824 49.4458 20.6288 49.2695 18.7994C51.2646 17.6237 53.3341 16.4945 55.3509 15.3514C58.4645 13.5868 61.6053 11.7119 64.7475 10.0041Z" fill="#01B8B3"/>
<path d="M60.0999 17.9355L60.249 17.9852C60.4354 18.4472 60.3328 23.921 60.3595 24.9228C58.425 26.0871 56.1522 27.3565 54.1703 28.4414C54.0758 28.4361 54.0875 28.4232 53.9928 28.3681C53.8908 26.2474 53.9865 23.5737 53.9759 21.3864C55.4785 20.4991 57.0415 19.6845 58.5397 18.7855C59.0381 18.4863 59.5735 18.1798 60.0999 17.9355Z" fill="white"/>
<path d="M16.2269 37.5742C17.1373 37.9271 19.7647 39.5211 20.7232 40.0692L27.383 43.8474C28.8131 44.6612 30.3778 45.5977 31.8318 46.3429C31.7416 50.5464 31.9066 54.8921 31.8399 59.1108C31.8142 60.7338 31.8777 62.3763 31.8062 64.0007C31.1173 63.7612 28.3064 62.065 27.5255 61.6128C23.8261 59.4711 19.9186 57.3917 16.2499 55.2302C16.1515 52.7953 16.2069 50.0709 16.2073 47.6178C16.1964 44.2699 16.2028 40.922 16.2269 37.5742Z" fill="#02C5F4"/>
<path d="M20.8867 45.3789C21.542 45.7077 22.4714 46.2855 23.1452 46.6692C24.5108 47.4353 25.869 48.2142 27.2195 49.0058C27.2036 51.3924 27.2571 53.8178 27.1757 56.1995C25.1536 55.0155 22.8054 53.7964 20.8551 52.5581C20.8303 50.4301 20.7774 47.466 20.8867 45.3789Z" fill="white"/>
<path d="M48.5617 37.6133L48.6986 37.6641C48.8357 38.1461 48.7384 41.3597 48.7385 42.1402L48.7411 55.2093C43.6153 57.9393 38.4305 61.2542 33.2604 63.9733C33.2322 63.96 33.1243 63.8469 33.1243 63.8256C33.1247 59.9877 33.1264 49.5384 33.1211 46.3904C34.8084 45.3217 37.1231 44.0939 38.916 43.077L48.5617 37.6133Z" fill="#FB2801"/>
<path d="M43.9805 45.4727C44.02 45.4862 44.1169 45.5803 44.1171 45.5956C44.132 47.1382 44.1393 51.2558 44.103 52.5294C43.4434 53.0257 42.3302 53.618 41.5804 54.0376C40.3407 54.7183 39.1138 55.4211 37.9003 56.1457C37.6486 55.8614 37.7516 49.8225 37.75 49.038C39.7735 47.8601 41.9204 46.5706 43.9805 45.4727Z" fill="white"/>
<path d="M16.1597 0.000106536C16.7194 -0.0331196 29.947 7.71584 31.901 8.76172C26.8769 11.6457 21.4374 14.8214 16.366 17.5582C16.1084 17.6497 14.208 16.4674 13.848 16.2602L10.0264 14.0853C6.96134 12.3363 3.72471 10.5776 0.710938 8.77974C1.96877 7.93718 4.53809 6.58739 5.96336 5.78038L16.1597 0.000106536Z" fill="#DB3B98"/>
<path d="M48.5532 0.00605938C48.9955 -0.0242739 53.4758 2.63762 54.14 3.01534L64.2779 8.778C62.2461 9.98216 60.0408 11.1822 57.9766 12.3535L48.7854 17.5785C48.3239 17.521 34.4882 9.60568 33.1289 8.76486C38.1006 5.82253 43.505 2.86177 48.5532 0.00605938Z" fill="#694699"/>
<path d="M0.0469798 9.95117C0.595122 10.2049 1.17354 10.523 1.69384 10.8324C6.26727 13.5522 11.0746 16.0055 15.624 18.7533L15.646 36.4373C15.0289 36.1406 14.2655 35.7036 13.6708 35.3494C9.21074 32.6935 4.44633 30.3018 0.0342811 27.5942C-0.0481336 26.1091 0.0438677 23.4782 0.0444563 21.9049L0.0469798 9.95117Z" fill="#026DAD"/>
<path d="M4.69135 17.8457C5.33519 18.1295 6.31029 18.7165 6.94657 19.0776L10.9925 21.4021C10.9602 23.7305 11.054 26.1702 10.9692 28.4845C10.1824 28.2865 5.5715 25.4826 4.65619 24.9589C4.66107 22.6848 4.59985 20.0918 4.69135 17.8457Z" fill="white"/>
<path d="M9.83653 30.289C10.0762 30.3783 9.99463 30.3182 10.1493 30.5134C10.2008 30.7758 10.1453 30.8772 10.0585 31.1237C9.84065 31.0539 9.81004 31.0451 9.65808 30.8785C9.61418 30.6554 9.7283 30.5033 9.83653 30.289Z" fill="#0076B3"/>
<path d="M101.138 9.53397C101.694 9.49744 102.5 9.51223 102.811 10.0282C103.952 11.92 104.848 14.0543 105.923 15.982C106.976 14.0925 107.884 11.8778 109.03 10.0288C109.353 9.50818 111.343 9.10674 111.445 10.1979C111.551 11.336 111.597 12.5004 111.663 13.6591C111.803 15.9447 111.931 18.2311 112.046 20.5181H110.072L109.735 14.5005C109.72 13.8591 109.663 13.2113 109.612 12.571C108.585 14.4128 107.696 16.4963 106.66 18.3675L105.09 18.3549C104.269 16.9801 102.933 14.1049 102.149 12.5741C101.958 14.5 101.737 18.6053 101.745 20.5158L99.7148 20.5185C99.7619 17.6309 100.092 13.1347 100.379 10.1665C100.407 9.87607 100.874 9.66704 101.138 9.53397Z" fill="#3D3D3D"/>
<path d="M92.6503 9.21687C92.9707 9.24125 93.3155 9.27117 93.6124 9.40193C94.582 9.82949 98.0863 19.0506 98.6674 20.5127L96.4212 20.5189C96.1883 19.7434 95.6433 18.4407 95.3381 17.6435L92.8648 17.6366L89.9878 17.6334C89.6422 18.5902 89.2528 19.5673 88.8862 20.5196L86.8477 20.5187C87.8097 18.0364 88.8281 15.5753 89.9004 13.137C90.3595 12.088 90.8515 10.8626 91.4469 9.89147C91.7354 9.42135 92.1272 9.3177 92.6503 9.21687Z" fill="#3D3D3D"/>
<path d="M92.6766 11.3906C92.9835 11.6302 94.3854 15.2594 94.6015 15.857L92.7741 15.8659L90.707 15.8627C91.2932 14.4164 91.9819 12.7832 92.6766 11.3906Z" fill="white"/>
<path d="M115.08 9.54203C115.323 9.52732 115.567 9.51566 115.81 9.50715C116.888 9.47095 122.999 9.32631 123.499 9.78709C124.018 10.6741 123.857 13.1244 123.858 14.1834L123.853 20.5205L121.83 20.52L121.829 12.3276L121.83 11.3333C120 11.3068 118.106 11.3307 116.271 11.3309C116.203 14.3049 116.266 17.5256 116.266 20.5191L114.2 20.5257C114.17 19.1148 114.023 10.8093 114.38 10.0344C114.519 9.73386 114.788 9.64617 115.08 9.54203Z" fill="#3D3D3D"/>
<path d="M79.123 14.2354C79.5006 14.2357 80.0439 14.2478 80.3887 14.1525C82.5693 13.5391 82.8048 10.7453 84.5868 9.67392C84.9972 9.42721 85.9643 9.45366 86.1905 10.0155C86.1308 10.7383 83.2984 14.4075 82.6349 15.1219C83.671 16.2672 84.4825 17.3305 85.3891 18.5742C85.8298 19.1746 86.2914 19.8905 86.7136 20.5125L84.3959 20.5221C83.2177 18.8333 82.1816 17.4669 80.794 15.9471C80.2516 15.9609 79.6587 16.0195 79.1138 16.0634L79.118 20.5173L77.1316 20.5132C77.1333 17.6683 77.0501 12.995 77.225 10.0432C77.2384 9.82229 77.5984 9.64169 77.8069 9.54011C78.1652 9.54168 78.7354 9.60756 79.1087 9.63954L79.123 14.2354Z" fill="#3D3D3D"/>
<path d="M142.049 9.22654C143.784 9.27299 147.447 9.91644 145.146 12.2238C143.804 11.0944 142.232 10.6953 140.535 11.31C138.445 12.0667 137.758 14.889 138.577 16.7654C138.957 17.6262 139.667 18.3055 140.553 18.6566C142.045 19.2378 143.529 18.9145 144.939 18.3193C145.024 18.2845 145.017 18.3064 145.139 18.3279C145.434 18.6694 145.773 19.344 146 19.7608C144.993 20.3514 143.856 20.6958 142.685 20.765C134.453 21.3109 133.576 9.65426 142.049 9.22654Z" fill="#3D3D3D"/>
<path d="M125.551 9.52862C126.015 9.50713 126.646 9.41555 126.945 9.85088C127.439 10.5712 127.845 11.3682 128.279 12.1292C128.939 13.2666 129.609 14.3986 130.289 15.5247C130.999 14.4001 132.866 9.92982 133.861 9.59541C134.457 9.3953 134.943 9.62863 135.47 9.88411C134.803 11.3519 133.749 13.2585 132.975 14.676C131.824 16.717 130.617 18.7272 129.356 20.7044L127.075 20.6909C127.826 19.5818 128.503 18.5594 129.156 17.3934C128.379 16.0812 125.068 11.3838 125.094 10.298C125.101 9.9523 125.308 9.7498 125.551 9.52862Z" fill="#3D3D3D"/>
</svg>
