<svg width="344" height="216" viewBox="0 0 344 216" fill="none" xmlns="http://www.w3.org/2000/svg">
<path d="M0 211.877C3.50913 211.877 6.95078 211.564 10.4385 211.553C13.9904 211.54 17.5341 211.877 21.086 211.877C22.2193 211.877 23.3854 212.068 24.5071 211.833C25.9876 211.523 26.4724 210.731 26.4394 209.261C26.3876 206.954 25.9876 204.661 26 202.354C26.0115 200.046 26.4888 197.635 27.9595 195.858C28.3693 196.672 28.3249 197.647 28.087 198.527C27.8492 199.406 27.4328 200.225 27.1102 201.076C26.2831 203.257 26.1111 205.671 26.5571 207.958C26.8427 209.424 27.2287 211.164 28.8853 211.487C29.9132 211.687 30.858 211.358 31.8751 211.23C33.1869 211.064 34.5243 211.104 35.8246 211.348C36.6335 211.499 37.4343 211.73 38.2564 211.747C39.0794 211.766 39.9558 211.534 40.4949 210.911C41.1854 210.115 41.1459 208.94 41.0685 207.888C40.8158 204.465 40.5624 201.041 40.3097 197.618C40.2167 196.361 40.0044 194.904 38.914 194.274C37.961 193.724 36.7644 194.067 35.7233 194.422C34.7308 194.761 33.7383 195.1 32.7467 195.439C32.2899 195.594 31.6233 195.655 31.4793 195.193C31.3517 194.786 31.797 194.448 32.1763 194.256C34.0799 193.284 35.9826 192.313 37.8861 191.341C39.188 190.677 38.3823 189.81 38.6111 188.364C40.4175 176.946 42.2231 165.528 44.0295 154.11C45.2607 146.325 48.3262 140.659 50.6198 133.119C50.8923 132.224 51.1671 131.279 50.9655 130.366C50.7639 129.452 49.9014 128.612 48.9838 128.787C47.9098 128.991 47.5041 130.292 47.3074 131.369C43.883 150.093 40.3295 168.792 36.6459 187.467C36.4229 188.599 36.1834 189.767 35.5242 190.713C34.3284 192.427 32.0167 193.002 29.9346 192.854C26.46 192.608 26.1259 186.66 25.907 184.155C25.6757 181.508 25.6864 178.841 25.9374 176.196C26.5226 170.028 28.0376 163.833 29.1075 157.731C30.2358 151.298 31.3641 144.865 32.4924 138.432C32.7927 136.719 33.0874 134.917 32.5195 133.273C31.9969 131.76 30.8143 130.588 29.7634 129.381C28.1463 127.523 26.7662 125.458 25.6683 123.252C25.1877 122.286 24.7515 121.207 24.991 120.155C25.2083 119.202 25.9399 118.46 26.674 117.816C28.6392 116.092 30.8629 114.662 33.2462 113.59C34.1737 113.173 35.3678 112.847 36.1175 113.536C36.4936 113.88 36.6475 114.399 36.7817 114.891C37.7544 118.451 38.5428 122.061 39.1411 125.704C39.2547 126.394 39.36 127.107 39.1913 127.784C39.0226 128.463 38.5083 129.104 37.8178 129.202C37.0516 129.311 36.3628 128.756 35.8056 128.216C32.908 125.408 30.3518 121.894 28.9421 118.088C28.366 116.533 27.5109 115.097 26.934 113.543C26.2814 111.784 26.5612 110.402 26.4345 108.615C26.1802 105.045 24.6125 101.317 23.8455 97.8124C23.0678 94.2566 22.583 90.6423 22.2835 87.0165C21.9197 82.6132 21.212 78.2017 21.2786 73.7721C21.3436 69.4339 22.0168 65.0323 22.9369 60.8665C24.2849 54.7657 24.0026 47.6361 29.3947 43.3696C31.4456 41.7472 34.9827 40.1577 36.91 42.917C38.1009 44.6211 37.0746 46.7135 36.8393 48.5685C36.4895 51.3328 36.1381 54.0971 35.7867 56.8614C34.2157 69.241 34.5959 82.098 34.2568 94.6202C34.1655 97.9888 34.0807 101.413 34.9473 104.669C35.8147 107.925 37.784 111.049 40.8183 112.504C48.4678 116.172 58.0307 112.911 66.508 113.142C67.4075 113.166 68.3647 113.176 69.13 112.702C70.6533 111.76 70.5924 109.558 70.3299 107.784C69.2337 100.377 68.3046 93.1791 68.1589 85.69C68.0124 78.1712 68.3383 70.5197 69.1909 63.0355C69.6024 59.4229 70.1834 55.8086 70.083 52.1737C69.9834 48.5388 69.1465 44.8149 66.9878 41.8914C66.2134 40.8428 65.0744 39.8345 63.7824 39.9961C62.687 41.7274 61.6797 45.5066 58.9005 44.0564C58.1393 43.659 57.6323 42.9129 57.1575 42.1957C56.7197 41.5345 56.281 40.8733 55.8432 40.2121C54.7306 40.6218 54.129 41.6705 53.3381 42.5551C52.2526 43.7695 50.7244 44.5774 49.1114 44.7901C48.2505 43.6425 47.0235 42.8379 45.8401 42.0275C44.6566 41.2171 43.4609 40.3457 42.7128 39.1206C41.9639 37.8963 41.7639 36.226 42.5976 35.0578C42.5293 34.7206 42.9868 34.9316 43.186 35.2119C43.3852 35.4922 43.2148 35.9111 42.9268 36.099C42.6387 36.287 42.2774 36.3101 41.9351 36.3373C39.1156 36.5607 36.3529 37.4667 33.949 38.9581C33.4997 39.2368 33.0355 39.5451 32.5088 39.583C31.9813 39.621 31.383 39.264 31.374 38.7339C31.3633 38.1073 32.085 37.7718 32.6742 37.5607C34.9514 36.7462 37.05 35.4362 38.7831 33.7469C39.1798 33.3603 39.588 32.9365 40.1262 32.8063C40.4241 32.7345 40.736 32.7601 41.0413 32.7296C42.0972 32.6224 43.0296 31.7535 43.2123 30.7064C43.4057 30.5927 43.5432 30.2596 43.7366 30.1458C44.4015 31.7766 45.0731 33.418 46.0326 34.8945C46.9922 36.3711 48.2686 37.6877 49.8693 38.4165C51.5712 39.1906 53.4978 39.25 55.3667 39.2962C56.546 39.325 57.7722 39.3448 58.8438 38.8518C60.1589 38.2467 61.0732 36.8534 61.1061 35.404C61.2147 30.6322 62.5924 29.1846 62.5825 24.4119C62.5825 24.2256 62.5743 24.0212 62.4508 23.881C62.129 23.515 61.5727 23.9618 61.2674 24.3419C60.0033 25.9149 57.922 26.7888 55.9165 26.5892C53.9109 26.3897 52.0419 25.1218 51.112 23.3303C50.5688 22.2841 50.331 21.0878 49.6891 20.0994C49.0472 19.1109 47.7567 18.3639 46.7001 18.8833C47.0128 22.031 46.7684 25.2339 45.9833 28.2975C45.3199 26.0295 44.6501 23.7038 44.8023 21.3451C44.8805 20.1323 45.2113 18.9204 45.8104 17.861C46.0606 17.42 46.3495 16.9204 46.6466 16.5164C46.7453 16.382 47.7617 15.4364 47.9246 15.6087C47.5601 15.2237 46.9206 15.1371 46.4672 15.4117C46.2367 15.551 46.0137 15.781 45.7487 15.7307C45.5635 15.6961 45.4286 15.5221 45.3825 15.3391C45.3364 15.1561 45.3619 14.9632 45.3915 14.776C45.7611 12.4083 46.6885 10.2631 47.8884 8.21935C49.1196 6.12119 51.2733 4.47811 53.6953 4.28272C55.9362 4.10217 58.1023 5.13022 60.3465 5.26461C62.1825 5.37508 64.3659 4.74604 66.1081 5.53832C67.3689 6.11212 67.838 8.19215 67.8059 9.4494C67.7746 10.6498 67.3845 11.8172 66.8455 12.8889C66.4126 13.7496 66.0027 14.2245 65.0456 14.1173C64.012 14.0019 63.054 13.7719 62.1554 13.2269C61.1933 12.6432 60.3498 11.8773 59.3795 11.3068C57.4069 10.1485 54.9338 9.88305 52.7612 10.5954C52.3415 10.733 51.0486 11.2005 51.1317 11.8172C51.2486 12.6812 53.6196 12.0752 54.1553 11.987C55.9905 11.6836 57.9056 11.9837 59.5869 12.771C60.516 13.2055 61.037 13.8733 61.8188 14.5114C62.6467 15.1874 63.5478 15.7736 64.5025 16.2542C64.6531 16.3301 64.8127 16.4092 64.9057 16.5502C65.0465 16.7613 64.9971 17.0416 64.9395 17.2889C64.6193 18.6624 64.2021 20.0177 64.0194 21.4168C63.7964 23.1308 64.4119 24.6535 64.3231 26.3106C64.2194 28.2496 64.0087 30.1805 63.9009 32.1195C63.826 33.46 63.7725 34.8912 64.4523 36.0479C65.2917 37.475 66.9911 38.0859 68.3951 38.9606C71.1438 40.673 72.9403 43.626 73.8999 46.7234C74.8595 49.8208 75.0694 53.0929 75.2726 56.3296C75.8841 66.0505 74.4768 73.4225 76.3985 82.9702C77.0774 86.3438 78.2361 89.6382 78.4666 93.0719C78.7077 96.6631 77.73 100.047 76.4602 103.35C75.2076 106.61 75.0842 110.298 76.145 113.627C76.7885 115.646 77.8477 117.537 78.237 119.619C78.6262 121.702 78.1423 124.168 76.3499 125.293C75.4685 125.846 74.2127 125.956 73.4481 125.249C72.9642 124.802 72.7667 124.128 72.6572 123.478C72.4194 122.066 72.5009 120.622 72.4071 119.193C72.3124 117.764 72.0153 116.288 71.1364 115.158C70.3645 118.896 69.4806 122.767 69.1753 126.577C68.9975 128.803 69.4707 130.873 69.316 133.113C69.1308 135.78 68.8132 138.437 68.3647 141.073C67.8067 144.351 67.0471 147.596 66.0908 150.782C65.1518 153.91 63.4425 156.822 62.7035 159.961C61.7291 164.102 61.9439 168.782 61.7019 173.02C61.4295 177.797 61.1563 182.574 60.8839 187.351C60.7901 188.993 60.6518 190.756 59.6141 192.031C58.7763 193.061 57.4859 193.597 56.2292 194.022C54.6532 194.556 52.8608 194.967 51.3778 194.21C49.2331 193.115 48.8529 190.261 48.7435 187.852C48.2209 176.338 47.6991 164.823 47.1766 153.31C47.0745 151.055 46.9963 148.759 47.4045 146.527C47.5831 145.552 48.0876 143.267 49.6208 144.275C50.6635 144.961 50.6659 148.01 50.8453 149.091C51.5399 153.282 52.0181 157.509 52.2806 161.75C52.8056 170.232 52.4682 178.768 51.2766 187.181C50.2281 194.584 48.518 201.896 46.152 208.988C45.8121 210.006 45.6648 211.479 46.6811 211.82C47.621 212.135 48.4003 211.053 48.7731 210.132C50.2001 206.605 51.0256 202.834 51.205 199.032C52.4246 199.374 53.7159 198.758 54.696 197.953C55.6753 197.148 56.4917 196.139 57.569 195.47C58.6454 194.801 60.1375 194.553 61.1316 195.34C62.157 198.574 64.3757 201.211 67.3763 202.786C70.3768 204.361 73.6629 205.33 76.6758 206.88C77.6609 207.386 78.7118 208.088 78.9036 209.179C79.1694 210.694 77.3803 212.54 76.0734 213.103C74.0834 213.959 70.8229 213.607 68.679 213.656C63.5643 213.771 58.4405 213.434 53.385 212.649C52.9209 212.577 52.3538 212.402 52.2822 211.938C52.1909 211.344 52.9702 211.048 53.5661 210.979C64.1922 209.746 74.9155 209.35 85.6042 209.798C92.838 210.1 95.7349 210.275 102.956 209.75C108.313 209.36 113.729 209.79 118.957 211.023C120.504 211.387 122.425 211.705 123.424 210.469C123.996 209.761 124.035 208.775 124.047 207.864C124.196 196.984 124.344 186.104 124.491 175.224C124.627 165.274 124.674 155.324 124.931 145.376C125.06 140.415 125.241 135.454 125.509 130.498C125.753 126 125.446 120.645 127.042 116.396C127.203 115.968 127.542 115.463 127.982 115.583C128.381 115.692 128.463 116.213 128.468 116.627C128.573 125.506 128.057 134.377 127.474 143.234C127.199 147.418 127.136 151.695 126.608 155.842C126.049 160.227 125.157 164.584 124.486 168.954C122.577 181.387 121.341 193.923 120.788 206.491C120.736 207.662 120.105 207.993 119.043 208.485C117.981 208.977 116.751 208.869 115.587 208.751C113.652 208.554 111.715 208.357 109.78 208.159C108.34 208.013 106.286 207.414 104.91 207.865C105.13 205.521 109.181 205.158 110.905 204.957C113.37 204.67 115.907 204.948 118.231 205.827C118.697 206.004 119.245 206.368 119.126 206.852C119.004 207.348 118.329 207.401 117.822 207.345C115.409 207.078 112.996 206.811 110.584 206.544C109.902 206.469 109.122 206.332 108.775 205.739C108.502 205.274 108.601 204.69 108.703 204.161C110.726 193.692 110.017 183.201 110.699 172.642C111.393 161.879 111.783 151.037 110.589 140.294C110.423 138.794 110.226 137.296 109.994 135.804C109.021 129.518 107.448 123.334 106.575 117.034C105.702 110.734 105.55 104.208 107.382 98.119C107.544 97.5807 107.933 97.0242 108.413 96.7324C108.892 96.4405 109.452 96.3177 109.976 96.119C113.777 94.6812 115.022 89.7305 118.461 87.5647C119.105 87.1591 119.873 86.8549 120.617 87.0132C121.111 87.1187 121.539 87.4155 121.952 87.7065C124.874 89.7618 127.887 91.9136 129.687 95.0035C130.226 95.9286 130.651 97.0539 130.262 98.0514C129.718 99.448 127.903 99.8339 126.418 99.6492C122.75 99.1941 119.732 96.6466 116.966 94.1907C115.991 93.325 114.954 92.3406 114.788 91.0463C114.592 89.5104 115.675 88.1517 116.431 86.7997C116.757 86.216 117.032 85.5004 116.744 84.8961C116.549 84.4871 116.14 84.2324 115.771 83.9702C113.455 82.3239 112.07 79.6148 111.453 76.8381C110.835 74.0614 110.905 71.1842 110.978 68.3407C111.005 67.2797 110.505 63.8756 112.325 63.9259C114.371 63.982 113.374 68.7068 113.079 69.8099C112.39 72.3829 111.176 74.8545 111.059 77.5158C110.91 80.9132 112.56 84.0988 114.164 87.0965C113.435 89.4848 112.263 91.5541 110.491 93.311C110.037 93.7619 109.493 94.208 108.854 94.2129C108.216 94.2179 107.67 93.7834 107.182 93.372C105.816 92.2178 104.45 91.0644 103.083 89.9102C101.659 88.7074 100.172 87.4172 99.5633 85.6529C98.9815 83.9686 99.2942 82.1227 99.6119 80.3691C101.122 72.0498 102.631 63.7314 104.141 55.4121C104.507 53.3988 104.913 51.2924 106.201 49.7029C108.097 47.3591 111.371 46.7498 114.367 46.4283C114.456 49.6691 115.572 52.8118 117.254 55.5588C118.126 56.9851 119.154 58.314 120.299 59.5309C120.987 60.2622 122.843 62.6011 123.959 62.451C125.082 62.3002 124.999 59.2902 125.026 58.4484C125.08 56.741 124.874 55.0254 124.406 53.3823C123.911 51.6428 123.126 49.956 123.031 48.1497C122.928 46.1867 123.649 44.2889 124.219 42.4067C124.787 40.5254 125.207 38.466 124.52 36.6242C123.42 33.6769 124.679 31.4097 125.171 28.3024C125.663 25.1951 126.714 22.1176 128.651 19.6418C129.515 18.5379 130.543 17.57 131.662 16.7299C132.783 15.8882 134.053 15.4595 134.888 14.2665C135.085 13.9862 135.259 13.668 135.262 13.3259C135.265 12.9837 135.047 12.6177 134.71 12.5591C134.358 12.4981 134.019 12.7982 133.926 13.1445C133.834 13.4907 133.93 13.8593 134.066 14.1907C134.418 15.0522 135.019 15.7818 135.573 16.5288C137.409 19.0037 138.82 21.8661 139.189 24.9272C139.336 26.1391 139.425 27.5901 139.048 28.7575C138.613 30.1096 138.126 31.4608 137.4 32.6875C136.545 34.1336 135.311 35.4148 133.742 36.0075C130.677 37.1642 128.059 35.1715 126.05 33.075C124.478 35.5096 122.813 38.2359 121.857 40.9722C120.9 43.7085 120.512 46.7077 121.198 49.524C121.557 50.9956 122.198 52.3848 122.582 53.8506C122.965 55.3164 123.071 56.9397 122.385 58.2901C118.51 54.9075 116.363 49.6353 116.768 44.5024C117.049 40.9574 118.46 37.5797 118.777 34.0371C119.038 31.1277 118.563 28.1128 119.456 25.3328C120.041 23.5125 121.179 21.918 121.846 20.1274C122.441 18.5329 122.658 16.7975 123.432 15.2814C124.4 13.386 126.196 11.9829 128.201 11.278C130.206 10.5731 132.404 10.5286 134.494 10.9111C136.926 11.3563 139.927 11.719 141.27 13.7983C142.613 15.8775 142.92 18.4513 142.998 20.9263C143.076 23.4012 142.967 25.919 143.608 28.3107C144.335 31.0173 146.019 33.6793 145.388 36.4098C145.058 37.8353 144.109 39.1123 144.079 40.5757C144.028 43.0704 146.579 44.8281 147.292 47.2189C147.977 49.5141 146.846 51.9676 145.383 53.8621C143.92 55.7567 142.083 57.3932 141 59.5284C140.61 60.2976 140.316 61.1336 139.748 61.7832C139.181 62.4329 138.225 62.8533 137.446 62.4865C136.528 62.0545 136.341 60.85 136.306 59.8359C136.268 58.7048 136.352 57.5819 136.367 56.4624C136.382 55.3692 135.97 54.2224 135.892 53.1119C135.72 50.6963 136.056 48.2428 136.889 45.9682C137.241 45.0078 137.68 44.0754 137.924 43.0819C138.169 42.0885 138.202 41.0002 137.76 40.0785C137.571 39.6869 136.743 38.5402 136.205 38.6242C135.339 38.7595 136.248 39.8518 136.458 40.1725C137.08 41.1239 136.792 42.3919 136.375 43.4496C135.489 45.697 135.327 47.9378 134.958 50.308C134.751 51.6378 134.436 53.055 133.447 53.9668C132.405 54.9289 130.783 55.0897 129.457 54.5885C128.13 54.0872 127.082 53.0146 126.344 51.8019C125.607 50.5892 125.147 49.2313 124.693 47.8867C128.235 49.0046 132.146 48.909 135.63 47.6179C138.186 46.6715 140.596 45.0861 143.32 44.9863C145.188 44.9179 147.025 45.5742 148.629 46.5354C150.233 47.4967 151.635 48.7548 153.027 50.0046C154.955 51.7368 154.887 52.9849 155.514 55.5027C157.145 62.0536 158.776 68.6054 160.406 75.1563C161.181 78.271 161.94 81.6503 160.686 84.6042C159.515 87.3628 156.841 89.1328 154.276 90.6753C152.452 91.7726 150.609 92.8386 148.75 93.8733C147.993 94.2937 147.151 94.7232 146.303 94.5476C145.575 94.3968 145.012 93.8279 144.535 93.2558C142.814 91.193 141.585 88.7206 140.978 86.1014C140.87 85.6314 140.806 85.0659 141.154 84.7328C141.477 84.4237 142.025 84.4822 142.388 84.7419C142.752 85.0008 142.975 85.4097 143.185 85.8038C143.877 87.0973 144.569 88.3908 145.26 89.6843C145.375 89.8987 145.542 90.1444 145.784 90.1304C146.156 90.1081 146.188 89.5706 146.093 89.2103C145.503 86.9604 144.566 84.8021 143.324 82.8366C144.438 82.0147 145.64 81.2364 146.644 80.2958C147.556 79.4408 148.559 78.8728 149.847 78.7722C150.351 78.7326 150.923 78.7978 151.245 79.1886C151.567 79.5802 151.354 80.3461 150.849 80.3296C150.463 80.3172 150.231 79.905 150.086 79.5455C148.207 74.871 148.007 69.7159 147.831 64.6803C147.727 68.0918 147.297 71.4925 146.551 74.8232C146.161 76.5644 145.665 78.3262 144.636 79.7821C143.32 81.6412 141.265 82.821 139.214 83.8062C137.163 84.7905 135.016 85.6587 133.264 87.1105C131.512 88.5631 130.182 90.7619 130.446 93.0249C130.566 94.0497 130.999 95.0101 131.457 95.9343C131.635 96.2921 131.838 96.6697 132.193 96.8544C132.716 97.1256 133.348 96.8783 133.874 96.6137C136.453 95.3177 138.823 93.6061 140.866 91.5657C141.439 93.0983 143.197 94.2071 144.672 94.9112C146.147 95.6153 147.895 95.7224 149.445 95.2039C148.493 95.5361 149.735 103.792 149.744 104.787C149.81 112.945 149.008 120.801 148.345 128.891C147.305 141.592 147.61 154.352 147.917 167.077C148.108 175.048 148.301 183.02 148.493 190.992C148.56 193.782 148.627 196.572 148.694 199.362C148.726 200.666 148.606 202.086 148.839 203.37C149.054 204.558 148.454 207.016 146.812 206.568C142.384 205.361 137.533 205.772 133.371 207.709C133.298 207.743 131.695 201.689 131.606 201.112C131.248 198.796 131.575 196.465 131.713 194.139C132.01 189.125 132.228 184.1 132.103 179.076C131.904 171.119 130.852 163.211 129.802 155.322C129.231 151.042 129.067 146.72 129.095 142.406C129.109 140.241 129.171 138.077 129.255 135.913C129.311 134.465 128.753 131.744 129.806 130.545C130.49 129.766 130.641 131.174 130.782 131.764C131.071 132.979 131.329 134.203 131.573 135.429C132.547 140.333 133.206 145.297 133.634 150.277C134.495 160.294 134.428 170.364 134.12 180.405C134.089 181.408 134.055 182.412 134.02 183.414C133.679 193.141 135.165 198.153 135.196 207.886C135.199 208.833 135.232 209.873 135.861 210.581C136.343 211.123 137.079 211.351 137.784 211.52C141.855 212.495 146.205 212.264 150.149 210.864C147.046 207.681 141.832 206.805 137.862 208.801C138.483 210.581 140.802 210.929 142.683 210.971C157.187 211.296 171.696 211.29 186.202 211.283C187.167 211.283 185.51 211.586 186.458 211.404C187.406 211.224 188.304 210.381 188.187 209.421C188.096 208.666 187.421 208.011 187.547 207.261C187.664 206.565 188.397 206.181 189.043 205.901C190.53 205.259 192.017 204.616 193.504 203.974C194.551 203.521 195.622 203.054 196.447 202.267C197.272 201.479 197.816 200.293 197.533 199.186C197.356 198.501 196.566 197.849 195.989 198.257C195.58 198.546 195.589 199.139 195.571 199.641C195.509 201.507 194.441 203.309 192.835 204.258C191.587 204.994 189.879 205.441 189.518 206.845C189.356 207.475 189.534 208.138 189.712 208.764C189.967 209.666 190.272 210.64 191.043 211.17C191.786 211.681 192.761 211.642 193.659 211.583C197.844 211.308 202.028 211.033 206.213 210.759C206.716 210.726 207.25 210.681 207.653 210.38C208.434 209.795 208.331 208.614 208.15 207.655C207.486 204.141 206.821 200.628 206.157 197.114C206.106 196.846 206.043 196.554 205.831 196.382C205.611 196.202 205.299 196.205 205.014 196.219C203.323 196.295 201.632 196.371 199.941 196.448C199.587 196.463 199.127 196.578 199.108 196.932C199.099 197.103 199.208 197.256 199.323 197.381C200.413 198.567 202.412 198.584 203.743 197.679C205.075 196.773 205.79 195.158 205.97 193.556C206.15 191.953 205.862 190.339 205.556 188.756C205.251 187.173 204.927 185.57 205.035 183.961C205.736 173.501 205.012 162.665 206.9 152.353C207.72 147.868 209.139 143.435 209.515 138.887C209.907 134.142 209.959 129.368 209.668 124.616C209.647 124.272 209.603 123.886 209.331 123.674C208.997 123.413 208.475 123.579 208.211 123.911C207.946 124.243 207.872 124.683 207.807 125.103C206.138 135.848 206.081 146.71 204.938 157.517C204.384 162.757 203.979 168.015 203.86 173.284C203.725 179.282 203.962 185.306 204.106 191.329C204.123 192.026 204.138 192.736 203.954 193.41C203.486 195.12 202.177 195.166 200.672 195.366C198.841 195.609 197.009 195.853 195.178 196.096C194.852 196.139 194.481 196.17 194.235 195.952C194.013 195.755 193.977 195.427 193.955 195.131C193.168 184.208 192.379 173.285 191.592 162.363C190.494 147.141 189.659 132.833 187.88 117.676C200.313 114.426 213.77 112.97 226.449 115.06C227.684 115.264 228.957 115.491 230.174 115.201C231.391 114.911 232.547 113.947 232.63 112.697C232.896 108.635 231.698 104.421 231.017 100.42C230.292 96.1511 229.562 91.8831 228.833 87.6142C227.892 82.0238 226.924 76.4374 225.969 70.8495C225.504 68.1272 225.025 65.4049 224.695 62.6621C224.395 60.1665 223.711 57.3701 224.689 54.9586C225.35 58.2316 226.01 61.5046 226.67 64.7776C226.815 65.4915 226.98 66.2467 227.484 66.7718C228.137 67.452 229.174 67.5608 230.115 67.5592C231.956 67.5559 233.796 67.2871 235.561 66.7653C236.128 66.5979 236.794 66.2689 236.806 65.6762C236.817 65.2013 236.352 64.8262 235.882 64.7635C235.412 64.7009 234.945 64.8682 234.502 65.0331C232.522 65.7677 230.401 66.6136 229.279 68.405C228.023 70.4133 228.88 72.4315 229.292 74.5289C229.815 77.186 230.799 79.7929 231.443 82.4302C232.521 86.8499 233.361 91.3282 233.955 95.8387C234.219 97.8355 234.338 99.8314 234.801 101.807C235.086 103.024 235.278 104.258 235.531 105.469C235.814 106.823 236.135 107.85 235.859 109.268C235.597 110.609 235.066 111.88 234.694 113.195C234.046 115.494 234.043 118.131 234.35 120.497C234.374 120.691 234.438 120.925 234.629 120.97C234.844 121.02 235.008 120.783 235.101 120.582C235.746 119.182 236.4 117.714 236.728 116.212C236.912 117.854 237.243 119.618 236.896 121.234C236.572 122.742 236.016 124.247 236.177 125.781C236.337 127.315 237.553 128.899 239.087 128.764C239.918 128.69 240.644 128.124 241.102 127.426C241.56 126.728 241.788 125.906 241.978 125.093C241.991 125.037 242.003 124.981 242.016 124.924C242.657 122.121 242.924 119.226 242.751 116.354C242.581 113.517 241.653 110.862 241.62 108.031C241.531 100.723 241.43 93.414 241.343 86.1055C241.302 82.605 241.318 79.2265 240.714 75.7729C240.105 72.2947 239.292 68.8519 238.278 65.4701C236.969 61.1089 236.451 56.2851 235.071 51.9462C234.303 49.5306 233.383 47.1406 232.003 45.016C230.623 42.8915 228.748 41.034 226.439 39.9977C223.172 38.5311 219.422 38.8304 215.856 39.1577C213.928 39.3349 211.628 37.7421 210.716 36.0331C207.086 37.7817 202.354 36.8385 199.67 33.831C201.117 34.6118 202.607 35.3405 204.2 35.7495C205.793 36.1576 207.551 36.1551 209.01 35.3966C210.642 34.5483 211.704 32.8549 212.206 31.0832C212.709 29.3115 212.721 27.4434 212.73 25.6016C213.441 25.9256 214.649 25.6543 215.176 25.0772C215.704 24.5001 215.931 23.7062 216.021 22.9288C216.123 22.0607 216.058 21.1299 215.583 20.3962C215.108 19.6632 214.133 19.2073 213.326 19.5396C213.421 17.9031 213.208 15.9739 212.884 14.3671C212.56 12.7603 211.767 11.1832 210.417 10.2565C208.655 9.04709 206.341 9.15013 204.21 9.29935C203.256 9.36613 202.225 9.46507 201.516 10.1073C200.969 10.602 200.707 11.3448 200.197 11.8782C199.438 12.6737 198.271 12.8815 197.193 13.0991C196.461 13.2475 195.659 13.4693 195.26 14.1017C194.948 14.5938 194.962 15.2179 194.992 15.7991C195.089 17.6648 195.26 19.5272 195.504 21.3789C195.06 20.317 194.503 19.5346 194.483 18.3837C194.463 17.2328 194.973 15.9954 196.007 15.4916C197.331 14.8453 199.127 15.5296 200.262 14.5889C200.95 14.0184 201.132 13.0398 201.67 12.325C202.532 11.1782 204.113 10.9119 205.536 10.733C206.734 10.583 208.059 10.4618 209.046 11.1593C209.944 11.7949 210.309 12.9409 210.521 14.0225C210.731 15.1033 210.862 16.246 211.481 17.157C211.638 17.3895 211.878 17.6228 212.155 17.5791C212.537 17.5197 212.641 17.0251 212.654 16.6376C212.737 14.2863 212.817 11.9004 212.263 9.61429C211.708 7.32815 210.428 5.11456 208.379 3.96449C206.338 2.81853 203.664 2.91252 201.708 4.19862C200.882 4.74192 200.173 5.47896 199.262 5.86067C198.448 6.20116 197.542 6.22919 196.687 6.44602C194.978 6.87884 193.549 8.04458 192.312 9.30431C191.639 9.99023 190.978 10.7627 190.792 11.7067C190.553 12.9087 191.126 14.1066 191.681 15.1973C192.563 16.9278 193.445 18.6591 194.326 20.3896C194.607 20.9403 194.87 21.2659 195.191 21.7952C194.696 20.9782 193.1 21.5751 192.605 22.0236C191.72 22.8241 191.954 24.2421 192.234 25.3056C192.475 26.2207 192.991 27.093 193.792 27.595C194.592 28.0971 195.696 28.159 196.462 27.6074C196.24 27.7674 197.686 31.1129 197.809 31.5342C198.881 35.1897 197.155 37.9845 194.618 40.4405C196.687 42.0407 198.742 43.8585 201.212 44.7151C203.682 45.5717 206.5 45.7011 208.85 44.5535C211.111 43.4496 212.723 41.2987 214.969 40.1651C214.552 42.9137 212.55 45.3631 209.943 46.3145C207.586 47.1744 204.975 46.8463 202.515 46.3541C200.627 45.9765 198.739 45.5016 197.017 44.6401C195.294 43.7786 193.733 42.5007 192.806 40.8098C188.324 41.0827 183.644 43.8354 181.375 47.7177C179.068 51.6667 178.867 56.4583 178.726 61.0322C178.65 63.5244 178.572 66.0175 178.496 68.5097C178.455 69.8371 178.426 71.2238 178.999 72.4208C179.656 73.7951 181.032 74.716 182.485 75.1686C183.044 75.3426 185.999 76.1967 186.208 75.3541C186.513 74.1183 183.012 73.5297 182.294 73.5107C180.514 73.4637 178.727 74.1851 177.477 75.4555C177.336 77.2396 177.117 78.9585 177.058 80.7665C176.991 82.802 176.924 84.8367 176.857 86.8722C176.609 94.3968 176.212 101.809 176.547 109.336C176.663 111.947 176.622 114.572 176.265 117.164C175.988 119.175 175.521 121.185 175.663 123.21C175.786 124.982 176.372 126.69 177.07 128.324C177.485 129.293 178.05 130.343 179.059 130.643C179.933 130.902 180.913 130.473 181.478 129.756C182.043 129.039 182.243 128.091 182.233 127.178C182.222 126.266 182.019 125.367 181.855 124.469C181.546 122.772 181.138 119.598 182.682 118.349C183.022 119.883 183.18 121.234 184.113 122.575C184.204 122.705 184.327 122.847 184.485 122.836C184.73 122.82 184.79 122.489 184.779 122.244C184.682 119.947 184.898 117.27 184.319 115.045C183.694 112.635 183.595 110.727 183.969 108.227C185.497 98.0135 187.027 87.8005 188.556 77.5875C188.884 75.3945 188.417 75.2626 188.789 73.0762C189.371 69.6557 189.953 66.236 190.536 62.8154C190.215 64.6992 190.515 66.9038 190.485 68.8214C190.452 70.8981 190.403 72.974 190.337 75.0499C190.204 79.1844 190.001 83.3173 189.715 87.4444C189.43 91.5681 189.063 95.6862 188.603 99.7943C188.373 101.855 188.119 103.912 187.842 105.967C187.543 108.177 186.214 112.988 189.692 113.369C191.445 113.562 193.452 113.038 195.199 112.861C197.287 112.648 199.378 112.448 201.47 112.27C209.816 111.558 218.215 111.19 226.582 111.762C226.749 111.773 226.917 111.785 227.084 111.797C228.784 111.921 230.73 112.232 231.615 113.691C232.369 114.932 231.968 116.296 232.034 117.645C232.142 119.877 232.809 122.177 233.086 124.431C233.434 127.255 233.747 130.084 234.026 132.916C234.384 136.556 234.685 140.202 234.928 143.852C235.182 147.649 235.096 151.335 235.751 155.092C236.191 157.611 235.377 160.086 235.907 162.61C238.052 172.807 238.907 180.319 239.382 190.729C239.439 191.983 239.475 193.299 238.917 194.423C237.923 196.426 235.466 197.12 233.285 197.607C232.002 197.893 230.406 198.074 229.61 197.026C229.203 196.49 229.143 195.776 229.087 195.105C228.136 183.582 224.32 172.576 220.592 161.718C218.745 156.338 216.899 150.953 215.392 145.466C214.644 142.743 213.98 139.996 213.445 137.222C213.185 135.865 212.952 134.503 212.76 133.135C212.688 132.624 212.582 132.109 212.659 131.592C212.717 131.208 212.993 130.781 213.325 130.606C213.908 131.46 214.238 133.019 214.65 134.041C215.219 135.451 215.765 136.869 216.292 138.295C217.344 141.146 218.312 144.027 219.202 146.933C220.985 152.753 222.454 158.667 223.658 164.633C226.075 176.607 227.429 188.778 228.124 200.968C228.138 201.211 228.151 201.455 228.165 201.698C228.332 204.746 228.255 206.093 228.233 209.146C228.229 209.765 228.253 210.458 228.695 210.892C229.023 211.213 229.502 211.31 229.955 211.386C235.827 212.383 241.857 212.438 247.746 211.549C248.338 211.459 249.063 211.231 249.143 210.636C249.209 210.147 248.776 209.747 248.375 209.46C246.691 208.249 244.815 207.305 242.841 206.673C241.667 206.297 240.449 206.028 239.341 205.487C238.232 204.946 237.212 204.078 236.828 202.904C236.428 201.677 236.778 200.346 237.129 199.103C237.238 198.716 237.398 198.273 237.779 198.146C238.363 197.951 238.832 198.634 239.088 199.195C239.567 200.241 239.673 201.425 240.226 202.482C240.765 203.515 241.479 204.457 242.329 205.253C242.722 205.622 243.156 205.892 243.582 206.205C244.026 206.53 244.386 207.004 244.79 207.385C245.642 208.188 246.574 208.911 247.585 209.505C251.195 211.628 255.382 211.947 259.453 212.207C264.05 212.499 268.648 212.792 273.247 213.085C274.119 213.14 275 213.195 275.859 213.042C276.718 212.888 277.568 212.503 278.113 211.821C278.972 210.747 278.906 209.23 278.835 207.857C278.626 203.779 278.752 199.684 279.211 195.627C279.345 194.444 279.463 193.104 278.688 192.201C278.122 196.658 277.754 201.139 277.583 205.629C277.529 207.067 277.476 208.572 276.764 209.821C276.02 211.123 274.612 211.972 273.134 212.218C271.656 212.465 270.123 212.155 268.757 211.54C268.402 211.38 268.034 211.178 267.862 210.827C267.686 210.468 267.762 210.042 267.84 209.649C269.118 203.281 270.414 196.852 273.047 190.914C274.994 191.072 277.285 191.06 279.232 191.218C280.048 191.285 280.919 191.34 281.636 190.945C282.459 190.491 282.877 189.561 283.235 188.692C286.534 180.699 289.399 172.527 291.816 164.223C295.212 152.555 299.134 141.89 302.267 130.148C302.508 129.244 302.74 128.332 302.841 127.4C302.894 126.913 303.143 125.347 302.527 125.127C302.271 125.036 302.109 125.182 301.965 125.359C301.277 126.199 300.829 127.428 300.407 128.419C299.957 129.479 299.574 130.565 299.23 131.664C298.545 133.856 298.023 136.093 297.471 138.32C295.959 144.417 294.097 150.36 291.432 156.055C290.926 157.137 290.849 158.279 290.479 159.415C289.966 160.993 289.456 162.573 288.958 164.157C287.963 167.323 287.005 170.502 286.085 173.691C285.367 176.177 284.672 178.671 283.999 181.17C283.704 182.268 283.406 183.311 282.979 184.35C282.624 185.212 282.555 186.348 281.8 186.99C281.274 187.437 280.539 187.514 279.851 187.572C278.501 187.686 277.151 187.8 275.801 187.914C274.878 187.992 273.75 187.97 273.284 187.168C273.035 186.738 273.066 186.207 273.106 185.712C274.216 171.859 276.238 157.977 280.836 144.865C284.551 134.273 281.681 123.481 280.92 112.28C280.644 108.217 280.282 104.015 281.639 100.176C282.646 97.326 284.533 94.8873 286.39 92.5031C287.399 91.2079 288.408 89.9119 289.416 88.6167C290.145 87.6801 291.256 86.6364 291.366 85.4089C291.502 83.9002 290.917 82.0163 290.715 80.5101C290.495 78.8637 290.274 77.2173 290.055 75.571C295.674 76.496 301.338 77.3361 307.032 77.2437C312.726 77.1522 318.492 76.0887 323.514 73.3994C324.047 76.4679 323.392 79.9874 323.213 83.1112C323.172 83.835 323.435 86.009 322.804 86.4806C322.14 86.9777 319.677 86.4353 318.847 86.3973C315.897 86.2646 312.947 86.1319 309.997 85.9991C304.161 85.737 298.324 85.474 292.487 85.2118C291.493 85.1673 290.448 85.1327 289.559 85.582C288.767 85.9818 288.205 86.7148 287.676 87.4279C285.684 90.1188 283.787 92.8798 281.991 95.706C280.891 87.5746 279.573 79.2083 279.795 71.0053C280.018 62.8022 281.374 54.5538 284.607 47.0144C285.185 45.6673 285.839 44.3301 286.735 43.1619C287.163 42.6038 287.639 41.546 288.443 41.4924C289.283 41.4372 289.362 42.2773 289.436 42.9286C289.706 45.2658 289.605 47.6814 289.216 49.998C288.734 52.8679 287.771 55.647 287.411 58.535C286.869 62.8921 287.76 67.4166 289.914 71.2411C290.274 71.8817 290.548 72.9105 289.858 73.1645C289.138 73.4299 288.697 72.3755 288.658 71.6088C288.393 66.5105 288.342 61.4015 288.503 56.2991C288.592 53.5035 288.793 50.5562 290.341 48.2288C292.845 54.5555 299.454 59.014 306.248 58.9596C310.656 58.9241 314.813 58.023 318.463 55.5448C322.111 53.0666 324.755 49.0005 325.102 44.5989C325.022 45.4324 324.557 46.1274 323.818 46.5173C322.898 47.0029 321.813 46.42 320.835 46.0655C319.484 45.575 317.974 45.5354 316.599 45.9534C315.508 46.2848 314.358 46.8982 313.297 46.4827C312.615 46.2156 312.145 45.5601 311.925 44.8619C311.704 44.1636 311.697 43.4175 311.697 42.6854C311.699 38.5459 311.884 34.4098 312.069 30.2744C312.189 27.581 312.313 24.2998 311.164 21.8612C310.162 19.7317 308.291 18.0993 307.34 15.9459C306.994 15.1602 306.74 14.2698 306.059 13.7488C305.067 12.9903 303.529 13.3044 302.572 12.5023C302.202 12.1923 301.969 11.7512 301.662 11.3777C300.905 10.4544 299.533 10.6753 299.066 11.7743C298.506 13.0925 298.77 14.8807 298.965 16.246C299.187 17.805 299.514 19.3673 299.414 20.9394C299.308 22.6287 298.455 24.2256 298.264 25.9404C298.087 27.5316 297.916 29.8927 298.725 31.3421C299.422 32.5886 300.102 34.1822 301.514 34.7651C303.21 35.4659 304.93 35.7503 306.66 34.972C308.092 34.3273 309.249 33.1962 310.264 31.995C310.067 33.9877 308.938 36.0561 307.179 37.0067C305.419 37.9573 303.306 38.1304 301.346 37.7347C300.875 37.6399 300.322 37.5335 299.966 37.8567C299.649 38.1436 299.647 38.6317 299.659 39.0595C299.738 41.8544 299.368 44.6624 298.566 47.3401C298.07 48.9939 296.291 48.8834 294.633 48.4094C293.223 48.0071 292.18 46.749 291.678 45.3697C291.176 43.9904 291.136 42.49 291.152 41.0217C291.207 36.174 291.819 31.352 292.431 26.5431C292.932 22.6015 293.434 18.6591 293.936 14.7175C294.144 13.0794 294.385 11.3588 295.38 10.0422C296.375 8.72555 298.394 8.03139 299.714 9.01988C301.563 6.88049 304.463 4.66443 307.273 4.36763C310.082 4.07084 312.994 4.88125 315.247 6.58782C318.69 9.19465 320.355 13.5534 321.097 17.8132C321.838 22.073 321.826 26.4483 322.758 30.6702C323.511 34.0882 324.869 37.3381 326.219 40.5666C326.724 41.7736 327.279 43.0448 328.346 43.8C329.131 44.3557 330.103 44.5618 331.038 44.7802C331.975 44.9987 332.943 45.2601 333.667 45.894C334.391 46.528 334.787 47.6418 334.318 48.4819C335.951 57.5951 337.533 65.1617 337.485 74.4209C337.437 83.68 335.603 93.128 330.743 101.004C329.278 98.5337 327.57 96.0613 326.105 93.5905C325.913 93.2673 325.718 92.9351 325.647 92.5657C325.523 91.9103 325.805 91.2549 326.061 90.639C327.977 86.0239 328.685 80.9108 328.095 75.9477C327.742 72.9732 327.007 71.4769 327.114 68.4834C327.186 66.4874 327.533 64.5096 327.611 62.5137C327.688 60.5177 327.474 58.4476 326.506 56.7023C326.373 62.0808 325.356 67.4363 323.508 72.4876C322.546 75.1183 321.345 77.745 321.284 80.5456C321.21 83.9966 322.888 87.3248 322.698 90.7709C323.892 93.0529 325.634 94.973 327.186 97.0077C328.733 99.0366 328.875 101.693 329.104 104.203C329.627 109.912 329.032 115.654 328.298 121.315C327.318 128.865 326.152 136.422 324.602 143.878C324.343 145.124 323.799 146.172 323.446 147.369C322.992 148.906 323.205 150.659 323.13 152.245C322.949 156.087 322.474 159.916 321.707 163.684C320.668 168.792 319.1 173.779 318.002 178.875C316.949 183.767 316.326 188.768 314.788 193.53C311.889 193.886 308.116 194.782 306.279 192.506C305.079 191.02 304.99 188.953 304.954 187.042C304.954 179.784 304.682 172.515 304.546 165.259C304.41 157.961 304.273 150.664 304.136 143.366C304.092 140.994 304.047 138.622 304.003 136.251C303.981 135.047 303.958 133.843 303.936 132.639C303.922 131.935 303.81 131.195 303.938 130.496C304.003 130.143 304.024 129.939 304.407 130.079C304.862 130.245 304.853 130.939 304.954 131.328C305.84 134.74 306.492 138.161 306.908 141.664C307.062 142.955 307.193 144.249 307.312 145.544C308.991 163.739 308.449 182.138 305.701 200.202C304.911 205.399 303.029 208.037 299.852 212.22C299.425 212.782 298.952 213.466 299.176 214.136C299.459 214.98 300.575 215.115 301.463 215.1C304.564 215.044 307.665 214.989 310.767 214.934C311.42 214.922 312.133 214.888 312.62 214.453C313.109 214.017 313.224 213.307 313.304 212.656C313.758 208.938 314.02 205.197 314.088 201.451C314.121 199.642 314.068 197.697 313.004 196.234C312.506 199.995 312.009 203.756 311.511 207.517C311.274 209.306 310.899 211.324 309.384 212.301C308.269 213.019 306.844 212.955 305.52 212.891C303.902 212.812 302.283 212.769 300.663 212.761C300.257 212.76 299.84 212.761 299.459 212.902C299.077 213.042 298.73 213.349 298.659 213.75C298.584 214.175 298.839 214.608 299.193 214.855C299.547 215.103 299.984 215.198 300.411 215.259C302.569 215.572 304.758 215.175 306.921 214.891C312.005 214.223 317.17 214.179 322.263 214.762C338.559 216.623 351.416 214.469 367.817 214.471C368.576 214.471 369.592 214.236 369.602 213.475C369.607 213.118 369.356 212.81 369.091 212.57C367.078 210.735 363.877 210.939 361.639 209.388C360.472 208.579 359.664 207.357 358.619 206.396C356.111 204.086 352.172 203.492 349.096 204.958C347.484 205.727 344.844 208.047 344.606 209.913C344.41 211.45 345.987 211.524 347 210.904C348.772 209.819 350.364 208.098 351.958 206.76C353.362 205.582 354.795 204.37 355.707 202.778C357.071 200.396 357.089 197.502 357.071 194.757C357.071 187.306 356.038 179.206 357.233 171.857C358.025 166.991 358.362 162.052 358.266 157.123C358.175 152.447 357.252 147.992 357.386 143.347C357.68 133.097 357.936 122.84 357.612 112.587C360.275 110.879 362.969 109.366 366.049 108.648C369.251 107.901 372.59 107.72 375.699 106.648C376.789 106.272 377.917 105.78 379.051 105.989C380.18 106.197 381.063 107.054 381.871 107.871C382.72 108.729 383.632 109.757 383.511 110.959C383.238 113.673 382.553 116.231 381.93 118.871C381.671 119.966 381.368 121.05 381.165 122.168C380.952 123.342 380.713 124.553 380.015 125.547C379.648 126.07 379.17 126.507 378.821 127.042C378.453 127.601 378.091 128.457 378.105 129.141C378.122 129.866 378.308 130.499 378.218 131.257C378.002 133.073 377.26 134.776 376.585 136.458C375.905 138.155 375.278 139.874 374.71 141.612C374.256 143 374.311 144.156 374.091 145.54C373.525 149.105 372.354 152.637 371.666 156.193C370.28 163.353 369.365 170.605 368.933 177.886C368.795 180.216 368.706 182.549 368.667 184.882C368.597 189.008 367.803 193.053 367.137 197.111C366.813 199.089 366.528 201.077 366.407 203.079C366.345 204.098 366.325 205.121 366.358 206.141C366.379 206.807 366.181 208.564 367.313 207.756C367.929 207.317 367.994 205.976 368.148 205.287C368.386 204.225 368.587 203.154 368.778 202.083C370.732 191.145 371.731 180.037 371.762 168.925C371.777 163.353 373.682 160.645 374.501 155.134C375.554 148.046 375.497 140.838 375.296 133.698C375.209 130.643 377.089 127.021 378.04 124.093C379.188 120.558 380.335 117.022 381.483 113.486C381.932 112.103 382.321 110.405 381.333 109.339C380.56 108.504 379.279 108.455 378.143 108.498C372.866 108.698 367.616 109.64 362.597 111.288C361.223 111.739 359.491 112.161 358.515 111.092C357.975 110.502 357.879 109.641 357.813 108.843C357.06 99.7877 356.661 90.7033 356.619 81.6165C356.614 80.5134 356.688 80.6247 356.832 79.5307C356.975 78.4367 357.384 77.3443 358.168 76.5702C358.979 75.7705 360.1 75.3863 361.179 75.026C363.749 74.1694 366.344 73.3071 369.039 73.0424C371.734 72.7778 374.575 73.1579 376.851 74.6278C377.308 74.923 377.784 75.5042 377.461 75.942C377.354 76.0862 377.184 76.1662 377.02 76.2404C374.051 77.5817 371.076 78.9256 367.985 79.952C366.002 80.6099 363.953 81.1391 361.864 81.1903C360.24 81.2298 358.573 80.9701 357.092 80.2809C355.978 79.7632 354.476 79.0641 354.037 77.8233C353.725 76.9387 354.01 75.9106 353.625 75.0549C353.042 73.7572 351.424 73.2147 350.694 72.0243C349.815 70.5914 350.465 68.5303 351.353 67.278C352.428 65.7619 354.1 64.7471 355.866 64.1749C357.632 63.6028 359.503 63.4379 361.358 63.3488C366.138 63.1196 370.923 63.24 375.648 63.9737C380.616 64.7446 385.585 65.5162 390.554 66.2871C391.175 66.3835 391.853 66.4701 392.396 66.1535C393.179 65.6976 393.321 64.6456 393.378 63.7404C393.713 58.4179 394.049 53.074 393.637 47.7564C392.712 50.8109 392.332 54.0303 392.522 57.2159C392.576 58.1351 392.664 59.1179 392.212 59.9184C391.77 60.6991 390.912 61.1295 390.103 61.5153C386.127 63.4123 382.097 65.3275 377.774 66.1733C375.516 66.6152 373.212 66.7578 370.916 66.8996C370.044 66.9532 369.13 66.9994 368.341 66.6268C366.875 65.9351 366.387 64.1172 366.14 62.5129C365.795 60.2688 365.596 58.0016 365.545 55.7311C365.513 54.2884 365.407 52.5867 364.189 51.8159C364.015 54.0287 363.841 56.2414 363.667 58.455C363.601 59.2968 363.504 60.2102 362.921 60.8195C362.204 61.5672 361.041 61.5796 360.008 61.634C357.517 61.7643 355.057 62.4403 352.848 63.6003C352.247 56.6289 352.435 49.5891 353.407 42.6598C353.78 39.9994 356.997 39.0876 359.483 38.0801C361.969 37.0727 364.634 36.5813 367.297 36.2631C368.261 36.1477 369.342 35.9927 369.925 35.2152C370.379 34.6101 370.397 33.7931 370.395 33.0354C370.39 30.3585 370.384 27.6816 370.379 25.0047C370.378 24.0739 370.208 23.1588 370.815 22.4539C371.215 21.9881 371.842 21.7886 372.446 21.679C373.398 21.5058 374.381 21.5034 375.334 21.6707C376.375 21.8537 377.384 22.2379 378.439 22.2758C380.555 22.3525 382.443 21.054 384.158 19.8116C384.541 21.9543 384.53 24.224 383.706 26.2372C382.883 28.2513 381.146 29.9661 379.012 30.3758C376.753 30.8095 374.4 29.727 372.819 28.0534C371.239 26.3798 370.321 24.1893 369.637 21.9898C368.645 21.8175 367.679 21.3335 367.076 20.5264C366.472 19.7193 366.291 18.5684 366.761 17.6764C367.231 16.7843 368.401 16.2823 369.322 16.6895C369.409 14.2072 369.615 11.2772 369.702 8.7948C369.29 10.6432 368.878 12.4924 368.467 14.3407C368.389 14.6919 368.266 15.0959 367.929 15.2204C367.651 15.3226 367.348 15.1849 367.083 15.0497C366.293 14.6449 365.426 14.1495 365.19 13.2929C365.033 12.724 365.197 12.1214 365.36 11.555C365.847 9.86656 366.334 8.17731 366.821 6.48888C367.124 5.43939 367.442 4.35857 368.133 3.51353C368.823 2.66849 369.99 2.11365 371.022 2.46733C371.895 1.15236 373.85 0.682441 375.42 0.542288C377.259 0.378227 379.099 0.21499 380.939 0.0509286C381.504 0.000638515 382.084 -0.0488255 382.633 0.0938004C383.651 0.356793 384.385 1.21667 385.05 2.03038C386.249 3.49704 387.48 5.0214 387.981 6.84916C388.332 8.1262 388.303 9.47331 388.271 10.7973C388.238 12.1791 388.205 13.5616 388.172 14.9434C387.188 13.818 386.03 12.245 385.454 10.8641C384.879 9.48321 384.12 8.0759 382.821 7.33639C381.122 6.36851 378.995 6.79969 377.119 7.35206C375.244 7.90443 373.238 8.55243 371.38 7.94318C373.385 8.57964 375.39 9.17982 377.486 9.01988C378.99 8.90446 380.601 8.60189 381.936 9.30513C383.214 9.97786 383.899 11.4181 384.224 12.8271C384.549 14.236 384.603 15.706 385.051 17.0803C385.296 16.7126 386.18 16.3515 386.618 16.2996C387.056 16.2476 387.501 16.349 387.909 16.5164C388.408 16.7217 388.877 17.0416 389.159 17.5016C389.695 18.3796 389.398 19.5956 388.669 20.3211C387.941 21.0466 386.882 21.35 385.857 21.4094C385.924 24.0978 385.889 27.107 385.956 29.7955C385.976 30.6158 386.002 31.4624 386.338 32.211C386.831 33.3083 388.012 34.0569 389.213 34.0347C389.217 35.5401 388.143 37.0438 386.838 37.7883C385.532 38.5327 384.003 38.7677 382.507 38.9062C380.603 39.0826 378.672 39.1238 376.794 38.7702C374.916 38.4165 373.084 37.6465 371.672 36.3554C371.569 36.8995 371.258 37.6506 371.595 38.0908C371.931 38.5303 372.392 38.8576 372.864 39.1469C374.669 40.2541 376.753 40.9021 378.867 41.0143C379.012 44.1792 379.157 47.3442 379.303 50.51C379.999 49.0714 380.703 47.6097 380.986 46.0359C381.269 44.462 381.082 42.734 380.127 41.4529C381.689 41.1528 383.251 40.8527 384.813 40.5526C386.079 40.3094 387.39 40.0472 388.432 39.2871C389.866 38.2409 390.526 36.4585 391.112 34.7808C393.048 35.658 395.749 36.2301 397.834 36.6448C399.918 37.0595 402.076 37.7973 403.417 39.4487C404.506 40.7908 404.907 42.5518 405.228 44.2518C406.369 50.3006 406.908 56.4632 406.834 62.6184C404.268 61.4856 401.223 60.2193 398.543 59.3916C397.324 59.0148 395.75 58.7774 394.993 59.8063C398.452 61.2779 401.911 62.7486 405.37 64.2202C405.874 64.4346 406.422 64.691 406.643 65.1931C406.853 65.6729 406.697 66.2269 406.539 66.7265C405.815 69.0126 405.092 71.298 404.369 73.5841C403.733 75.5916 402.845 77.867 400.848 78.5257C399.555 78.9519 399.178 79.4318 397.818 79.3782C396.458 79.3246 395.126 78.9882 393.806 78.6543C389.055 77.4507 384.305 76.247 379.554 75.0433C383.916 78.2652 389.369 79.5455 394.661 80.722C395.448 80.8968 396.284 81.0979 396.84 81.6824C397.483 82.3576 397.589 83.3676 397.662 84.2984C398.267 92.1073 398.874 99.9163 399.479 107.724C399.509 108.108 399.457 108.733 399.432 109.117C394.758 108.71 390.084 108.302 385.41 107.894C384.965 107.856 384.346 107.964 384.344 108.411C384.343 108.732 384.691 108.925 384.989 109.043C389.369 110.776 394.04 111.772 398.745 111.977C399.414 112.006 400.132 112.035 400.666 112.439C401.483 113.057 401.523 114.248 401.487 115.271C401.364 118.908 401.241 122.544 401.117 126.18C400.748 137.066 401.795 144.699 402.745 155.549C402.929 157.644 403.194 159.734 402.955 161.811C402.686 164.14 402.695 166.546 402.669 168.888C402.6 175.177 403.519 181.414 403.118 187.679C402.955 190.23 402.745 192.778 402.491 195.322C402.363 196.593 402.241 197.867 402.073 199.134C401.948 200.089 402.057 201.098 401.785 202.018C401.599 202.641 401.363 203.291 401.511 203.924C401.66 204.558 402.398 205.094 402.959 204.768C404.649 205.76 406.131 207.103 407.285 208.69C407.8 209.398 408.258 210.172 408.441 211.029C408.623 211.887 408.498 212.843 407.948 213.524C407.293 214.334 406.191 214.611 405.16 214.751C401.722 215.217 398.236 214.696 394.806 214.176C393.599 213.993 392.181 213.648 391.75 212.503C391.467 211.75 391.734 210.916 391.967 210.146C392.41 208.691 392.952 206.989 392.719 205.455C392.513 204.098 392.336 202.928 392.344 201.529C392.366 197.814 392.116 194.101 391.743 190.405C391.243 185.461 391.147 180.498 391.284 175.533C391.33 173.875 390.811 172.355 390.584 170.7C390.349 168.989 390.255 167.26 390.3 165.534C390.335 164.195 390.436 163.019 390.244 161.702C390.043 160.323 389.842 158.944 389.619 157.567C389.117 154.474 388.767 151.551 387.889 148.553C386.933 145.292 386.089 141.998 385.357 138.68C384.85 136.38 384.613 133.949 383.99 131.684C383.759 130.844 383.263 130.083 382.831 129.314C382.571 128.85 381.648 127.419 381.182 128.517C380.931 129.107 381.607 130.603 381.731 131.223C382.02 132.685 381.926 134.311 382.075 135.8C382.319 138.222 383.018 140.652 383.164 143.053C383.314 145.521 383.848 147.691 384.841 149.966C385.875 152.335 387.126 154.627 387.811 157.118C388.465 159.493 388.586 161.977 388.704 164.438C388.866 167.86 389.03 171.282 389.193 174.703C389.324 177.453 390.016 180.004 390.077 182.732C390.229 189.575 390.382 196.419 390.535 203.262C390.577 205.178 390.62 207.095 390.663 209.011C392.202 208.527 393.452 207.425 394.745 206.459C396.038 205.493 397.531 204.61 399.143 204.689C400.753 204.768 402.372 206.216 402.062 207.802C403.123 206.939 404.751 207.925 405.363 209.149C405.974 210.372 406.099 211.838 406.932 212.922C408.132 214.485 410.345 214.739 412.31 214.866C414.346 214.998 416.422 214.665 418.49 214.75C420.703 214.841 422.906 215.078 425.107 215.311C429.533 215.778 434.033 216.256 438.456 215.499C445.408 214.308 451.386 214.914 458.432 214.611C459.819 214.552 460.417 213.635 460.484 212.308C460.614 209.707 460.743 207.106 460.873 204.504C460.968 202.586 461.055 200.603 460.376 198.806C459.889 197.518 459.024 196.378 458.696 195.04C458.327 193.536 458.675 191.954 458.555 190.41C458.435 188.86 457.849 187.391 457.408 185.899C456.218 181.878 455.956 177.488 455.398 173.335C455.228 172.074 455.124 170.893 455.12 169.633C455.116 168.371 454.633 167.121 454.538 165.853C454.208 161.414 454.31 156.955 454.411 152.506C454.502 148.499 454.599 144.449 455.612 140.571C456.876 135.726 459.542 131.265 460.217 126.303C462.01 133.461 462.715 140.894 462.297 148.262C461.971 154.024 460.965 159.781 461.43 165.533C461.853 170.767 463.487 176.018 462.519 181.178C460.712 190.811 460.147 198.233 458.8 207.941C457.644 208.648 455.675 208.767 454.357 208.463C453.038 208.158 451.782 207.61 450.455 207.347C448.079 206.875 445.525 207.374 443.501 208.705C442.644 209.268 441.886 209.978 441.258 210.789C440.715 211.489 439.923 212.535 439.895 213.461C439.891 213.597 439.95 213.743 440.073 213.802C440.322 213.922 442.611 211.478 443.009 211.164C444.104 210.298 445.318 209.568 446.658 209.156C447.455 208.911 448.356 208.738 448.862 208.075C449.507 207.232 449.202 206.032 448.899 205.014C446.779 197.909 446.124 190.462 445.479 183.074C444.835 175.689 441.805 169.879 440.401 162.601C438.486 152.679 439.407 142.454 440.335 132.391C440.723 128.178 441.167 124.6 441.223 120.37C441.248 118.543 441.21 116.608 442.136 115.035C442.93 113.688 444.342 112.801 445.817 112.284C448.235 111.434 450.948 111.496 453.345 112.389C454.001 112.634 455.398 113.399 455.733 112.326C456.094 111.166 454.505 110.397 453.724 109.95C450.757 108.25 448.002 106.174 445.548 103.789C445.248 95.5823 445.092 87.5268 446.556 79.4466C447.05 76.721 447.743 74.0268 448.024 71.2707C448.584 65.766 447.481 60.2317 446.114 54.8704C447.634 58.8804 447.207 63.9721 446.848 68.2459C446.489 72.5197 445.586 76.7276 444.954 80.9693C444.058 86.9761 443.703 93.0505 443.518 99.1216C443.451 101.338 443.507 103.825 445.078 105.388C443.203 107.635 441.942 110.39 441.466 113.279C439.619 110.868 437.819 107.894 436.969 104.977C436.376 102.94 436.141 100.818 435.947 98.7052C434.705 85.2143 434.981 71.5832 436.769 58.1541C437.257 54.492 437.412 52.0599 438.295 48.4729C439.177 44.8858 440.733 41.3902 443.286 38.724C446.924 34.9242 452.211 33.1665 457.402 32.3504C458.433 34.0882 458.967 36.2012 459.889 38.0323C460.892 40.0225 462.047 41.936 463.342 43.7497C463.668 44.2064 464.035 44.6813 464.565 44.8635C465.374 45.1413 466.373 44.0119 466.973 43.5642C467.923 42.8544 468.845 42.1066 469.735 41.3242C471.483 39.7875 473.113 38.1148 474.602 36.3257C475.157 35.6596 475.72 34.8954 475.688 34.0289C475.659 33.263 475.17 32.6026 474.901 31.8854C474.345 30.4006 474.75 28.7468 475.161 27.215C475.449 27.5497 475.481 28.0485 475.351 28.4706C475.22 28.8927 474.951 29.2555 474.679 29.6042C473.746 30.8004 472.714 31.9497 471.44 32.7708C470.165 33.5928 468.613 34.0643 467.118 33.8104C465.582 33.5491 464.247 32.5466 463.285 31.319C462.322 30.0914 461.687 28.6429 461.093 27.2002C460.412 29.0238 459.513 30.3165 458.566 32.0173C458.503 28.5588 460.584 25.2149 459.996 21.8067C459.293 21.585 458.685 20.5751 458.55 19.8487C458.415 19.1224 458.545 18.3755 458.681 17.6492C458.784 17.1009 458.897 16.5354 459.212 16.0753C459.527 15.6153 460.1 15.2847 460.639 15.4249C460.261 14.7587 459.82 13.7373 459.442 13.0711C459.324 12.8625 459.204 12.6078 459.314 12.3951C459.455 12.123 459.859 12.1395 460.129 12.283C460.399 12.4264 460.634 12.6573 460.937 12.7034C461.283 12.7562 461.619 12.5476 461.864 12.2953C462.108 12.043 462.3 11.7397 462.571 11.5162C463.047 11.1255 463.71 11.0348 464.32 11.1115C464.931 11.1881 465.511 11.4132 466.099 11.5921C468.385 12.2871 470.814 12.2953 473.202 12.297C474.335 12.2978 475.493 12.2945 476.56 11.9161C477.628 11.5369 478.604 10.7025 478.835 9.59203C478.86 9.47167 478.869 9.32904 478.781 9.24413C478.631 9.09903 478.391 9.25896 478.241 9.40488C477.139 10.4733 475.613 11.015 474.09 11.1931C472.567 11.3711 471.027 11.2162 469.502 11.0612C468.282 10.9367 467.033 10.8048 465.927 10.273C465.288 9.96631 464.664 9.51948 463.956 9.54833C463.248 9.57719 462.661 10.0735 462.081 10.4816C461.501 10.8889 460.749 11.2351 460.105 10.9391C459.926 8.02068 461.367 5.07746 463.67 3.28103C465.974 1.48461 468.904 0.64452 471.814 0.410383C473.997 0.233955 476.316 0.41203 478.155 1.60415C480.171 2.91005 481.301 5.23492 481.921 7.55816C482.529 9.8377 482.734 12.2657 482.183 14.56C481.631 16.8544 480.266 19.0037 478.243 20.2115C479.072 17.9237 478.704 15.2517 478.06 12.9054C477.693 15.6013 477.361 18.3021 477.061 21.0062C477.116 20.9403 477.172 20.8743 477.228 20.8092C477.682 20.2692 478.176 20.0491 478.832 19.7894C479.068 19.6962 479.316 19.6179 479.57 19.6261C479.823 19.6344 480.085 19.7407 480.227 19.951C480.417 20.2304 480.355 20.6031 480.286 20.9337C480.113 21.7573 479.934 22.6007 479.49 23.3154C479.046 24.0302 478.279 24.604 477.439 24.5768C477.005 24.5628 476.588 24.3938 476.154 24.3872C476.865 26.6552 475.889 29.3511 476.177 31.7106C476.557 34.8187 480.291 34.9325 482.73 36.0026C485.359 37.1559 487.885 38.6852 489.691 40.9656C492.052 43.9467 492.908 47.8084 493.879 51.4886C496.195 60.2754 499.551 69.0118 499.262 78.0954C499.055 84.5688 496.98 90.8732 494.08 96.6623C491.181 102.451 487.466 107.786 483.765 113.097C481.738 111.028 479.885 108.3 479.357 105.449C478.474 100.667 483.218 96.7019 485.23 92.2755C487.242 87.8492 488.722 82.9537 487.916 78.158C487.394 75.045 485.944 72.1809 484.755 69.2575C482.613 63.9919 481.28 58.3973 480.816 52.731C483.016 56.4426 482.783 61.0355 483.218 65.3307C483.469 67.809 483.964 70.2732 483.918 72.7638C483.87 75.3879 483.222 77.9618 482.952 80.5719C482.474 85.2019 483.19 89.8789 482.932 94.5262C482.675 99.1735 481.193 104.119 477.434 106.855C475.139 108.525 472.72 107.937 469.89 108.131C465.984 108.398 462.073 108.592 458.159 108.71C457.792 108.722 457.396 108.724 457.094 108.514C456.792 108.304 456.679 107.795 456.976 107.578C457.127 107.466 457.33 107.465 457.517 107.467C463.234 107.549 468.95 107.63 474.667 107.711C474.507 107.709 473.834 108.577 473.68 108.717C473.347 109.02 473.026 109.227 472.65 109.451C471.816 109.946 470.98 110.414 470.111 110.852C469.376 111.224 466.15 112.916 467.006 114.139C467.712 115.149 470.169 113.988 471.008 113.764C471.65 113.593 472.316 113.359 472.966 113.233C473.605 113.109 473.743 113.27 474.13 113.772C475.581 115.655 478.074 116.682 480.385 115.763C481.176 115.448 482.272 115.027 482.71 115.759C482.884 116.049 482.85 116.412 482.811 116.749C481.84 125.084 480.853 133.418 479.751 141.737C478.981 147.548 477.932 153.317 477.015 159.105C476.788 160.538 476.438 162.022 476.358 163.47C476.302 164.48 476.475 165.509 476.461 166.534C476.419 169.459 476.938 172.353 477.112 175.266C477.417 180.334 476.689 185.396 475.666 190.349C474.632 195.365 473.888 200.453 473.028 205.503C472.859 206.494 472.582 207.634 471.67 208.053C470.956 208.382 470.126 208.13 469.36 207.953C467.362 207.489 465.239 207.578 463.287 208.207C466.301 209.195 469.057 209.731 472.227 209.626C472.266 210.676 472.24 211.728 472.152 212.775C472.106 213.301 472.032 213.858 471.695 214.264C471.23 214.823 470.423 214.92 469.698 214.962C467.773 215.074 465.843 215.086 463.917 214.995C462.882 214.946 461.771 214.839 460.983 214.166C461.269 213.409 462.25 213.248 463.057 213.219C469.395 212.993 475.765 213.652 481.924 215.17C490.182 217.204 498.052 214.123 506.552 214.334C511.396 214.454 516.319 214.802 521.02 213.627C521.54 214.18 521.99 213.85 522.498 213.286C523.006 212.721 523.164 211.933 523.302 211.185C523.841 208.265 524.381 205.346 524.92 202.426C525.093 201.491 525.263 200.508 524.959 199.608C524.53 198.336 523.283 197.558 522.125 196.885C525.867 196.32 529.791 195.771 533.353 197.05C531.472 197.774 529.59 198.499 527.709 199.224C527.239 199.405 526.722 199.629 526.526 200.093C526.272 200.691 526.669 201.341 526.897 201.948C527.514 203.595 526.855 205.459 525.892 206.929C524.929 208.4 523.662 209.674 522.868 211.243C522.522 211.925 522.334 212.892 522.948 213.347C523.395 213.679 524.019 213.536 524.563 213.417C526.587 212.974 528.728 213.076 530.701 213.711C531.664 214.021 532.896 214.388 533.547 213.611C533.881 213.212 533.909 212.645 533.918 212.123C533.989 207.721 533.806 203.314 533.366 198.933C533.318 198.447 533.27 197.935 533.469 197.489C533.616 197.161 533.883 196.904 534.086 196.608C534.718 195.683 534.676 194.473 534.611 193.356C534.371 189.22 534.132 185.084 533.891 180.948C533.657 176.909 533.491 172.865 533.471 168.819C533.46 166.763 533.491 164.707 533.558 162.651C533.611 161.041 533.302 159.574 533.491 157.966C534.458 149.707 535.406 141.439 535.717 133.123C535.945 127.078 535.843 121.012 535.191 114.994C534.267 125.576 533.345 136.158 532.422 146.74C531.232 160.376 530.049 174.196 532.386 187.682C532.599 188.912 532.751 190.405 531.78 191.187C531.311 191.565 530.854 191.571 530.3 191.579C529.55 191.591 528.8 191.711 528.047 191.725C526.508 191.751 524.967 191.612 523.458 191.308C523.111 191.238 522.673 191.194 522.478 191.49C522.348 191.688 522.397 191.95 522.45 192.181C522.675 193.15 522.899 194.119 523.123 195.087C523.198 195.412 523.386 195.82 523.715 195.769C523.96 195.731 524.08 195.453 524.136 195.213C524.358 194.256 524.277 193.257 524.193 192.278C524.073 190.868 523.952 189.458 523.83 188.049C523.729 186.884 523.588 185.781 523.756 184.625C523.933 183.413 523.548 182.031 523.394 180.823C523.212 179.408 523.03 177.994 522.848 176.58C521.572 166.645 521.064 157.852 520.231 147.871C519.846 143.253 519.452 138.586 518.157 134.117C516.658 128.945 514.436 123.673 514.931 118.186C515.158 115.677 515.648 113.154 515.322 110.655C515.076 108.769 514.367 106.942 514.357 105.04C514.35 103.818 514.622 102.535 514.133 101.416C513.569 100.129 512.177 99.4563 510.893 98.8899C510.396 98.6706 509.805 98.4538 509.334 98.7258C508.879 98.9888 508.759 99.5808 508.691 100.103C507.967 105.687 508.004 111.37 508.801 116.944C508.923 117.797 509.163 118.784 509.954 119.125C510.791 119.485 511.725 118.889 512.362 118.236C513.599 116.968 514.479 115.355 514.878 113.627C515.224 112.124 515.302 110.375 516.495 109.399C517.096 108.907 517.88 108.714 518.638 108.542C527.013 106.643 535.587 105.622 544.173 105.503C547.587 105.455 549.315 105.865 552.569 106.904C553.381 107.164 554.326 107.435 555.035 106.96C555.733 106.493 555.852 105.532 555.906 104.693C555.981 103.517 555.968 102.137 555.032 101.423C554.338 100.892 553.378 100.938 552.507 101.007C549.773 101.225 546.977 100.935 544.227 101.011C541.183 101.095 538.143 101.325 535.121 101.7C529.077 102.451 523.104 103.78 517.314 105.672C516.615 104.081 515.729 102.367 515.03 100.776C515.639 100.519 516.263 100.253 516.74 99.7951C517.36 99.2015 517.667 98.3408 517.752 97.4859C517.837 96.6318 517.72 95.7711 517.603 94.9203C516.788 88.9926 518.01 83.1112 519.327 77.3525C520.359 72.8421 521.436 68.3012 521.559 63.6539C521.576 63.0471 521.531 62.4345 521.557 61.8294C521.572 61.4963 521.77 61.0058 521.711 60.69C521.497 59.5441 520.982 61.6983 520.907 62.052C520.395 64.4841 520.036 66.9969 519.643 69.4496C518.804 74.6888 517.964 79.9281 517.124 85.1673C516.914 86.4773 516.704 87.7873 516.495 89.0965C516.314 90.2202 515.975 91.4198 516.081 92.5616C516.282 94.7422 515.761 96.8214 515.14 98.9237C515.069 99.1644 514.989 99.4151 514.808 99.5898C514.546 99.8438 514.126 99.871 513.781 99.7522C513.252 99.57 512.936 99.1793 512.39 99.0408C511.915 98.9204 511.402 98.9064 510.919 98.8231C510.069 98.6772 508.968 98.4958 508.427 97.7373C507.567 96.5312 507.943 94.8642 507.928 93.4957C507.904 91.4634 507.919 89.4312 507.974 87.399C508.084 83.3362 508.351 79.2768 508.774 75.2346C509.309 70.1025 510.096 64.9977 511.131 59.9431C511.653 57.3899 512.238 54.8506 512.886 52.3271C513.504 49.9189 514.013 47.298 514.995 45.0119C515.438 43.9822 515.777 42.8931 516.574 42.0605C516.783 41.8428 517.101 41.6318 517.363 41.7818C517.578 41.9055 517.611 42.1981 517.614 42.4463C517.638 44.3384 517.369 46.2337 516.822 48.0441C516.491 49.1382 516.054 50.2652 516.254 51.3905C516.394 52.1853 516.84 52.8885 517.3 53.5513C518.782 55.6907 520.507 57.6627 522.431 59.4163C522.719 59.6793 523.068 59.9555 523.454 59.8945C523.897 59.8244 524.145 59.352 524.291 58.9274C524.947 57.0147 524.852 54.9512 525.463 53.0385C526.05 51.2042 527.34 49.7532 528.226 48.0714C529.216 46.1908 529.632 44.0696 530.036 41.983C530.612 39.0051 531.187 36.0281 531.763 33.0503C531.96 32.0321 532.31 31.1879 532.549 30.1788C532.682 32.5746 534.212 34.8418 536.382 35.8566C538.552 36.8723 541.269 36.5929 543.188 35.1575C545.117 33.7148 546.122 31.3454 546.727 29.0114C547.441 26.2554 547.718 23.3872 547.543 20.5454C546.892 20.4118 545.949 19.8603 545.346 19.5808C544.743 19.3013 544.19 18.8611 543.904 18.2601C543.538 17.49 543.642 16.5387 543.185 15.8189C542.825 15.2509 542.188 14.936 541.66 14.5196C541.133 14.1033 540.671 13.4306 540.891 12.7949C540.997 14.9203 539.129 16.9789 537.347 18.1389C536.496 18.6929 535.521 19.026 534.636 19.5223C533.751 20.0186 532.914 20.7457 532.655 21.7284C532.277 23.1596 533.216 24.6683 532.942 26.1235C532.631 27.7797 530.902 28.774 530.191 30.3008C529.295 32.225 530.188 34.498 529.92 36.6044C529.689 38.4165 528.614 39.9994 528.043 41.7348C527.601 43.0786 527.463 44.5074 527.033 45.8553C526.592 47.2337 525.857 48.4951 525.126 49.7441C524.281 51.1893 523.436 52.6354 522.59 54.0806C522.41 54.3881 522.213 54.7121 521.896 54.8729C521.327 55.1598 520.631 54.7954 520.217 54.3106C518.954 52.8324 519.298 50.632 519.463 48.6938C519.676 46.1917 519.463 43.6541 518.835 41.2237C517.7 36.8286 522.506 32.7304 524.491 28.6495C525.884 25.7871 526.759 22.6963 527.392 19.575C527.867 17.2345 528.214 14.8461 529.102 12.63C529.99 10.4132 531.509 8.33478 533.686 7.3636C535.864 6.39243 538.748 6.81536 540.154 8.74452C541.536 7.90443 543.751 7.56229 545.358 7.74201C548.156 8.0553 550.5 10.1922 551.756 12.7166C553.013 15.241 553.348 18.1174 553.512 20.9329C553.677 23.7483 553.694 26.6 554.384 29.3354C554.781 30.9109 555.4 32.4336 555.636 34.0412C555.935 36.0792 555.609 38.1832 556.023 40.2014C556.434 42.2006 557.538 43.9723 558.445 45.8001C559.351 47.6278 560.083 49.6806 559.672 51.6799C558.068 49.4721 554.751 48.7952 552.423 50.2165C551.692 50.6625 550.936 51.3114 550.099 51.1316C549.05 50.9066 548.72 49.6031 548.529 48.5446C547.818 44.5931 546.172 40.8139 543.763 37.6044C542.786 39.1527 544.509 41.4858 543.374 42.922C542.784 43.6681 541.679 43.758 540.747 43.5733C539.814 43.3894 538.912 42.9962 537.962 43.0052C535.957 43.0242 534.249 44.8132 532.249 44.6838C532.026 44.6698 531.78 44.6154 531.653 44.4307C531.445 44.1265 531.742 43.6829 532.103 43.612C532.465 43.5411 532.826 43.7143 533.151 43.8882C535.266 45.0177 537.508 46.4406 539.868 46.0144C541.072 45.7968 542.189 45.1009 543.413 45.1232C544.665 45.1455 545.814 45.9526 546.487 47.0103C547.16 48.0681 547.413 49.3443 547.471 50.5974C547.528 51.8283 547.414 53.0913 547.777 54.2686C548.14 55.4459 549.168 56.5456 550.396 56.4756C551.611 56.4063 552.46 55.2933 553.208 54.3312C554.42 52.7722 555.812 51.3526 557.347 50.111C557.739 49.7944 558.217 49.4712 558.705 49.5941C559.256 49.7326 559.512 50.3534 559.682 50.8958C561.118 55.4698 562.221 60.1484 562.979 64.8831C563.572 68.5872 563.827 71.6285 564.138 75.3673C564.952 85.1525 565.766 94.9368 566.58 104.722C566.819 107.596 568.416 110.173 568.877 113.02C569.182 114.901 568.808 116.824 568.311 118.665C567.872 120.29 567.294 121.957 566.09 123.133C564.886 124.309 562.889 124.828 561.489 123.894C560.332 123.121 559.9 121.629 559.756 120.243C559.331 116.146 560.669 111.908 559.577 107.937C559.458 107.504 559.328 106.983 559.629 106.649C559.835 106.421 560.168 106.375 560.471 106.333C561.829 106.147 563.162 105.779 564.423 105.243C564.803 105.081 565.247 104.766 565.137 104.367C565.009 103.902 564.34 103.958 563.879 104.094C562.136 104.61 560.303 104.815 558.49 104.698C554.808 98.1149 554.196 90.1559 553.887 82.6165C553.578 75.0771 553.763 67.433 551.955 60.108C551.606 70.34 551.261 80.6395 552.759 90.7676C553.413 95.1816 554.414 99.5437 554.91 103.979C555.999 113.722 555.181 123.516 554.181 133.208C553.25 142.223 552.323 151.382 553.949 160.297C555.333 167.88 553.808 173.007 553.224 180.693C552.79 186.419 552.348 192.189 550.808 197.721C549.706 196.382 550.759 193.929 549.391 192.864C548.929 192.504 548.311 192.43 547.727 192.38C544.977 192.141 542.209 192.11 539.455 192.288C538.896 192.324 538.364 192.393 538.058 192.886C537.701 193.462 537.684 194.256 537.963 194.865C538.06 195.078 538.258 195.303 538.485 195.244C538.698 195.188 538.77 194.927 538.804 194.708C539.9 187.726 540.636 180.78 540.538 173.693C540.481 169.638 540.201 165.585 539.697 161.56C538.119 148.958 539.91 136.581 537.492 124.113C537.601 140.825 537.711 157.537 537.82 174.248C537.872 182.182 537.926 190.138 538.944 198.006C541.744 197.971 544.5 197.922 547.301 197.887C547.838 197.881 548.453 197.908 548.794 198.324C549.082 198.677 549.064 199.182 549.031 199.637C548.854 202.06 548.677 204.483 548.499 206.906C545.815 207.436 543.096 208.798 541.547 211.058C541.225 211.53 540.934 212.041 540.838 212.604C540.741 213.167 540.867 213.794 541.277 214.193C541.55 209.395 540.807 204.605 540.066 199.857C539.905 204.557 539.567 209.183 539.691 213.885C539.707 214.508 539.78 215.231 540.303 215.569C540.637 215.785 541.063 215.774 541.461 215.755C545.019 215.588 548.578 215.422 552.136 215.255C552.383 215.243 552.642 215.228 552.857 215.106C553.427 214.784 553.386 213.95 553.191 213.325C552.421 210.851 550.526 208.919 548.694 207.089C550.123 206.925 551.495 207.872 552.26 209.091C553.024 210.31 553.303 211.765 553.557 213.182C553.666 213.79 553.823 214.473 554.352 214.792C554.707 215.006 555.147 215.001 555.562 214.987C557.127 214.94 558.692 214.893 560.258 214.846C567.814 214.619 574.027 216.224 581.566 215.65" stroke="#3D3D3D" stroke-opacity="0.58" stroke-width="0.75" stroke-miterlimit="10" stroke-linecap="round" stroke-linejoin="round"/>
</svg>
