<svg width="157" height="488" viewBox="0 0 157 488" fill="none" xmlns="http://www.w3.org/2000/svg">
<path d="M78.9498 324.975C73.9911 324.191 73.7934 324.421 73.6378 328.963C73.0434 346.224 72.0761 363.416 70.1231 380.633C67.7623 401.462 66.9898 422.504 67.3417 443.54C67.5099 453.589 67.6866 463.727 66.586 473.685C65.5402 483.149 63.6574 484.784 55.4476 486.291C49.6701 487.351 43.6936 487.816 37.9709 485.491C33.8239 483.805 32.2706 479.016 35.0072 475.489C44.6862 463.013 46.8971 448.87 44.9512 433.628C42.917 417.688 41.2655 401.703 39.0195 385.785C37.9905 378.491 38.4658 371.045 40.4748 363.964C42.8441 355.613 42.0071 347.28 41.5304 338.902C41.3258 335.303 40.7271 331.726 40.5028 328.128C40.4061 326.58 39.9154 325.771 38.4097 325.315C34.9525 324.269 31.5037 323.132 28.8891 320.429C28.0619 319.574 27.0175 319.808 26.1104 319.93C15.478 321.365 7.97483 315.717 0.953875 308.928C-0.0358994 307.972 -0.403203 307.07 0.572552 305.821C3.54047 302.019 4.46155 297.323 6.04715 292.923C10.4184 280.791 14.3719 268.469 22.5214 257.779C18.5806 256.122 18.6058 253.243 19.2984 249.795C21.5176 238.758 23.8897 227.74 24.9987 216.509C25.0954 215.532 25.2286 214.539 25.5104 213.602C26.6516 209.813 28.0928 206.07 26.2114 201.828C22.5901 202.147 18.5539 201.257 14.5009 200.591C8.14306 199.548 5.54385 196.973 4.55408 190.615C3.72272 185.272 3.83068 179.961 5.32795 174.689C8.23559 164.45 8.61411 153.738 11.0605 143.41C11.3185 142.32 10.9778 141.819 9.93615 141.144C5.18775 138.067 4.66063 132.165 7.80239 127.447C12.1624 120.9 16.1692 114.101 20.033 107.244C25.2917 97.9096 32.8776 91.6583 43.1595 88.6483C44.8292 88.1591 46.1975 85.2332 45.1895 84.0177C41.9903 80.1596 43.2997 76.4794 45.3718 72.7839C45.8498 71.9315 46.4905 71.288 45.8695 70.137C43.0179 64.8475 43.9894 59.5271 46.0713 54.3049C46.8116 52.4501 47.2434 50.929 45.5498 49.3223C44.5811 48.4041 44.3792 46.9573 44.5236 45.6226C45.5554 36.1454 45.5666 26.5645 49.5524 17.5149C54.3597 6.59798 64.849 -0.673905 76.0155 0.0495C78.8993 0.235959 79.5555 0.715422 80.0013 2.95713C59.6324 -0.67531 50.6515 16.0962 48.107 29.904C47.6191 32.5508 46.9588 35.2622 47.3499 38.031C50.9852 38.8904 54.3793 37.6609 57.8323 37.0357C60.0544 36.6333 60.7077 35.0435 61.0946 33.0639C61.8517 29.1862 63.2354 25.6659 67.3725 24.1448C73.8019 21.7811 80.1597 19.3529 80.3434 10.9076C81.8673 11.3408 81.9584 12.1525 82.0776 12.8324C82.9986 18.0715 86.3465 21.1376 91.1818 22.5956C96.9887 24.3466 100.644 27.7506 101.315 34.0173C101.509 35.8286 102.828 36.7539 104.663 37.1184C107.934 37.7675 111.167 38.6157 114.555 38.1656C115.506 26.7173 108.832 6.98773 93.7347 3.20808C89.8429 2.23373 86.0507 2.01223 81.978 3.3595C82.0145 0.444849 83.9828 0.244364 85.7282 0.0999638C92.6048 -0.466423 98.6976 1.6337 104.01 5.94469C111.53 12.046 114.233 20.6693 116.267 29.6446C117.404 34.6594 116.387 39.8424 117.624 44.8515C117.932 46.1021 117.941 47.6849 117.008 48.6368C114.828 50.8631 115.594 52.9295 116.53 55.4222C118.339 60.2351 118.988 65.2064 116.385 70.0347C115.895 70.9418 116.04 71.5754 116.556 72.4194C118.897 76.2523 120.311 80.1021 116.879 84.1859C115.964 85.2753 118.629 90.4204 120.461 91.5294C123.082 93.115 125.692 94.716 128.328 96.2764C135.225 100.359 139.427 106.299 139.584 114.368C139.668 118.706 141.052 122.484 142.657 126.274C144.328 130.22 145.469 134.315 146.724 138.391C147.669 141.46 146.751 143.881 144.463 145.681C142.949 146.873 142.584 148.13 142.642 149.883C143.073 163.301 141.132 176.492 138.796 189.649C138.175 193.142 136.235 195.865 134.264 198.63C133.446 199.776 132.319 199.9 131.077 199.883C129.353 199.861 127.628 199.877 125.723 199.877C125.755 204.319 125.905 208.499 127.093 212.444C130.163 222.645 131.713 233.12 133.32 243.6C133.683 245.971 134.36 248.294 134.917 250.632C135.333 252.383 135.691 254.136 133.985 255.434C132.824 256.317 133.486 257.188 133.923 258.022C139.305 268.284 142.458 279.295 144.927 290.543C146.414 297.318 150.598 302.211 156.343 306.191C152.876 312.958 148.38 318.062 140.295 318.636C138.112 318.792 135.936 319.107 133.753 319.15C131.342 319.196 129.48 320.201 127.464 321.473C124.056 323.623 120.546 326.137 116.021 323.822C114.488 323.037 112.92 323.577 112.756 325.701C111.845 337.516 109.188 349.3 112.201 361.184C115.336 373.552 113.806 385.825 112.24 398.292C110.296 413.782 107.715 429.233 107.446 444.931C107.261 455.761 111.273 465.009 117.153 473.612C120.764 478.897 119.728 483.62 113.633 485.277C106.627 487.181 99.5038 486.919 92.7085 484.199C87.0671 481.941 86.5554 476.567 86.2624 471.575C85.1857 453.223 85.9483 434.833 85.3133 416.467C84.6305 396.784 82.386 377.235 80.5452 357.644C79.6368 347.969 79.7251 338.202 79.3381 328.477C79.2891 327.303 79.6101 326.071 78.9498 324.975ZM35.3058 276.868C35.5848 276.878 35.8638 276.889 36.1441 276.899C36.1441 277.75 36.21 278.608 36.1343 279.453C35.045 291.656 33.7945 303.846 31.8864 315.945C31.4322 318.828 32.1402 320.111 34.6202 321.224C42.5987 324.806 50.9571 325.118 59.4081 324.145C69.7208 322.959 79.9368 321.482 90.4219 322.867C96.3185 323.647 102.431 323.601 108.394 322.315C110.062 321.955 111.169 321.442 111.087 319.367C110.638 308 110.281 296.63 109.92 285.26C109.852 283.08 109.91 280.896 109.91 278.713C112.817 292.455 113.495 306.302 112.562 320.348C114.812 320.529 116.906 320.197 118.918 320.892C121.626 321.829 124.143 321.359 126.239 319.393C128.374 317.39 130.914 316.731 133.739 316.626C136.031 316.54 138.312 316.212 140.605 316.09C146.849 315.76 150.686 312.056 153.882 306.769C145.757 301.621 142.527 293.689 140.954 284.789C140.612 282.856 139.968 280.977 139.566 279.051C137.941 271.281 133.871 264.496 131.071 256.89C125.079 259.649 118.825 259.593 112.217 260.324C115.831 264.68 116.717 269.303 117.311 273.982C118.926 286.685 117.346 299.57 119.42 312.253C119.43 312.311 119.303 312.392 119.03 312.696C117.627 310.459 117.115 308.067 116.801 305.6C115.818 297.862 116.487 290.073 116.044 282.32C115.693 276.202 115.388 270.059 112.775 264.352C111.896 262.432 110.867 260.408 108.548 260.135C103.264 259.512 97.9518 259.18 92.8445 260.615C96.5484 278.628 94.9376 296.343 91.8589 314.025C90.7149 305.242 93.0436 296.595 92.8291 287.831C92.6118 278.888 92.7057 269.934 91.207 260.798C87.8984 261.053 84.7665 261.358 81.6275 261.524C74.0332 261.923 72.9383 262.697 70.548 269.927C69.9311 271.793 69.4264 273.704 69.01 275.625C66.5916 286.752 64.9612 298.007 63.7008 309.318C63.5775 310.425 63.1639 311.636 63.9896 312.779C65.5991 312.616 65.993 311.451 66.4388 310.359C67.3529 308.118 67.831 305.761 68.2586 303.389C69.5063 296.476 69.5694 289.453 70.2241 282.486C70.3657 280.972 70.3713 279.372 72.0662 277.538C72.5906 283.236 71.9232 288.101 71.6218 292.957C71.2896 298.307 70.7765 303.643 68.9021 308.747C67.8198 311.691 65.8752 313.368 62.0017 313.662C63.2887 295.954 63.534 278.378 71.9162 261.902C65.6537 261.902 59.5833 261.902 53.5409 261.902C52.9367 263.038 53.2353 264.143 53.2605 265.208C53.6054 279.86 54.863 294.492 54.2349 309.165C54.1227 311.785 54.0372 314.422 53.6671 317.012C53.2311 320.066 51.2263 321.55 47.9556 320.571C52.7979 319.59 52.6703 316.278 52.9002 313.11C53.3222 307.309 52.8287 301.519 52.7306 295.724C52.5371 284.399 51.0356 273.129 51.6006 261.614C45.4208 261.277 39.5299 261.084 33.6669 260.579C31.0845 260.356 30.2181 261.489 29.8326 263.707C27.8909 274.898 28.1488 286.253 27.0679 297.503C28.3381 294.516 27.6483 291.005 29.7583 287.457C30.8532 295.269 28.3549 305.402 24.6692 306.748C26.0894 290.983 25.3968 275.389 28.7713 260.102C23.5056 258.375 24.4772 257.956 21.6438 262.567C14.7028 273.862 10.7815 286.415 6.50138 298.818C5.46815 301.813 4.59333 304.868 1.6212 306.777C8.80758 313.082 15.9379 318.624 26.2043 317.345C28.6732 317.038 29.6265 316.385 29.8732 314.011C30.5308 307.704 31.2794 301.404 32.1107 295.117C32.9239 288.994 33.5239 282.817 35.3058 276.868ZM108.546 197.695C108.546 199.917 108.194 201.947 108.625 203.794C109.358 206.935 107.969 207.238 105.372 207.253C88.5433 207.351 71.7116 206.743 54.8868 207.505C52.9311 207.594 51.8544 206.97 51.909 204.695C51.9806 201.72 52.2876 198.7 51.6287 195.508C45.2091 197.407 38.934 198.823 32.6449 200.2C29.8817 200.806 28.7741 203.347 29.6938 206.203C29.9728 207.068 30.2055 207.908 29.7611 208.738C27.4156 213.12 27.5166 218.017 26.7034 222.735C25.0337 232.421 23.2729 242.094 21.3494 251.733C20.8615 254.176 21.4097 255.334 23.779 256.035C26.1945 256.75 28.5778 257.569 31.0957 257.781C48.0873 259.212 65.0958 259.94 82.1519 259.101C89.6929 258.731 97.077 256.959 104.646 256.829C110.893 256.722 116.95 255.545 122.752 253.073C125.074 252.085 127.415 250.906 130.986 250.726C127.761 254.574 122.978 253.918 119.598 257.026C121.235 256.84 122.224 256.841 123.149 256.6C125.579 255.969 127.969 255.183 130.4 254.555C132.444 254.026 132.734 252.86 132.41 250.89C129.599 233.849 124.754 217.155 123.251 199.643C118.762 199.049 113.813 198.393 108.546 197.695ZM80.928 324.697C82.0215 334.169 82.2752 343.329 82.515 352.486C82.937 368.565 87.0783 384.238 87.1484 400.419C87.2031 413.081 88.1368 425.762 88.1732 438.458C88.1999 447.644 87.7596 456.842 88.5994 466.015C88.7452 467.606 88.6751 469.33 90.5411 470.188C94.3516 471.942 98.2826 473.324 102.512 473.303C105.78 473.288 108.936 472.595 111.699 470.453C110.93 468.697 110.285 467.199 109.619 465.713C106.309 458.322 104.572 450.677 104.893 442.483C105.511 426.731 108.106 411.2 110.1 395.619C111.514 384.557 112.803 373.593 109.838 362.753C108.351 357.323 108.084 351.999 108.395 346.549C108.8 339.472 109.425 332.406 109.988 324.914C100.327 325.816 90.7893 325.572 80.928 324.697ZM41.2627 471.231C48.2486 475.472 54.7873 474.027 61.4002 471.369C63.4359 470.55 64.2756 469.203 64.3696 467.191C64.5364 463.586 64.828 459.979 64.7958 456.375C64.5055 423.66 65.4477 391.03 69.983 358.557C71.5055 347.655 70.6068 336.535 72.1616 325.008C62.1713 326.36 52.6142 328.315 42.6534 326.426C42.7375 327.722 42.7067 328.575 42.8609 329.392C44.4773 337.927 44.6946 346.565 44.7745 355.212C44.7872 356.525 44.6932 357.81 44.2797 359.092C42.1781 365.599 41.4505 372.288 41.2627 379.121C40.9809 389.366 44.1367 399.192 44.4563 409.386C44.675 416.339 46.5059 423.226 47.1593 430.185C47.9654 438.761 49.0771 447.373 46.9854 455.97C45.7124 461.198 43.4707 466.051 41.2627 471.231ZM49.8384 170.659C53.5157 171.724 57.1481 171.55 60.7441 171.611C62.6522 171.644 64.5154 171.851 66.1276 172.802C71.5728 176.008 77.5815 178.261 82.3089 182.706C84.0319 184.327 86.2119 185.526 88.3218 186.66C100.969 193.459 114.441 197.031 128.854 197.337C132.621 197.417 134.575 196.155 135.447 192.708C135.635 191.966 135.984 191.257 136.097 190.508C138.122 177.169 141.571 163.979 140.321 150.291C139.957 146.289 139.703 142.278 139.372 137.932C134.062 137.123 128.667 136.577 123.324 138.349C121.674 138.897 120.654 140.152 119.594 141.695C116.735 145.858 120.051 150.432 117.785 154.395C119.775 155.332 121.43 154.854 123.03 154.935C124.723 155.022 126.484 155.096 127.189 156.908C127.923 158.792 125.953 159.277 124.786 160.191C130.247 162.396 132.154 164.635 131.868 168.331C131.596 171.846 128.447 170.431 126.619 171.194C126.811 172.849 129.268 172.72 128.936 174.565C128.102 175.765 127.107 175.217 126.383 174.623C122.032 171.051 116.739 170.849 111.518 170.261C98.786 168.83 86.1264 167.143 74.4622 161.217C67.3235 157.59 63.0784 151.945 61.4816 144.168C61.2362 142.97 61.2965 141.544 59.8763 140.804C58.7856 141.854 59.1739 143.11 59.3997 144.21C59.9072 146.693 59.5805 147.86 56.5102 147.447C52.9885 146.975 49.1991 146.395 46.8704 150.462C46.4106 151.265 45.0255 151.526 44.0904 152.074C41.1407 153.802 37.8125 155.117 36.3446 159.086C40.6304 158.338 43.9951 155.064 48.4084 156.067C43.36 159.552 37.4942 161.826 34.023 167.229C38.3186 164.63 42.7726 162.754 47.835 162.381C45.7783 164.899 41.7758 165.301 41.4043 168.958C45.3816 172.668 47.9556 167.229 51.3609 167.277C51.7871 169.129 50.0599 169.291 49.8384 170.659ZM30.0443 168.217C30.4817 165.134 30.8518 162.332 31.2808 159.539C32.1963 153.589 33.0991 147.625 32.6267 141.594C32.4893 139.836 32.9715 137.557 30.2167 136.837C26.1903 135.787 22.1429 134.938 18.0198 134.369C16.28 134.129 15.6533 134.845 15.314 136.347C14.6411 139.332 13.828 142.287 13.1915 145.279C10.8054 156.498 9.89269 167.978 6.95421 179.123C5.94901 182.938 6.16491 187.195 7.28647 191.153C8.0323 193.783 8.90292 196.539 12.0068 197.375C16.7847 198.663 21.7672 199.709 26.5955 198.837C38.212 196.74 49.715 194.058 60.6782 189.461C65.9972 187.23 70.9349 184.324 76.617 181.457C72.5948 179.154 69.1516 177.124 65.6495 175.202C64.1284 174.368 62.5246 173.267 60.7666 173.483C52.2427 174.529 44.0315 172.319 35.6941 171.356C29.4849 170.638 23.2322 170.186 17.5698 173.859C16.8365 174.334 15.9155 175.064 14.6131 173.897C18.4712 168.737 24.093 168.437 30.0443 168.217ZM108.835 43.4706C107.673 41.8303 108.358 38.7685 104.861 39.0026C101.328 39.2395 99.578 36.8478 99.1406 33.5112C98.5925 29.332 96.5499 26.5295 92.3763 25.1948C87.7933 23.7298 83.5258 21.6437 81.1789 16.9009C77.6965 21.8344 76.9618 22.5311 69.4642 25.3126C65.6005 26.7468 63.7261 29.36 63.0798 33.2238C62.3774 37.4198 61.1955 38.5554 56.9547 39.1007C55.2737 39.3166 53.9194 39.6349 54.1241 41.7995C54.183 42.4205 54.0176 43.1285 53.0615 43.336C51.7394 42.586 52.0142 39.7064 49.5468 40.3246C48.1827 40.6667 47.284 41.5597 47.2336 43.165C47.563 43.2505 47.8658 43.4201 48.1448 43.3879C51.5614 42.9953 54.326 44.9847 56.7822 46.6278C58.2809 47.6302 57.165 50.7523 57.3332 52.9155C57.5351 55.5288 57.6626 58.1518 58.0005 60.7482C58.2388 62.5834 58.7534 64.3666 60.0039 65.8667C68.7885 76.4079 83.9814 77.6515 94.3516 72.1811C100.496 68.9384 105.079 64.2881 104.669 56.4765C104.492 53.1216 104.639 49.7499 104.639 46.5913C108.532 45.3913 111.176 42.6477 115.086 43.493C113.319 39.168 112.214 39.2129 108.835 43.4706ZM56.3813 143.665C57.0963 141.296 56.7654 138.352 59.8483 138.217C62.5905 138.098 62.8386 141.024 63.4667 143.009C64.1214 145.082 64.5378 147.199 65.5135 149.2C68.6567 155.639 74.2897 158.893 80.5522 161.495C82.7589 162.412 84.9277 162.797 87.2521 162.311C91.8491 161.349 96.4265 160.289 101.046 159.456C103.355 159.04 103.937 157.921 103.909 155.663C103.782 145.611 103.862 135.557 103.841 125.504C103.84 124.561 104.139 123.518 103.117 122.557C87.6012 123.804 71.9485 122.543 56.3799 121.685C56.3813 129.285 56.3813 136.474 56.3813 143.665ZM105.119 91.0639C103.15 92.3775 102.215 93.8594 101.27 95.302C97.7962 100.606 93.3268 104.911 88.0022 108.278C79.1924 113.851 76.4628 113.295 69.6409 105.382C66.0379 101.201 63.3812 96.4305 60.4848 91.7999C59.638 90.4456 58.8711 89.1166 56.8874 90.2424C57.0822 93.1094 57.4285 95.9918 55.1237 98.2896C54.8559 98.5573 54.6064 99.1686 54.7312 99.4546C56.799 104.214 52.4362 108.785 54.434 113.658C55.2331 115.605 52.9423 117.534 52.9437 120.107C54.0666 118.386 55.4966 118.915 56.8621 119.005C63.0784 119.414 69.2904 120.014 75.5136 120.157C84.4777 120.362 93.4502 120.285 102.418 120.212C105.434 120.187 106.738 121.223 106.536 124.429C106.286 128.401 106.476 132.4 106.476 136.805C108.377 135.337 108.813 133.899 109.029 132.039C109.507 127.93 108.485 123.795 109.421 119.71C109.546 119.163 109.174 118.471 108.944 117.88C108.464 116.637 106.879 101.998 107.185 100.652C107.378 99.7994 107.813 98.9667 107.027 98.2068C105.109 96.3507 105.103 93.9127 105.119 91.0639ZM66.6085 74.6766C65.9425 80.2198 69.4895 86.5693 62.0423 89.6297C63.799 92.4294 65.4519 95.2305 67.2688 97.9222C69.9059 101.827 72.8359 105.487 76.5539 108.465C77.8829 109.53 78.9722 109.706 80.6798 109.058C90.3617 105.386 96.969 98.3933 102.455 89.3577C93.6212 89.2119 91.0851 84.2575 92.9118 76.1907C83.7346 78.3188 75.1449 78.724 66.6085 74.6766ZM78.1423 182.82C71.3765 187.62 64.0261 191.187 56.2467 193.876C55.5275 194.124 54.6583 194.333 54.6443 195.275C54.598 198.491 54.626 201.71 54.626 204.671C72.1111 204.671 89.0074 204.671 106.096 204.671C106.096 201.872 106.096 199.405 106.096 196.97C96.2807 193.252 86.432 189.882 78.1423 182.82ZM120.038 137.387C123.983 135.382 127.833 134.984 131.8 135.081C135.684 135.175 139.514 135.522 143.623 137.178C143.05 135.126 142.831 133.699 142.266 132.424C139.276 125.681 137.417 118.66 136.563 111.332C136.205 108.256 135.021 105.403 132.806 103.119C128.748 98.94 123.568 96.338 118.377 92.4897C118.903 95.2319 117.011 96.5651 117.397 98.9456C118.256 104.255 118.464 109.68 118.731 115.068C118.785 116.155 117.991 117.32 117.463 118.386C117.116 119.086 116.717 119.692 117 120.523C118.117 123.801 117.379 126.718 114.924 129.306C117.837 131.202 119.437 133.706 120.038 137.387ZM43.5941 90.677C39.8958 92.0523 36.7428 93.7164 33.7104 95.6441C32.9028 96.1572 32.5369 96.8175 32.4248 97.7722C31.4925 105.697 30.5798 113.554 31.9888 121.596C33.6627 131.146 35.9549 140.686 34.9259 150.533C34.7114 152.584 34.5305 154.638 34.3342 156.69C36.3867 154.438 38.5653 152.876 41.0047 151.558C43.7736 150.061 44.8194 147.267 43.5927 144.324C41.1225 138.394 41.78 133.282 47.0807 129.298C46.4302 128.248 45.3129 127.286 45.3718 126.401C45.7265 121.077 42.5146 116.069 43.5212 110.958C44.1226 107.904 43.2646 104.897 44.0161 102.211C45.1026 98.3274 43.8801 94.8464 43.5941 90.677ZM112.89 84.8407C117.831 79.4964 117.538 74.2461 111.952 72.2372C118.968 66.1078 116.122 59.3252 113.684 52.2061C111.516 53.238 109.476 53.3599 107.492 53.5744C107.374 54.0665 107.241 54.3778 107.233 54.6918C107.102 59.5187 106.975 64.3246 103.676 68.3496C102.763 69.4641 103.4 70.6894 104.053 71.6988C104.807 72.8638 105.738 73.9153 106.57 74.9878C103.26 79.031 103.422 81.898 107.349 85.4827C108.588 86.6141 108.863 87.3908 108.26 89.0507C107.22 91.9107 106.317 94.9922 109.33 97.468C110.062 98.0694 110.25 98.9176 109.903 99.8485C108.866 102.638 108.542 105.36 110.557 107.922C110.775 108.2 110.868 108.853 110.694 109.122C108.22 112.974 110.153 116.194 112.172 119.324C109.148 123.052 109.416 126.125 112.862 129.009C115.396 125.871 116.896 122.571 113.882 118.986C117.857 114.388 117.714 110.464 113.417 108.068C116.264 105.079 117.388 101.825 114.607 98.1788C114.244 97.7035 114.426 97.1329 114.713 96.6395C117.231 92.3116 115.944 88.518 112.89 84.8407ZM49.2566 84.9584C45.8667 89.0816 45.4895 91.3527 47.4368 96.4922C47.7999 97.4498 47.6345 98.0638 47.1494 98.8868C45.561 101.58 45.3437 104.23 47.7593 106.651C48.306 107.199 48.8037 107.809 48.3313 108.668C44.4269 109.954 44.3946 113.352 48.2542 119.33C44.9974 123.002 47.27 126.044 49.3617 129.155C52.7825 125.866 52.9689 123.295 50.1342 119.258C52.882 114.371 52.9058 114.366 51.5011 109.289C51.2936 108.541 51.4885 108.008 51.8838 107.485C53.5185 105.323 53.3124 102.99 52.5357 100.618C52.1866 99.5541 51.7296 98.4339 52.7572 97.5858C55.8738 95.0146 54.9709 91.8714 53.8732 88.8867C53.3054 87.3431 53.5956 86.6337 54.727 85.5879C58.7393 81.8825 58.8992 79.446 55.6593 74.8532C55.9046 74.5378 56.1261 74.1592 56.4345 73.8732C58.9328 71.5516 59.774 69.1543 57.1593 66.2775C56.2088 65.2316 56.0434 63.7091 55.6649 62.3338C54.8756 59.4682 55.2779 56.4779 54.7129 53.4763C52.5568 53.5408 50.5856 52.9856 48.4981 52.3772C45.833 59.4416 43.5226 66.2522 50.2393 72.4362C44.7227 73.9083 44.4577 79.1123 49.2566 84.9584ZM31.5275 134.268C29.3657 122.162 27.0469 110.408 30.2167 98.3947C20.4157 108.013 16.0557 121.042 7.74491 131.625C15.9449 130.439 23.4551 132.934 31.5275 134.268ZM127.066 163.716C122.556 161.914 118.611 161.74 114.528 162.089C112.8 162.238 109.809 163.787 109.481 161.398C109.167 159.116 112.519 159.757 114.247 159.201C116.773 158.39 119.585 158.708 122.51 157.433C118.308 157.195 95.7115 162.42 91.3963 164.656C104.283 167.04 116.603 169.515 129.302 168.056C125.091 165.49 119.901 168.383 114.893 165.364C119.102 163.288 122.912 164.879 127.066 163.716ZM100.967 71.0006C95.3456 74.1718 93.4585 78.1506 95.089 83.1611C96.0185 86.0197 99.8374 87.3221 104.987 86.3632C103.323 83.7121 101.235 80.9334 102.503 77.8758C103.68 75.0354 102.832 73.1582 100.967 71.0006ZM51.2501 130.268C50.3361 130.268 49.8748 130.139 49.537 130.288C45.2568 132.175 43.4595 136.752 45.0535 141.943C45.7181 144.108 46.663 146.188 46.14 148.805C53.7428 142.66 53.8409 142.606 49.7346 134.771C48.6495 132.702 49.7402 131.698 51.2501 130.268ZM116.038 148.876C115.555 146.109 116.526 144.056 117.139 141.904C117.932 139.114 117.868 136.279 116.529 133.617C115.479 131.531 113.659 130.68 111.332 130.411C114.031 132.083 112.929 133.762 111.905 135.636C110.414 138.367 108.426 141.23 111.073 144.307C112.399 145.849 114.074 147.091 116.038 148.876ZM106.607 157.326C115.881 154.646 116.34 156.068 116.333 151.781C111.792 150.408 110.017 145.953 106.607 142.768C106.607 147.795 106.607 152.416 106.607 157.326ZM61.1563 71.0455C59.0141 74.2363 59.0225 74.2335 59.7992 77.8169C60.5927 81.4788 58.658 84.2813 56.4962 87.0768C62.9031 87.8296 64.3555 86.6155 64.3612 80.7694C64.3626 79.0268 64.1481 77.2743 64.2644 75.5415C64.42 73.255 63.5761 71.7773 61.1563 71.0455ZM115.365 45.6591C112.327 44.9553 110.048 47.0946 107.404 47.6316C107.339 50.5364 107.684 51.0523 109.616 51.1014C112.528 51.1729 115.072 48.8036 115.365 45.6591ZM46.7541 45.617C47.1985 48.9592 50.1118 51.4365 52.9689 51.0762C55.163 50.8 55.1798 49.3882 54.776 47.612C52.174 47.0666 49.9505 45.1011 46.7541 45.617ZM11.6872 139.514C12.6125 137.669 13.0975 135.852 13.4859 133.642C11.5302 133.504 9.28285 132.887 8.64075 135.007C8.05754 136.934 9.68941 138.49 11.6872 139.514Z" fill="#8F8F8F"/>
<path d="M129.965 315.001C130.168 302.828 129.619 290.687 128.343 278.579C132.188 290.576 132.633 302.723 129.965 315.001Z" fill="#8F8F8F"/>
<path d="M46.5633 318.272C45.6114 313.158 45.2315 308.025 45.4165 302.377C47.4746 304.951 48.1251 313.625 46.5633 318.272Z" fill="#8F8F8F"/>
<path d="M128.15 269.244C129.765 271.09 130.91 273.054 130.432 276.061C128.311 273.922 128.137 271.595 128.15 269.244Z" fill="#8F8F8F"/>
<path d="M125.813 227.789C122.632 230.667 118.782 232.023 114.882 233.287C100.798 237.849 86.2524 239.396 71.5558 239.729C61.9357 239.948 52.3057 239.943 42.6869 239.757C40.0106 239.707 36.5997 240.014 35.5454 235.854C45.6997 239.157 55.8554 237.559 65.8695 237.527C76.1304 237.493 86.4333 237.032 96.5918 235.242C106.501 233.492 116.223 230.955 125.813 227.789Z" fill="#8F8F8F"/>
<path d="M56.0489 230.155C48.1686 234.235 40.3373 231.933 32.499 229.698C40.3359 229.686 48.163 232.104 56.0489 230.155Z" fill="#8F8F8F"/>
<path d="M71.0742 62.78C74.4361 64.1777 77.3171 66.6269 81.2061 66.6143C85.0236 66.6017 87.7406 64.0179 91.1263 62.4785C90.8164 65.6259 87.8036 67.9069 83.5838 68.6191C77.9059 69.578 72.8042 67.44 71.0742 62.78Z" fill="#8F8F8F"/>
<path d="M66.4386 51.9647C65.9325 48.0575 65.9325 48.0575 60.7158 49.8688C63.3669 47.8065 62.8594 45.6713 62.6491 43.2488C66.8311 47.8514 71.1884 48.9884 76.2242 43.8965C76.6756 47.8584 72.3043 48.3294 72.6997 51.6128C70.5659 48.3168 68.585 48.9071 66.4386 51.9647Z" fill="#8F8F8F"/>
<path d="M99.3149 43.1594C99.8504 45.5511 97.8513 47.9835 101.1 49.0027C99.4425 50.8828 94.9857 43.8323 96.2096 51.7267C93.8235 50.1579 91.7809 47.2503 89.727 51.6188C89.7607 48.4378 85.8534 47.9008 85.7314 43.9249C90.7771 48.3144 95.2563 48.6719 99.3149 43.1594Z" fill="#8F8F8F"/>
<path d="M85.082 41.0128C86.4601 36.0051 93.9984 34.6297 99.1492 38.4402C93.9143 38.5748 89.2472 38.4332 85.082 41.0128Z" fill="#8F8F8F"/>
<path d="M77.0652 41.0159C72.8804 38.7714 68.4965 38.0873 63.6836 38.7784C65.2341 36.339 67.6637 35.6675 71.5583 36.2717C74.6959 36.7596 76.6488 38.1994 77.0652 41.0159Z" fill="#8F8F8F"/>
<path d="M84.3299 56.2358C84.6902 59.2991 83.441 60.5006 81.2596 60.7038C79.1006 60.9057 77.8108 59.7702 77.4141 57.4766C80.0203 59.4814 82.1554 58.5645 84.3299 56.2358Z" fill="#8F8F8F"/>
</svg>
