<svg width="178" height="162" viewBox="0 0 178 162" fill="none" xmlns="http://www.w3.org/2000/svg">
<g clip-path="url(#clip0_395_20493)">
<path d="M147.075 30.9572C169.908 33.6564 179.638 52.8963 173.805 67.0426C170.181 75.8315 165.26 76.8116 168.818 87.5174C171.115 94.4279 177.676 99.0031 177.989 106.835C178.394 116.99 167.181 124.124 157.023 124.46C128.608 125.404 158.058 157.314 128.647 167.793C111.606 173.864 102.903 158.074 98.5281 156.159C84.7207 150.117 77.7283 180.211 52.6488 174.173C29.6727 168.643 35.3531 144.71 35.4645 137.572C35.8238 114.398 17.5593 121.058 10.0644 118.509C1.88038 115.724 -6.76975 102.359 8.05418 82.7329C23.9105 61.7375 4.41812 59.152 10.6874 40.9194C24.4881 0.786305 57.0875 32.1919 71.1065 24.9949C82.6173 19.0871 78.3172 -3.66156 111.613 0.506603C141.665 4.27 115.519 27.2302 147.075 30.9572Z" stroke="#FF960E" stroke-opacity="0.24" stroke-width="2" stroke-miterlimit="10" stroke-linecap="round" stroke-linejoin="round"/>
<path d="M48.8359 68.7115C71.8666 78.8056 78.2337 105.015 81.565 128.96C88.7621 100.67 107.324 75.4424 132.192 60.1523" stroke="#FF960E" stroke-opacity="0.24" stroke-width="2" stroke-miterlimit="10" stroke-linecap="round" stroke-linejoin="round"/>
</g>
<defs>
<clipPath id="clip0_395_20493">
<rect width="178" height="162" fill="white"/>
</clipPath>
</defs>
</svg>
