<svg width="0" height="0" class="hidden">
  <symbol fill="none" xmlns="http://www.w3.org/2000/svg" viewBox="0 0 14 14" id="ic_arrow_diagonal">
    <path d="M4.08594 4.08073L9.91927 9.91406M9.91927 9.91406H4.66927M9.91927 9.91406V4.66406" stroke="currentColor" stroke-width="1.5" stroke-linecap="round" stroke-linejoin="round"></path>
  </symbol>
  <symbol fill="none" xmlns="http://www.w3.org/2000/svg" viewBox="0 0 24 24" id="ic_arrow_hor">
    <path d="M7.82843 11.0009H20V13.0009H7.82843L13.1924 18.3648L11.7782 19.779L4 12.0009L11.7782 4.22266L13.1924 5.63687L7.82843 11.0009Z" fill="currentColor"></path>
  </symbol>
  <symbol fill="none" xmlns="http://www.w3.org/2000/svg" viewBox="0 0 18 18" id="ic_asterisk">
    <path d="M9.74802 2.25L9.74787 7.70025L14.4687 4.97548L15.2187 6.27452L10.4986 8.99925L15.2187 11.7255L14.4687 13.0245L9.74787 10.299L9.74802 15.75H8.24802L8.24787 10.299L3.52734 13.0245L2.77734 11.7255L7.49709 9L2.77734 6.27452L3.52734 4.97548L8.24787 7.70025L8.24802 2.25H9.74802Z" fill="currentColor"></path>
  </symbol>
  <symbol fill="none" xmlns="http://www.w3.org/2000/svg" viewBox="0 0 18 18" id="ic_bed">
    <g clip-path="url(#clip0_395_20596)">
      <g clip-path="url(#clip1_395_20596)">
        <path d="M17.1759 7.83169L11.2225 10.007C10.9262 10.1143 10.625 10.4604 10.625 10.7746V15.7541C10.625 16.0683 10.9381 16.2356 11.2333 16.1246L17.1808 13.9027C17.476 13.7916 17.6667 13.445 17.6667 13.1308V8.20598C17.6667 7.89181 17.4722 7.72335 17.1759 7.83169Z" fill="currentColor"></path>
        <path d="M6.27586 3.78358L2.24857 5.26125C1.96799 5.36362 1.91436 5.61875 2.12724 5.82729L3.63632 7.30333C3.85082 7.51187 4.25003 7.5877 4.52574 7.47341L8.61532 5.76933C8.89049 5.65504 8.92949 5.40316 8.70091 5.21087L7.19995 3.94662C6.97191 3.75379 6.55591 3.68066 6.27586 3.78358Z" fill="currentColor"></path>
        <path d="M9.12014 6.07422C9.03618 6.15222 8.93977 6.22101 8.82277 6.26922L4.73264 7.97384C4.58206 8.03668 4.41522 8.06864 4.23756 8.06864C4.22727 8.06864 4.2186 8.06593 4.20885 8.06593C3.84702 8.06322 3.49277 7.9213 3.25606 7.69055L2.20577 6.69009C2.20577 6.69009 1.41602 6.88455 1.41602 7.58114V8.9418C1.41602 9.23918 1.77081 9.59776 2.03514 9.73643L10.0827 13.9235V10.7748C10.0827 10.1931 10.5675 9.66818 11.036 9.49809L13.8917 8.45484L9.12014 6.07422Z" fill="currentColor"></path>
        <path d="M0.874675 8.94104V7.58037C0.874675 6.86592 1.3833 6.45317 1.79984 6.26467L1.74838 6.21483C1.51059 5.983 1.41038 5.68292 1.47322 5.3915C1.53551 5.10008 1.75055 4.86717 2.06147 4.75342L6.0893 3.27521C6.23338 3.22212 6.39318 3.19558 6.56326 3.19558C6.85305 3.19558 7.14176 3.27629 7.37468 3.41333V2.24767C7.37468 1.9335 7.18022 1.76504 6.88393 1.87337L0.930466 4.04817C0.634175 4.15596 0.333008 4.50208 0.333008 4.81625V9.79579C0.333008 10.11 0.646091 10.2773 0.9413 10.1663L1.44613 9.97779C1.15688 9.72862 0.874675 9.35379 0.874675 8.94104Z" fill="currentColor"></path>
      </g>
    </g>
    <defs>
      <clipPath id="clip0_395_20596">
        <rect width="18" height="18" fill="currentColor"></rect>
      </clipPath>
      <clipPath id="clip1_395_20596">
        <rect width="17.3333" height="17.3333" fill="currentColor" transform="translate(0.333008 0.333313)"></rect>
      </clipPath>
    </defs>
  </symbol>
  <symbol fill="none" xmlns="http://www.w3.org/2000/svg" viewBox="0 0 18 18" id="ic_calendar">
    <path d="M1.5 8.25H16.5V15C16.5 15.4142 16.1642 15.75 15.75 15.75H2.25C1.83579 15.75 1.5 15.4142 1.5 15V8.25ZM12.75 2.25H15.75C16.1642 2.25 16.5 2.58579 16.5 3V6.75H1.5V3C1.5 2.58579 1.83579 2.25 2.25 2.25H5.25V0.75H6.75V2.25H11.25V0.75H12.75V2.25Z" fill="currentColor"></path>
  </symbol>
  <symbol fill="none" xmlns="http://www.w3.org/2000/svg" viewBox="0 0 18 18" id="ic_car">
    <path d="M14.25 15H3.75V15.75C3.75 16.1642 3.41421 16.5 3 16.5H2.25C1.83579 16.5 1.5 16.1642 1.5 15.75V9L3.385 3.97331C3.60455 3.38786 4.16423 3 4.7895 3H13.2105C13.8358 3 14.3954 3.38786 14.615 3.97331L16.5 9V15.75C16.5 16.1642 16.1642 16.5 15.75 16.5H15C14.5858 16.5 14.25 16.1642 14.25 15.75V15ZM3.102 9H14.898L13.2105 4.5H4.7895L3.102 9ZM4.875 12.75C5.49632 12.75 6 12.2463 6 11.625C6 11.0037 5.49632 10.5 4.875 10.5C4.25368 10.5 3.75 11.0037 3.75 11.625C3.75 12.2463 4.25368 12.75 4.875 12.75ZM13.125 12.75C13.7463 12.75 14.25 12.2463 14.25 11.625C14.25 11.0037 13.7463 10.5 13.125 10.5C12.5037 10.5 12 11.0037 12 11.625C12 12.2463 12.5037 12.75 13.125 12.75Z" fill="currentColor"></path>
  </symbol>
  <symbol fill="none" xmlns="http://www.w3.org/2000/svg" viewBox="0 0 24 24" id="ic_close">
    <path d="M11.9997 10.5865L16.9495 5.63672L18.3637 7.05093L13.4139 12.0007L18.3637 16.9504L16.9495 18.3646L11.9997 13.4149L7.04996 18.3646L5.63574 16.9504L10.5855 12.0007L5.63574 7.05093L7.04996 5.63672L11.9997 10.5865Z" fill="currentColor"></path>
  </symbol>
  <symbol fill="none" xmlns="http://www.w3.org/2000/svg" viewBox="0 0 18 18" id="ic_error">
    <path d="M9 16.5C4.85786 16.5 1.5 13.1421 1.5 9C1.5 4.85786 4.85786 1.5 9 1.5C13.1421 1.5 16.5 4.85786 16.5 9C16.5 13.1421 13.1421 16.5 9 16.5ZM5.25 8.25V9.75H12.75V8.25H5.25Z" fill="currentColor"></path>
  </symbol>
  <symbol fill="none" xmlns="http://www.w3.org/2000/svg" viewBox="0 0 18 18" id="ic_kids">
    <g clip-path="url(#clip0_395_20577)">
      <path d="M6.10935 2.41986H6.10854H2.55225C2.51139 3.43888 3.32599 4.27276 4.3308 4.27276C5.33557 4.27276 6.15022 3.43881 6.10935 2.41986Z" fill="currentColor"></path>
      <path d="M7.77453 6.49496C7.77009 5.60956 7.04493 4.88708 6.15857 4.88708H2.49275C1.60622 4.88708 0.88124 5.60835 0.876797 6.49493C0.875843 6.68091 0.852563 11.3189 0.851571 11.5115C0.849662 11.8886 1.15384 12.1959 1.53098 12.1978C1.53215 12.1978 1.53333 12.1978 1.5345 12.1978C1.90999 12.1978 2.21534 11.8943 2.21725 11.5183C2.21828 11.3182 2.24156 6.67793 2.24248 6.50176C2.24248 6.50128 2.24248 6.50073 2.24248 6.50025C2.24329 6.42773 2.30255 6.36946 2.37507 6.36986C2.44759 6.37027 2.50616 6.4292 2.50616 6.50172C2.50619 8.20833 2.50649 17.9806 2.50649 17.9806C2.50649 18.4331 2.87338 18.8 3.3259 18.8C3.77842 18.8 4.14532 18.4331 4.14532 17.9806V11.431H4.4991V17.9806C4.4991 18.4331 4.866 18.8 5.31852 18.8C5.77104 18.8 6.13794 18.4331 6.13794 17.9806C6.13794 6.73819 6.12307 13.7354 6.12307 6.49658C6.12307 6.41767 6.18703 6.35367 6.26597 6.35367C6.34488 6.35367 6.40888 6.41763 6.40892 6.49654C6.40892 6.4983 6.40892 6.50003 6.40888 6.50183C6.40888 6.50183 6.43139 10.979 6.43411 11.5184C6.43598 11.8944 6.74134 12.1978 7.11686 12.1978C7.118 12.1978 7.11925 12.1978 7.12038 12.1978C7.49749 12.196 7.8017 11.8887 7.79979 11.5116C7.79876 11.3189 7.77545 6.68083 7.77453 6.49496Z" fill="currentColor"></path>
      <path d="M7.13589 1.35315C6.91377 1.35315 6.23363 1.35315 5.98809 1.35315C5.76308 0.772955 5.24344 0.339967 4.6125 0.238073C4.59774 0.104123 4.48428 -0.00012207 4.34636 -0.00012207C4.21057 -0.00012207 4.09865 0.101038 4.08114 0.232051C3.21285 0.351534 2.54395 1.09604 2.54395 1.99712C2.54395 1.99712 6.60827 1.98581 7.13589 1.98581C7.31059 1.98581 7.45222 1.84423 7.45222 1.66948C7.45225 1.49477 7.31063 1.35315 7.13589 1.35315Z" fill="currentColor"></path>
      <path d="M17.9065 10.6988C17.612 9.89292 16.8 7.5644 16.237 5.94848C15.9851 5.22534 15.3028 4.73981 14.537 4.73952C13.8383 4.73926 13.1434 4.73907 12.4539 4.73907C11.6913 4.73907 11.0119 5.21921 10.7567 5.93772C10.0578 7.90504 9.29796 10.0284 9.0529 10.6989C8.922 11.0569 9.10611 11.4533 9.46419 11.5843C9.8219 11.7151 10.2185 11.5312 10.3496 11.173C10.678 10.2749 11.4098 8.23687 11.7214 7.36715C11.5025 8.59069 11.0134 11.1011 10.7409 12.5076C10.6949 12.745 10.878 12.9644 11.1174 12.9644C11.2659 12.9644 11.4447 12.9644 11.6441 12.9644V17.9716C11.6441 18.4291 12.015 18.8 12.4725 18.8C12.93 18.8 13.3008 18.4292 13.3008 17.9716V12.9644C13.4199 12.9644 13.5394 12.9644 13.6585 12.9644V17.9716C13.6585 18.4291 14.0294 18.8 14.4868 18.8C14.9443 18.8 15.3152 18.4292 15.3152 17.9716V12.9644C15.5146 12.9644 15.6935 12.9644 15.8419 12.9644C16.0826 12.9644 16.2644 12.7447 16.2184 12.5076C15.4048 8.31042 15.2742 7.66369 15.238 7.36711C15.7908 8.93221 16.6002 11.1466 16.6098 11.1729C16.7407 11.5309 17.1369 11.7151 17.4952 11.5842C17.8532 11.4533 18.0374 11.0569 17.9065 10.6988Z" fill="currentColor"></path>
      <path d="M17.3451 4.18285C16.9528 3.3764 16.4931 3.08566 16.2142 2.94635C16.0026 2.84067 15.777 2.82543 15.5768 2.95714L15.6049 2.89123C15.6507 2.78387 15.6006 2.65972 15.4933 2.61397C15.4013 2.57479 15.2974 2.60626 15.2406 2.68344C15.3599 1.61783 14.5258 0.702942 13.4717 0.702942C12.4157 0.702942 11.5838 1.61977 11.7028 2.68341C11.646 2.60622 11.5422 2.57483 11.4502 2.61397C11.3428 2.65972 11.2928 2.78383 11.3385 2.89123L11.3666 2.95714C11.1665 2.8254 10.9409 2.84064 10.7293 2.94631C10.4504 3.08566 9.99064 3.37636 9.59841 4.18282C9.55545 4.27131 9.64009 4.36814 9.73335 4.33751C10.4271 4.10993 11.1295 4.31155 11.4032 4.17485C11.5545 4.09924 11.6716 3.96496 11.7217 3.79077C11.7478 3.85216 11.7885 3.99166 11.947 3.99166C12.0977 3.99166 12.2008 3.83707 12.1414 3.69747L12.115 3.63567C12.4416 4.01982 12.9281 4.26382 13.4718 4.26382C14.0155 4.26382 14.502 4.01978 14.8286 3.63563L14.8022 3.69743C14.7428 3.83704 14.8457 3.99162 14.9966 3.99162C15.1548 3.99162 15.1959 3.85176 15.2219 3.79077C15.2719 3.96434 15.3886 4.09895 15.5404 4.17481C15.8141 4.31155 16.5164 4.10989 17.2102 4.33748C17.3034 4.3681 17.3881 4.27127 17.3451 4.18285Z" fill="currentColor"></path>
    </g>
    <defs>
      <clipPath id="clip0_395_20577">
        <rect width="18.8" height="18.8" fill="currentColor"></rect>
      </clipPath>
    </defs>
  </symbol>
  <symbol fill="none" xmlns="http://www.w3.org/2000/svg" viewBox="0 0 18 18" id="ic_location">
    <path d="M13.773 13.023L9 17.7959L4.22703 13.023C1.59099 10.3869 1.59099 6.11307 4.22703 3.47703C6.86307 0.84099 11.1369 0.84099 13.773 3.47703C16.409 6.11307 16.409 10.3869 13.773 13.023ZM9 9.75C9.82845 9.75 10.5 9.07845 10.5 8.25C10.5 7.42157 9.82845 6.75 9 6.75C8.17155 6.75 7.5 7.42157 7.5 8.25C7.5 9.07845 8.17155 9.75 9 9.75Z" fill="currentColor"></path>
  </symbol>
  <symbol fill="none" xmlns="http://www.w3.org/2000/svg" viewBox="0 0 26 26" id="ic_max">
    <path fill-rule="evenodd" clip-rule="evenodd" d="M13.7256 22.9429C11.6647 22.9429 10.707 22.6552 9.04225 21.504C7.98924 22.799 4.65472 23.8111 4.50931 22.0796C4.50931 20.7798 4.20845 19.6815 3.86748 18.4824C3.46132 17.0051 3 15.36 3 12.9763C3 7.28308 7.88394 3 13.6705 3C19.462 3 23.9999 7.49411 23.9999 13.029C24.0093 15.6461 22.9327 18.1599 21.0064 20.0186C19.0802 21.8772 16.4617 22.929 13.7256 22.9429ZM13.8109 7.92098C10.9928 7.78189 8.79655 9.64764 8.31016 12.5734C7.90901 14.9955 8.62104 17.9452 9.22778 18.0987C9.51861 18.1658 10.2507 17.5999 10.707 17.1634C11.4615 17.662 12.3401 17.9614 13.2543 18.0315C14.6579 18.0961 16.032 17.6314 17.0812 16.7372C18.1305 15.843 18.771 14.5908 18.8653 13.2496C18.9201 11.9057 18.4213 10.5949 17.476 9.59928C16.5307 8.60362 15.2146 8.00268 13.8109 7.92578V7.92098Z" fill="currentColor"></path>
  </symbol>
  <symbol fill="none" xmlns="http://www.w3.org/2000/svg" viewBox="0 0 24 24" id="ic_menu">
    <path d="M3 5C3 4.44772 3.44772 4 4 4H20C20.5523 4 21 4.44772 21 5C21 5.55228 20.5523 6 20 6H4C3.44772 6 3 5.55228 3 5ZM9 12C9 11.4477 9.44772 11 10 11H20C20.5523 11 21 11.4477 21 12C21 12.5523 20.5523 13 20 13H10C9.44771 13 9 12.5523 9 12ZM3 19C3 18.4477 3.44772 18 4 18H20C20.5523 18 21 18.4477 21 19C21 19.5523 20.5523 20 20 20H4C3.44772 20 3 19.5523 3 19Z" fill="currentColor"></path>
  </symbol>
  <symbol fill="none" xmlns="http://www.w3.org/2000/svg" viewBox="0 0 18 18" id="ic_nature">
    <path d="M13.5 5.25C13.5 5.4468 13.4874 5.64065 13.4629 5.83078C14.8284 6.60343 15.75 8.0691 15.75 9.75C15.75 12.2353 13.7353 14.25 11.25 14.25C10.724 14.25 10.2192 14.1598 9.75 13.9939V16.5H8.25V13.8002C7.68743 14.0878 7.05017 14.25 6.375 14.25C4.09682 14.25 2.25 12.4032 2.25 10.125C2.25 9.03555 2.67234 8.04473 3.36223 7.30739C3.65794 8.1174 4.12308 8.8458 4.71432 9.44917L5.78568 8.39932C5.24303 7.84552 4.84279 7.15325 4.64295 6.38016C4.54955 6.01906 4.5 5.6403 4.5 5.25C4.5 2.76472 6.51472 0.75 9 0.75C11.4853 0.75 13.5 2.76472 13.5 5.25Z" fill="currentColor"></path>
  </symbol>
  <symbol fill="none" xmlns="http://www.w3.org/2000/svg" viewBox="0 0 18 18" id="ic_parking">
    <path d="M4.5 2.25H9.75C12.2353 2.25 14.25 4.26472 14.25 6.75C14.25 9.23527 12.2353 11.25 9.75 11.25H7.5V15.75H4.5V2.25ZM7.5 5.25V8.25H9.75C10.5785 8.25 11.25 7.57845 11.25 6.75C11.25 5.92157 10.5785 5.25 9.75 5.25H7.5Z" fill="currentColor"></path>
  </symbol>
  <symbol fill="none" xmlns="http://www.w3.org/2000/svg" viewBox="0 0 20 20" id="ic_pdf">
    <path d="M3.33208 1.6665C2.87291 1.6665 2.5 2.03655 2.5 2.493V17.5067C2.5 17.9538 2.87063 18.3332 3.32783 18.3332H16.6722C17.1292 18.3332 17.5 17.9573 17.5 17.4936L17.4998 5.83317L13.3333 1.6665H3.33208ZM8.75 6.24984H10.4167C10.4167 8.32479 12.203 10.5502 14.4302 11.2926L14.0488 12.9082C11.4362 12.5349 8.73508 13.6502 6.29558 15.2766L5.31275 13.9324C6.21791 13.2083 7.08577 11.9796 7.72916 10.5443C8.37025 9.11425 8.75 7.56441 8.75 6.24984ZM9.25 11.2262C9.47275 10.7292 9.67025 10.2134 9.83642 9.69025C10.2295 10.2941 10.7127 10.8483 11.2585 11.3293C10.4403 11.4758 9.63883 11.7162 8.86275 12.0228C9 11.7618 9.12925 11.4955 9.25 11.2262Z" fill="currentColor"></path>
  </symbol>
  <symbol fill="none" xmlns="http://www.w3.org/2000/svg" viewBox="0 0 18 18" id="ic_pedestrian">
    <path d="M5.71358 6.53425L8.11738 4.7878C8.38123 4.59551 8.70726 4.48907 9.04948 4.5006C9.88303 4.5211 10.615 5.06751 10.8697 5.86527C11.0094 6.30323 11.1368 6.59877 11.252 6.75187C11.9362 7.66162 13.0249 8.25 14.2509 8.25V9.75C12.6199 9.75 11.1626 9.00622 10.1997 7.83945L9.67648 10.8064L11.2223 12.1035L12.8897 16.6845L11.4802 17.1975L9.95023 12.9942L7.40755 10.8606C6.99689 10.5286 6.77428 9.9894 6.87247 9.43253L7.25392 7.26923L6.74629 7.63807L5.15103 9.8337L3.9375 8.95208L5.70085 6.525L5.71358 6.53425ZM10.1259 4.125C9.29744 4.125 8.62588 3.45343 8.62588 2.625C8.62588 1.79657 9.29744 1.125 10.1259 1.125C10.9543 1.125 11.6259 1.79657 11.6259 2.625C11.6259 3.45343 10.9543 4.125 10.1259 4.125ZM7.89718 14.011L5.48672 16.8837L4.33766 15.9195L6.56904 13.2602L7.12893 11.625L8.47228 12.75L7.89718 14.011Z" fill="currentColor"></path>
  </symbol>
  <symbol fill="none" xmlns="http://www.w3.org/2000/svg" viewBox="0 0 20 20" id="ic_phone">
    <path d="M17.5 13.6833V16.6301C17.5 17.0676 17.1617 17.4306 16.7254 17.4614C16.3609 17.4872 16.0636 17.5 15.8333 17.5C8.4695 17.5 2.5 11.5305 2.5 4.16667C2.5 3.93642 2.51288 3.63906 2.53863 3.27458C2.56948 2.83823 2.93245 2.5 3.36988 2.5H6.31675C6.53065 2.5 6.7098 2.66202 6.73127 2.87483C6.75056 3.06589 6.76848 3.21928 6.78506 3.33502C6.95362 4.51227 7.29794 5.6328 7.79058 6.66919C7.86966 6.83554 7.81809 7.03466 7.66821 7.14172L5.86962 8.4265C6.9646 10.9843 9.01575 13.0354 11.5735 14.1304L12.8559 12.3349C12.9643 12.1832 13.1658 12.1311 13.3342 12.211C14.3705 12.7032 15.4909 13.0472 16.668 13.2153C16.783 13.2318 16.9354 13.2496 17.1252 13.2687C17.338 13.2902 17.5 13.4694 17.5 13.6833Z" fill="currentColor"></path>
  </symbol>
  <symbol fill="none" xmlns="http://www.w3.org/2000/svg" viewBox="0 0 24 24" id="ic_plus">
    <path d="M11 11V5H13V11H19V13H13V19H11V13H5V11H11Z" fill="currentColor"></path>
  </symbol>
  <symbol fill="none" xmlns="http://www.w3.org/2000/svg" viewBox="0 0 18 18" id="ic_public_transport">
    <path d="M12.75 15H5.25V15.75C5.25 16.1642 4.91421 16.5 4.5 16.5H3C2.58579 16.5 2.25 16.1642 2.25 15.75V9H1.5V6H2.25V3.75C2.25 2.92157 2.92157 2.25 3.75 2.25H14.25C15.0785 2.25 15.75 2.92157 15.75 3.75V6H16.5V9H15.75V15.75C15.75 16.1642 15.4142 16.5 15 16.5H13.5C13.0858 16.5 12.75 16.1642 12.75 15.75V15ZM3.75 3.75V9H14.25V3.75H3.75ZM5.625 13.5C6.24632 13.5 6.75 12.9963 6.75 12.375C6.75 11.7537 6.24632 11.25 5.625 11.25C5.00368 11.25 4.5 11.7537 4.5 12.375C4.5 12.9963 5.00368 13.5 5.625 13.5ZM12.375 13.5C12.9963 13.5 13.5 12.9963 13.5 12.375C13.5 11.7537 12.9963 11.25 12.375 11.25C11.7537 11.25 11.25 11.7537 11.25 12.375C11.25 12.9963 11.7537 13.5 12.375 13.5Z" fill="currentColor"></path>
  </symbol>
  <symbol fill="none" xmlns="http://www.w3.org/2000/svg" viewBox="0 0 21 21" id="ic_scroll_down">
    <path d="M11.2515 1.75H9.74846C7.98631 1.75 7.04133 1.99367 6.18578 2.45122C5.33023 2.90878 4.65878 3.58023 4.20123 4.43578C3.74367 5.29133 3.5 6.23631 3.5 7.99847V13.0015C3.5 14.7637 3.74367 15.7087 4.20123 16.5642C4.65878 17.4198 5.33023 18.0912 6.18578 18.5488C7.04133 19.0063 7.98631 19.25 9.74846 19.25H11.2515C13.0137 19.25 13.9587 19.0063 14.8142 18.5488C15.6698 18.0912 16.3412 17.4198 16.7988 16.5642C17.2563 15.7087 17.5 14.7637 17.5 13.0015V7.99847C17.5 6.23631 17.2563 5.29133 16.7988 4.43578C16.3412 3.58023 15.6698 2.90878 14.8142 2.45122C13.9587 1.99367 13.0137 1.75 11.2515 1.75ZM9.625 9.625V5.25H11.375V9.625H9.625ZM6.78808 12.0382L8.02553 10.8008L10.5004 13.2757L12.9753 10.8008L14.2127 12.0382L10.5004 15.7505L6.78808 12.0382Z" fill="currentColor"></path>
  </symbol>
  <symbol fill="none" xmlns="http://www.w3.org/2000/svg" viewBox="0 0 18 18" id="ic_success">
    <path d="M9 16.5C13.1421 16.5 16.5 13.1421 16.5 9C16.5 4.85786 13.1421 1.5 9 1.5C4.85786 1.5 1.5 4.85786 1.5 9C1.5 13.1421 4.85786 16.5 9 16.5ZM13.0928 7.09283L8.25 11.9356L5.09467 8.78032L6.15533 7.71968L8.25 9.81435L12.0322 6.03217L13.0928 7.09283Z" fill="currentColor"></path>
  </symbol>
  <symbol fill="none" xmlns="http://www.w3.org/2000/svg" viewBox="0 0 26 26" id="ic_tg">
    <path d="M2.3269 12.7934C8.01155 10.3167 11.8022 8.68394 13.6988 7.89504C19.1142 5.64261 20.2395 5.25134 20.9729 5.23842C21.1342 5.23558 21.4949 5.27556 21.7285 5.46514C21.9258 5.62521 21.98 5.84146 22.0061 5.99322C22.032 6.145 22.0643 6.49073 22.0387 6.76087C21.7452 9.84429 20.4754 17.3269 19.8294 20.7804C19.5561 22.2417 19.0179 22.7316 18.4968 22.7796C17.3644 22.8838 16.5044 22.0312 15.4077 21.3123C13.6915 20.1873 12.7219 19.4869 11.0559 18.389C9.13069 17.1204 10.3788 16.423 11.4759 15.2835C11.7631 14.9852 16.7525 10.447 16.8491 10.0353C16.8611 9.98381 16.8723 9.79188 16.7583 9.69054C16.6443 9.58919 16.4761 9.62385 16.3546 9.65142C16.1825 9.69049 13.4407 11.5026 8.12936 15.088C7.35113 15.6223 6.64623 15.8828 6.01467 15.8691C5.31841 15.854 3.97911 15.4754 2.98347 15.1518C1.76229 14.7548 0.791708 14.5449 0.876224 13.8708C0.920244 13.5197 1.4038 13.1606 2.3269 12.7934Z" fill="currentColor"></path>
  </symbol>
  <symbol fill="none" xmlns="http://www.w3.org/2000/svg" viewBox="0 0 14 14" id="ic_tooltip">
    <path d="M7.0013 12.8327C3.77964 12.8327 1.16797 10.221 1.16797 6.99935C1.16797 3.77769 3.77964 1.16602 7.0013 1.16602C10.2229 1.16602 12.8346 3.77769 12.8346 6.99935C12.8346 10.221 10.2229 12.8327 7.0013 12.8327ZM6.41797 8.74935V9.91602H7.58464V8.74935H6.41797ZM7.58464 7.78982C8.42796 7.53882 9.04297 6.75756 9.04297 5.83268C9.04297 4.7051 8.12889 3.79102 7.0013 3.79102C6.0108 3.79102 5.18502 4.49638 4.9989 5.4322L6.1431 5.66105C6.2229 5.25998 6.57681 4.95768 7.0013 4.95768C7.48454 4.95768 7.8763 5.34943 7.8763 5.83268C7.8763 6.31592 7.48454 6.70768 7.0013 6.70768C6.67913 6.70768 6.41797 6.96884 6.41797 7.29102V8.16602H7.58464V7.78982Z" fill="currentColor"></path>
  </symbol>
  <symbol fill="none" xmlns="http://www.w3.org/2000/svg" viewBox="0 0 18 18" id="ic_user">
    <path d="M3 16.5C3 13.1863 5.68629 10.5 9 10.5C12.3137 10.5 15 13.1863 15 16.5H3ZM9 9.75C6.51375 9.75 4.5 7.73625 4.5 5.25C4.5 2.76375 6.51375 0.75 9 0.75C11.4862 0.75 13.5 2.76375 13.5 5.25C13.5 7.73625 11.4862 9.75 9 9.75Z" fill="currentColor"></path>
  </symbol>
</svg>