<svg width="576" height="518" viewBox="0 0 576 518" fill="none" xmlns="http://www.w3.org/2000/svg">
<path d="M0.329014 264.341C10.934 262.789 21.5075 265.341 31.4874 268.808C42.2114 272.532 54.6202 277.02 63.8679 283.633C64.2784 283.925 64.023 284.501 63.5344 284.423C53.4355 282.806 43.7855 276.617 34.4107 272.742C23.3568 268.175 12.2702 265.933 0.396622 264.832C0.1366 264.809 0.0305099 264.384 0.329014 264.341Z" fill="#8F8F8F"/>
<path d="M69.2442 285.083C71.9015 285.484 74.5169 285.907 77.2081 286.011C79.3967 286.095 81.6075 285.387 83.7122 285.991C84.1798 286.125 84.1914 286.691 83.8369 286.948C81.7731 288.455 78.6038 288.084 76.1634 287.893C73.6319 287.696 71.1728 286.996 68.9095 285.873C68.4338 285.638 68.7976 285.016 69.2442 285.083Z" fill="#8F8F8F"/>
<path d="M88.5395 284.484C99.0045 278.718 110.623 274.868 121.934 271.139C127.889 269.176 134.013 267.642 140.111 266.207C146.318 264.746 152.869 262.902 159.275 262.927C160.062 262.929 160.12 263.967 159.45 264.224C154.178 266.25 148.4 267.097 142.926 268.486C136.836 270.031 130.787 271.774 124.774 273.594C112.755 277.231 100.796 281.722 88.5558 284.527C88.5325 284.531 88.515 284.497 88.5395 284.484Z" fill="#8F8F8F"/>
<path d="M163.003 268.997C166.753 278.542 168.53 288.989 170.831 298.966C172.786 307.448 176.384 316.214 177.187 324.846C177.241 325.436 176.346 325.65 176.083 325.145C172.12 317.526 170.729 307.874 168.802 299.526C166.489 289.511 163.634 279.28 162.511 269.064C162.478 268.762 162.909 268.757 163.003 268.997Z" fill="#8F8F8F"/>
<path d="M0.686516 265.288C10.3657 274.752 19.379 284.922 28.4611 294.953C36.8962 304.271 46.9636 313.896 53.4642 324.685C53.6613 325.013 53.2298 325.295 52.9628 325.071C43.3408 316.981 35.2999 305.86 27.0013 296.411C18.0532 286.223 8.77285 276.294 0.104645 265.867C-0.226505 265.468 0.301731 264.913 0.686516 265.288Z" fill="#8F8F8F"/>
<path d="M67.4088 291.203C74.4189 297.611 77.5742 309.42 79.7628 318.322C79.8118 318.522 79.5354 318.645 79.4305 318.462C74.4655 309.814 72.4437 300.044 66.8013 291.672C66.5448 291.294 67.0963 290.918 67.4088 291.203Z" fill="#8F8F8F"/>
<path d="M85.6408 328.785C87.4983 331.888 88.5093 335.241 90.0985 338.471C90.46 339.208 89.3488 339.855 88.9966 339.115C87.4178 335.802 86.3976 332.393 85.4741 328.856C85.4484 328.755 85.5872 328.697 85.6408 328.785Z" fill="#8F8F8F"/>
<path d="M90.8778 339.217C98.5829 342.767 106.891 341.471 114.87 340.001C115.163 339.947 115.36 340.265 115.158 340.495C110.003 346.363 95.9535 344.385 90.2097 340.358C89.5101 339.866 90.1048 338.862 90.8778 339.217Z" fill="#8F8F8F"/>
<path d="M90.2623 294.134C90.2623 294.023 90.2623 293.912 90.2623 293.802C90.2623 293.655 90.4893 293.655 90.4893 293.802C90.4893 293.912 90.4893 294.023 90.4893 294.134C90.4893 294.28 90.2623 294.28 90.2623 294.134Z" fill="#8F8F8F"/>
<path d="M90.4547 294.088C95.7625 301.097 99.3456 311.346 102.219 319.64C102.291 319.848 101.981 320.041 101.837 319.862C99.58 317.021 98.1726 313.689 96.8107 310.354C94.6314 305.015 91.9239 299.678 90.288 294.159C90.2565 294.052 90.3964 294.011 90.4547 294.088Z" fill="#8F8F8F"/>
<path d="M104.483 325.183C106.034 327.132 107.583 329.07 108.941 331.158C110.279 333.217 112.145 335.422 112.576 337.883C112.616 338.106 112.373 338.392 112.141 338.218C110.319 336.855 109.317 334.621 108.161 332.702C106.73 330.329 105.452 327.891 104.125 325.46C104.007 325.24 104.317 324.973 104.483 325.183Z" fill="#8F8F8F"/>
<path d="M116.494 341.75C125.111 336.387 134.39 333.969 144.347 332.241C154.002 330.566 163.972 328.467 173.718 327.582C174.629 327.499 174.645 328.772 173.917 329.058C164.952 332.575 154.432 332.956 144.984 334.551C135.377 336.174 125.721 338.516 116.669 342.165C116.422 342.266 116.284 341.881 116.494 341.75Z" fill="#8F8F8F"/>
<path d="M55.6935 326.795C60.8916 328.092 65.8682 329.833 70.8145 331.885C75.0658 333.648 80.138 335.388 83.3469 338.768C83.6151 339.052 83.3504 339.51 82.9715 339.415C78.4916 338.298 74.3487 335.426 70.1091 333.56C65.2258 331.411 60.3401 329.455 55.6597 326.879C55.6107 326.853 55.6434 326.783 55.6935 326.795Z" fill="#8F8F8F"/>
<path d="M81.0385 281.046C91.296 273.531 103.132 268.491 114.99 264.077C124.753 260.441 136.257 255.816 146.879 256.336C147.522 256.367 147.718 257.354 147.037 257.499C124.163 262.369 101.805 270.038 81.5679 281.951C80.9721 282.301 80.5057 281.437 81.0385 281.046Z" fill="#8F8F8F"/>
<path d="M125.778 266.573C133.756 262.204 144.047 259.462 153.189 260.351C153.431 260.375 153.514 260.733 153.249 260.799C143.963 263.129 134.958 262.758 126.145 267.204C125.729 267.414 125.363 266.801 125.778 266.573Z" fill="#8F8F8F"/>
<path d="M152.476 256.417C153.435 256.238 154.367 255.948 155.324 255.757C156.04 255.613 156.889 255.379 157.414 256.02C157.543 256.178 157.537 256.345 157.414 256.503C156.893 257.171 155.925 256.977 155.168 256.986C154.264 256.996 153.369 256.909 152.476 256.769C152.299 256.741 152.303 256.449 152.476 256.417Z" fill="#8F8F8F"/>
<path d="M156.921 256.685C157.298 257.562 157.432 258.602 157.61 259.54C157.81 260.582 158.331 261.423 157.86 262.446C157.758 262.666 157.487 262.675 157.299 262.593C156.254 262.138 156.172 261.001 155.973 259.99C155.777 259.001 155.666 257.752 156.048 256.8C156.178 256.47 156.737 256.258 156.921 256.685Z" fill="#8F8F8F"/>
<path d="M86.2097 280.154C94.3555 276.743 102.374 270.891 111.435 270.411C111.776 270.392 111.831 270.904 111.514 270.992C102.726 273.432 94.8394 277.465 86.3555 280.682C86.0196 280.807 85.8925 280.287 86.2097 280.154Z" fill="#8F8F8F"/>
<path d="M5.40575 264.675C4.89154 264.067 4.35284 263.484 3.79315 262.919C3.2906 262.409 2.75888 261.992 2.45454 261.335C2.37526 261.165 2.53382 261.008 2.70406 261.087C3.36053 261.393 3.77799 261.923 4.25955 262.454C4.81225 263.061 5.33461 263.694 5.836 264.345C6.0249 264.589 5.60631 264.91 5.40575 264.675Z" fill="#8F8F8F"/>
<path d="M3.60748 261.694C15.3855 260.373 27.8351 263.934 38.7199 268.051C44.4194 270.206 49.9033 273.021 55.6541 274.978C59.2209 276.192 63.7789 277.147 65.9477 280.47C66.1238 280.742 65.8288 281.16 65.5105 281.039C56.3385 277.564 47.4406 273.26 38.2489 269.759C26.9524 265.459 15.6257 262.945 3.60634 261.785C3.54804 261.779 3.54918 261.701 3.60748 261.694Z" fill="#8F8F8F"/>
<path d="M7.77354 261.924C7.46921 261.295 7.06459 260.768 6.53639 260.309C5.89741 259.753 6.97247 258.803 7.49485 259.57C7.92627 260.202 8.25626 260.898 8.43932 261.643C8.53377 262.032 7.95777 262.309 7.77354 261.924Z" fill="#8F8F8F"/>
<path d="M65.1575 278.894C66.0694 279.209 66.9579 279.574 67.8534 279.931C68.7675 280.296 69.9814 280.423 70.7568 281.013C71.0203 281.212 70.9212 281.566 70.5959 281.608C69.6969 281.724 68.7162 281.105 67.9199 280.723C66.9369 280.249 65.9959 279.701 65.0339 279.186C64.8777 279.101 64.985 278.835 65.1575 278.894Z" fill="#8F8F8F"/>
<path d="M66.3536 279.659C61.7956 277.424 57.1409 275.846 52.394 274.109C48.7992 272.794 44.7321 272.105 41.3961 270.241C40.8469 269.933 41.1116 269.113 41.7074 269.095C50.0958 268.844 59.3948 275.663 66.3991 279.581C66.4516 279.61 66.4061 279.685 66.3536 279.659Z" fill="#8F8F8F"/>
<path d="M51.346 272.214C43.8869 269.66 36.2297 267.673 28.5794 265.769C21.9074 264.109 13.6718 263.637 7.63413 260.352C7.23768 260.135 7.47206 259.638 7.84169 259.589C14.6536 258.687 22.6548 261.75 29.1857 263.568C36.8383 265.7 44.147 268.7 51.4929 271.687C51.8101 271.817 51.6865 272.331 51.346 272.214Z" fill="#8F8F8F"/>
<path d="M10.0816 255.463C21.2848 254.597 31.9795 259.426 42.0026 263.847C51.2107 267.908 64.2923 271.96 70.5714 280.256C70.7859 280.541 70.3895 280.809 70.1353 280.692C66.1148 278.846 62.5526 275.763 58.6838 273.549C53.7282 270.712 48.4542 268.423 43.1873 266.239C32.2337 261.695 21.9389 257.279 10.0816 255.736C9.9102 255.714 9.90204 255.476 10.0816 255.463Z" fill="#8F8F8F"/>
<path d="M10.5042 255.506C11.6819 256.6 12.7302 257.821 13.4321 259.272C13.7108 259.851 12.8969 260.345 12.5634 259.781C11.7857 258.466 11.0033 257.172 9.99003 256.022C9.67987 255.671 10.1579 255.184 10.5042 255.506Z" fill="#8F8F8F"/>
<path d="M65.9298 284.098C68.6548 279.174 76.8064 279.118 81.0624 281.672C81.1907 281.749 81.1778 281.971 81.0192 282.006C78.6406 282.518 76.7493 282.015 74.3018 281.759C71.0649 281.421 68.734 282.571 66.0848 284.253C65.9857 284.317 65.8761 284.194 65.9298 284.098Z" fill="#8F8F8F"/>
<path d="M81.4682 282.047C82.1328 282.121 82.6226 282.508 83.1228 282.931C83.6393 283.37 84.5512 283.787 84.6584 284.549C84.7062 284.889 84.4451 285.302 84.0451 285.162C83.546 284.988 83.0633 284.329 82.8627 283.845C82.5759 283.155 81.9136 282.737 81.3866 282.241C81.3201 282.179 81.3679 282.037 81.4682 282.047Z" fill="#8F8F8F"/>
<path d="M87.4434 281.931C86.6132 282.042 85.7806 282.272 85.0157 282.613C84.3802 282.897 83.8497 283.341 83.1279 283.312C82.9052 283.304 82.7058 283.041 82.8527 282.831C83.2888 282.212 83.9803 282.042 84.6729 281.797C85.5894 281.474 86.4791 281.194 87.4445 281.066C87.9961 280.992 87.9879 281.859 87.4434 281.931Z" fill="#8F8F8F"/>
<path d="M82.6315 281.084C82.1243 281.152 81.813 281.529 81.3629 281.717C81.16 281.801 81.0282 281.539 81.1052 281.383C81.3769 280.833 82.0508 280.598 82.6315 280.583C82.9638 280.574 82.9405 281.043 82.6315 281.084Z" fill="#8F8F8F"/>
<path d="M43.5926 209.913C45.3894 220.946 49.2758 232.584 55.4126 241.973C61.9668 252.001 75.1417 258.04 86.2177 261.341C110.446 268.562 132.969 250.262 145.355 231.381C145.638 230.95 146.43 231.219 146.228 231.749C137.715 254.255 110.597 269.541 87.0351 264.608C75.0181 262.092 62.9661 254.757 54.861 245.665C46.6779 236.483 43.9541 221.799 42.9653 210C42.9361 209.642 43.5343 209.559 43.5926 209.913Z" fill="#8F8F8F"/>
<path d="M93.1824 205.116C94.1338 200.523 100.411 199.876 104.243 199.846C109.592 199.803 114.861 201.474 118.672 205.268C126.477 213.042 124.049 227.327 113.812 231.478C102.424 236.095 90.3069 231.917 89.0605 218.741C88.1521 209.133 94.3344 197.576 105.386 200.698C105.81 200.818 105.719 201.45 105.283 201.459C95.7604 201.66 90.6078 206.993 91.0963 216.619C91.628 227.101 100.741 231.765 110.309 229.37C120.716 226.765 123.31 214.996 116.836 207.105C114.072 203.735 109.633 202.726 105.524 202.268C100.751 201.736 97.5211 203.056 93.4844 205.348C93.32 205.441 93.1474 205.289 93.1824 205.116Z" fill="#8F8F8F"/>
<path d="M86.6696 218.288C84.9567 217.986 83.2298 218.055 81.5029 218.185C79.9953 218.3 78.2497 219.005 76.8586 218.284C76.4914 218.094 76.3887 217.486 76.721 217.212C77.9664 216.18 79.9591 216.509 81.5041 216.499C83.3487 216.488 85.2109 216.627 86.9984 217.103C87.775 217.31 87.438 218.424 86.6696 218.288Z" fill="#8F8F8F"/>
<path d="M71.3925 206.331C74.8591 211.242 77.9339 216.159 77.3579 222.402C76.9066 227.27 72.4035 230.838 68.2711 232.662C58.2573 237.08 49.2311 227.937 47.7258 218.35C46.5073 210.582 52.3362 203.887 59.6786 202.337C67.1353 200.763 77.0349 206.824 76.3854 215.12C76.3178 215.977 75.1273 216.192 74.8638 215.327C72.9981 209.171 68.46 204.542 61.7262 204.834C55.7655 205.092 50.9078 210.265 50.6081 216.069C50.4169 219.759 52.4236 223.239 54.6134 226.033C57.7652 230.056 61.0674 231.892 66.2025 230.692C70.5168 229.684 74.2329 226.399 75.413 222.14C76.7795 217.209 73.3911 210.665 70.9599 206.585C70.792 206.302 71.2094 206.071 71.3925 206.331Z" fill="#8F8F8F"/>
<path d="M79.3469 238.949C83.4012 240.581 87.6432 241.367 92.0122 241.518C94.9868 241.62 97.9286 241.143 100.805 240.438C103.909 239.676 106.501 237.722 109.59 237.124C110.188 237.007 110.768 237.611 110.413 238.194C105.356 246.494 85.1479 246.86 78.7044 240.054C78.287 239.611 78.6963 238.686 79.3469 238.949Z" fill="#8F8F8F"/>
<path d="M89.2233 247.624C90.0803 247.918 90.9712 248.15 91.8807 248.153C92.6537 248.156 93.7988 248.325 93.604 249.356C93.414 250.371 91.8433 250.248 91.1309 250.141C90.1141 249.99 89.1627 249.696 88.4911 248.88C88.0585 248.352 88.4444 247.358 89.2233 247.624Z" fill="#8F8F8F"/>
<path d="M63.6676 176.596C63.8868 165.941 75.2777 150.547 86.6242 150.271C93.3382 150.106 95.3694 157.973 94.9111 163.199C94.355 169.567 91.2032 177.028 97.9661 181.36C103.136 184.671 109.229 179.738 113.629 177.503C114.257 177.185 115.101 177.862 114.658 178.531C111.293 183.608 103.815 185.902 98.0792 184.338C89.9171 182.115 90.6797 172.317 91.8282 165.964C92.6759 161.283 93.0945 153.447 86.6242 152.822C83.0504 152.477 79.4089 155.231 76.818 157.344C71.4997 161.682 64.5864 169.41 64.0768 176.594C64.0594 176.856 63.6618 176.862 63.6676 176.596Z" fill="#8F8F8F"/>
<path d="M79.6236 167.326C85.9959 164.369 87.9292 171.186 88.5892 176.321C89.2608 181.548 89.473 187.436 93.2929 191.507C96.7198 195.159 103.203 191.59 107.368 191.507C107.9 191.497 108.303 192.268 107.834 192.635C102.381 196.908 94.1126 197.626 89.7995 191.594C87.3707 188.197 86.9556 183.652 86.6932 179.622C86.4075 175.23 86.8308 165.295 79.9035 167.991C79.5198 168.143 79.2517 167.5 79.6236 167.326Z" fill="#8F8F8F"/>
<path d="M101.609 172.719C108.775 177.064 116.712 169.475 118.932 162.876C120.028 159.623 119.428 155.31 118.704 152.055C118.353 150.48 117.696 149.04 116.904 147.643C114.558 143.498 111.001 147.699 109.267 150.065C108.775 150.737 107.676 150.144 108.125 149.399C109.977 146.326 114.249 141.034 118.285 144.476C122.789 148.317 123.362 155.955 122.708 161.412C121.753 169.373 107.973 182.774 101.015 173.311C100.75 172.949 101.256 172.505 101.609 172.719Z" fill="#8F8F8F"/>
<path d="M64.5441 179.775C68.315 175.248 77.7901 169.601 83.0862 174.746C83.3929 175.044 83.0745 175.518 82.6862 175.431C76.497 174.055 69.9346 176.386 65.1877 180.419C64.7377 180.803 64.1675 180.228 64.5441 179.775Z" fill="#8F8F8F"/>
<path d="M74.1413 182.228C74.4841 181.506 74.926 180.459 75.8903 180.635C76.1562 180.684 76.1002 181.041 75.8903 181.118C75.3015 181.333 75.0951 182.014 74.891 182.542C74.6765 183.098 73.8859 182.765 74.1413 182.228Z" fill="#8F8F8F"/>
<path d="M61.0309 181.192C56.2129 177.986 52.3498 184.384 50.553 188.059C50.4014 188.368 49.907 188.215 49.9164 187.887C50.0388 183.213 57.1527 175.648 61.4728 180.62C61.7305 180.916 61.3935 181.434 61.0309 181.192Z" fill="#8F8F8F"/>
<path d="M52.6353 189.72C51.1673 190.176 50.2473 191.115 49.4182 192.367C48.6731 193.491 48.7221 194.95 47.9152 196.016C47.7461 196.239 47.4535 196.257 47.2867 196.016C46.284 194.569 47.2436 192.519 48.1566 191.262C49.164 189.875 50.9189 189.283 52.5804 189.317C52.8148 189.323 52.8557 189.651 52.6353 189.72Z" fill="#8F8F8F"/>
<path d="M47.9994 195.149C48.5836 196.848 48.5439 198.646 47.638 200.233C46.8602 201.595 44.9852 203.956 43.2852 203.912C42.7768 203.899 42.4118 203.429 42.5378 202.931C42.8619 201.654 44.4116 200.948 45.3327 200.094C46.7739 198.759 47.7721 197.162 47.8653 195.168C47.8688 195.089 47.9749 195.077 47.9994 195.149Z" fill="#8F8F8F"/>
<path d="M61.082 180.581C52.6936 177.381 51.1533 186.385 49.3775 192.502C48.1858 196.603 45.8876 199.916 41.9173 201.699C39.4779 202.793 35.7618 202.985 33.7528 200.866C31.036 197.998 31.872 194.513 33.3621 191.218C33.5009 190.911 34.0268 191.059 33.9988 191.39C33.5616 196.501 35.4762 201.967 41.5511 199.297C46.3773 197.176 47.2308 191.546 48.6522 187.083C50.6239 180.893 54.8041 174.897 61.4691 179.666C61.8971 179.973 61.6499 180.798 61.082 180.581Z" fill="#8F8F8F"/>
<path d="M60.3861 173.684C56.1907 172.09 51.4648 165.988 46.8579 170.388C44.8232 172.331 43.8484 175.251 42.1157 177.442C39.3336 180.96 34.9248 181.472 32.3631 177.351C32.0424 176.833 32.5776 176.058 33.1863 176.281C34.5633 176.784 36.3975 178.006 37.8679 177.748C39.5936 177.444 40.8074 174.806 41.598 173.493C42.7931 171.508 43.9673 169.148 45.9053 167.763C51.1582 164.007 57.7485 168.459 61.0822 172.781C61.4064 173.202 60.8665 173.867 60.3861 173.684Z" fill="#8F8F8F"/>
<path d="M62.8901 163.737C61.569 161.748 59.546 161.046 57.2489 160.892C55.5757 160.779 53.8908 161.377 52.2502 161.159C51.7639 161.095 51.4958 160.475 51.9855 160.183C53.7392 159.137 56.6449 159.192 58.5922 159.521C60.9627 159.92 62.8446 160.957 64.1879 162.98C64.7254 163.788 63.423 164.541 62.8901 163.737Z" fill="#8F8F8F"/>
<path d="M61.8777 156.184C61.5524 156.147 61.2247 156.109 60.8994 156.077C60.5543 156.045 60.3118 156.146 59.9888 155.965C59.8547 155.891 59.7567 155.728 59.7637 155.573C59.8103 154.558 61.0778 154.271 61.8777 154.18C63.1673 154.031 63.172 156.327 61.8777 156.184Z" fill="#8F8F8F"/>
<path d="M76.2405 148.364C75.668 147.702 75.0489 147.163 74.2117 146.87C73.4537 146.606 72.4836 146.694 71.8668 146.142C71.7 145.994 71.6954 145.678 71.8668 145.531C72.5897 144.909 73.7779 145.124 74.6291 145.356C75.7287 145.654 76.6475 146.375 77.3995 147.205C78.1096 147.99 76.9296 149.162 76.2405 148.364Z" fill="#8F8F8F"/>
<path d="M83.653 148.676C85.0429 146.769 87.2106 145.21 89.6347 145.031C91.7464 144.876 94.6451 145.726 94.8504 148.171C94.8737 148.437 94.5542 148.685 94.3023 148.589C92.5836 147.936 91.6275 146.74 89.6347 146.727C87.6478 146.714 85.7787 147.9 84.5101 149.339C84.1043 149.802 83.2857 149.18 83.653 148.676Z" fill="#8F8F8F"/>
<path d="M123.969 191.952C129.771 191.993 133.738 188.159 138.727 185.888C139.088 185.724 139.481 186.152 139.169 186.461C135.179 190.417 129.594 192.611 123.969 192.407C123.676 192.396 123.675 191.949 123.969 191.952Z" fill="#8F8F8F"/>
<path d="M127.669 141.477C133.964 145.663 135.609 153.668 134.626 160.845C133.832 166.642 130.526 177.212 123.305 177.712C122.667 177.757 122.344 176.887 122.79 176.468C124.929 174.453 127.203 173.152 128.94 170.671C130.812 167.998 131.798 164.754 132.507 161.607C134.044 154.787 132.718 146.634 127.559 141.619C127.485 141.548 127.582 141.419 127.669 141.477Z" fill="#8F8F8F"/>
<path d="M120.737 140.776C120.749 140.85 120.796 140.893 120.876 140.905C121.601 141.277 121.079 142.554 120.317 142.233C119.761 141.999 119.348 141.598 119.262 140.975C119.109 139.892 120.636 139.689 120.737 140.776Z" fill="#8F8F8F"/>
<path d="M82.3564 142.212C83.3533 138.175 88.0571 137.378 91.6321 137.104C94.9051 136.853 102.185 136.83 104.44 139.768C104.65 140.042 104.365 140.471 104.046 140.454C98.5105 140.155 86.5762 135.343 83.1878 142.564C82.9627 143.046 82.2363 142.697 82.3564 142.212Z" fill="#8F8F8F"/>
<path d="M76.6268 144.086C74.2365 141.125 68.8657 141.664 65.7396 143.077C65.3852 143.237 64.9514 142.898 65.1788 142.516C67.554 138.518 74.9372 140.466 77.0559 143.755C77.2226 144.012 76.8239 144.328 76.6268 144.086Z" fill="#8F8F8F"/>
<path d="M64.5347 151.788C64.1429 151.75 63.8327 151.676 63.5669 151.37C63.3162 151.082 63.3162 150.719 63.5669 150.431C63.8327 150.124 64.1429 150.051 64.5347 150.012C65.6785 149.899 65.6785 151.9 64.5347 151.788Z" fill="#8F8F8F"/>
<path d="M101.288 205.066C103.828 208.149 106.873 210.917 109.268 214.098C111.423 216.959 114.273 220.318 115.366 223.744C115.51 224.194 114.962 224.617 114.563 224.361C111.697 222.515 110.261 218.804 108.4 216.03C105.972 212.409 103.43 208.897 101.144 205.175C101.092 205.089 101.222 204.985 101.288 205.066Z" fill="#8F8F8F"/>
<path d="M99.7983 205.655C103.533 211.868 109.608 217.243 112.367 223.958C112.504 224.293 111.983 224.588 111.758 224.313C109.675 221.775 107.974 218.885 106.009 216.243C103.546 212.931 101.226 209.606 99.3284 205.931C99.1651 205.618 99.6164 205.352 99.7983 205.655Z" fill="#8F8F8F"/>
<path d="M93.639 221.106C94.8692 222.974 96.1215 224.846 97.2514 226.774C97.3703 226.977 97.094 227.185 96.9284 227.022C95.3123 225.433 94.3655 223.284 93.2076 221.358C93.0385 221.079 93.4618 220.838 93.639 221.106Z" fill="#8F8F8F"/>
<path d="M61.2629 205.762C65.3533 212.892 72.3122 218.374 75.893 225.742C76.0213 226.006 75.6773 226.323 75.4639 226.073C70.2308 219.953 64.4182 213.246 61.1627 205.822C61.1335 205.755 61.2256 205.696 61.2629 205.762Z" fill="#8F8F8F"/>
<path d="M58.2193 207.195C62.5242 214.704 68.8977 221.054 72.4949 228.945C72.5917 229.156 72.3083 229.331 72.1801 229.128C67.537 221.826 62.0893 214.955 57.9044 207.379C57.7913 207.173 58.1015 206.991 58.2193 207.195Z" fill="#8F8F8F"/>
<path d="M60.0711 219.063C62.044 223.488 66.4935 226.042 68.618 230.306C68.6728 230.415 68.5247 230.55 68.4396 230.443C65.5525 226.844 61.7536 223.445 60.0302 219.081C60.0197 219.056 60.0606 219.04 60.0711 219.063Z" fill="#8F8F8F"/>
<path d="M152.876 161.118C151.176 167.627 145.879 172.343 139.321 173.765C139 173.835 138.792 173.395 139.094 173.224C144.301 170.263 149.706 166.499 152.21 160.837C152.382 160.45 152.978 160.731 152.876 161.118Z" fill="#8F8F8F"/>
<path d="M161.729 174.502C158.7 177.756 154.336 184.19 149.204 183.759C148.64 183.711 148.488 183.069 148.929 182.74C150.702 181.42 152.827 180.605 154.649 179.319C156.948 177.697 159.122 175.857 161.247 174.018C161.578 173.732 162.033 174.176 161.729 174.502Z" fill="#8F8F8F"/>
<path d="M157.137 196.2C156.838 196.677 156.572 197.183 156.121 197.53C155.571 197.957 154.963 198.28 154.33 198.568C153.38 199.001 151.956 199.396 151.093 198.591C150.876 198.389 150.887 198.096 150.998 197.846C151.355 197.042 152.383 196.772 153.128 196.477C154.127 196.082 155.201 195.725 156.14 195.204C156.76 194.858 157.536 195.563 157.137 196.2Z" fill="#8F8F8F"/>
<path d="M155.843 208.069C155.11 208.069 154.31 208.193 153.667 207.77C153.433 207.615 153.433 207.295 153.667 207.14C154.308 206.716 155.108 206.84 155.843 206.84C156.637 206.839 156.637 208.069 155.843 208.069Z" fill="#8F8F8F"/>
<path d="M155.18 215.096C154.04 215.081 152.352 215.224 151.799 213.992C151.695 213.761 151.735 213.509 151.962 213.368C152.886 212.799 154.136 213.105 155.18 213.092C156.472 213.078 156.472 215.114 155.18 215.096Z" fill="#8F8F8F"/>
<path d="M154.183 218.581C153.795 218.573 153.409 218.572 153.023 218.597C152.622 218.623 152.264 218.763 151.861 218.73C151.648 218.714 151.425 218.461 151.585 218.25C152.144 217.518 153.345 217.598 154.185 217.578C154.829 217.564 154.829 218.594 154.183 218.581Z" fill="#8F8F8F"/>
<path d="M151.196 223.788C150.67 223.787 150.053 223.762 149.619 223.43C149.361 223.233 149.2 222.965 149.293 222.628C149.386 222.289 149.807 221.983 150.166 222.132C150.517 222.278 150.818 222.329 151.196 222.33C152.135 222.334 152.135 223.791 151.196 223.788Z" fill="#8F8F8F"/>
<path d="M102.083 263.9C102.154 265.843 102.197 267.778 102.197 269.722C102.197 271.19 99.9201 271.19 99.9201 269.722C99.9201 267.778 99.9632 265.843 100.034 263.9C100.081 262.579 102.035 262.579 102.083 263.9Z" fill="#8F8F8F"/>
<path d="M100.48 271.254C94.6729 273.364 88.6224 274.915 82.544 276.029C77.0205 277.042 70.8254 278.899 65.1982 278.202C64.6525 278.134 64.2829 277.365 64.8869 277.056C69.9299 274.486 76.2766 274.284 81.8012 273.335C87.9648 272.276 94.1785 271.333 100.393 270.628C100.774 270.583 100.793 271.138 100.48 271.254Z" fill="#8F8F8F"/>
<path d="M103.049 266.403C102.815 266.403 102.815 266.039 103.049 266.039C103.283 266.04 103.283 266.403 103.049 266.403Z" fill="#8F8F8F"/>
<path d="M169.459 296.9C166.283 296.848 163.463 295.176 160.504 294.164C157.013 292.969 153.214 292.819 149.804 291.463C149.015 291.149 148.949 290.084 149.804 289.793C153.556 288.519 157.724 290.007 161.313 291.231C164.432 292.296 167.96 293.506 169.716 296.455C169.829 296.645 169.683 296.904 169.459 296.9Z" fill="#8F8F8F"/>
<path d="M171.139 301.27C168.254 302.084 165.168 302.081 162.219 302.607C159.217 303.143 156.084 304.033 153.021 303.717C152.374 303.65 152.17 302.912 152.699 302.529C157.103 299.329 166.056 297.806 171.139 299.908C171.749 300.16 171.87 301.063 171.139 301.27Z" fill="#8F8F8F"/>
<path d="M172.421 306.343C170.445 308.921 167.656 310.333 164.673 311.521C161.504 312.783 157.798 314.398 154.336 313.698C153.73 313.576 153.702 312.742 154.173 312.45C156.751 310.85 160.055 310.431 162.906 309.437C165.974 308.366 168.763 306.675 171.803 305.54C172.231 305.38 172.709 305.966 172.421 306.343Z" fill="#8F8F8F"/>
<path d="M173.429 311.679C172.981 313.301 172.203 314.573 170.644 315.359C169.166 316.106 167.097 316.613 165.605 315.663C165.123 315.356 165.148 314.715 165.605 314.404C167.681 312.99 170.966 313.672 172.512 311.295C172.818 310.825 173.584 311.116 173.429 311.679Z" fill="#8F8F8F"/>
<path d="M23.0969 287.174C25.9828 288.57 29.0436 288.8 32.2036 288.913C34.4493 288.993 36.6473 288.701 38.7018 289.736C39.0015 289.887 38.9968 290.37 38.7018 290.523C34.131 292.884 26.3361 291.397 21.9694 289.101C20.6856 288.427 21.8131 286.554 23.0969 287.174Z" fill="#8F8F8F"/>
<path d="M22.6293 290.033C25.1946 292.047 27.7854 293.978 30.6982 295.457C33.97 297.119 37.6325 297.96 41.0513 299.263C41.3871 299.392 41.3708 299.965 40.9604 299.935C34.1858 299.439 25.9502 296.36 22.4148 290.2C22.332 290.055 22.5139 289.942 22.6293 290.033Z" fill="#8F8F8F"/>
<path d="M29.6315 296.886C32.4066 298.461 35.1491 300.081 37.9779 301.56C40.9011 303.088 44.1683 304.162 46.7137 306.292C47.0309 306.557 46.6858 307.018 46.3383 306.94C43.1107 306.21 40.1339 304.375 37.2212 302.855C34.3271 301.346 31.6114 299.624 29.3272 297.279C29.1278 297.075 29.382 296.745 29.6315 296.886Z" fill="#8F8F8F"/>
<path d="M33.6724 301.269C35.7515 302.859 37.5774 304.687 39.534 306.419C41.8043 308.425 44.4267 309.837 46.7622 311.722C47.056 311.959 46.8263 312.551 46.4404 312.499C41.072 311.788 36.226 305.803 33.1746 301.767C32.9588 301.483 33.3879 301.051 33.6724 301.269Z" fill="#8F8F8F"/>
<path d="M132.776 199.688C135.478 201.497 138.072 200.771 141.071 201.112C141.386 201.149 141.625 201.624 141.255 201.791C138.286 203.126 134.802 202.221 132.363 200.224C132.06 199.978 132.455 199.473 132.776 199.688Z" fill="#8F8F8F"/>
<path d="M140.876 212.229C141.578 212.073 142.343 211.828 143.061 211.886C143.348 211.91 143.621 212.117 143.608 212.433C143.579 213.109 143.109 213.428 142.517 213.648C141.958 213.857 141.443 213.759 140.876 213.634C140.178 213.481 140.18 212.385 140.876 212.229Z" fill="#8F8F8F"/>
<path d="M78.5125 336.441C82.4992 345.862 80.5974 359.325 78.8064 369.093C78.5662 370.404 76.6329 369.83 76.83 368.547C78.4787 357.835 78.5603 347.343 78.0881 336.555C78.0788 336.341 78.4228 336.229 78.5125 336.441Z" fill="#8F8F8F"/>
<path d="M78.9261 371.116C91.3046 376.388 103.472 378.754 116.959 378.551C123.094 378.459 129.229 377.762 135.227 376.484C138.891 375.703 142.252 373.878 145.86 373.122C146.438 373.002 147.007 373.602 146.658 374.159C144.831 377.081 140.061 377.891 136.995 378.664C130.949 380.189 124.645 380.803 118.432 381.084C105.661 381.662 88.59 380.567 78.6509 371.473C78.4433 371.284 78.7069 371.022 78.9261 371.116Z" fill="#8F8F8F"/>
<path d="M146.26 333.288C146.878 340.231 146.467 347.278 146.916 354.245C147.358 361.12 149.554 367.978 149.679 374.797C149.69 375.427 148.796 375.675 148.49 375.119C145.516 369.713 145.365 362.258 144.836 356.209C144.176 348.664 143.681 340.608 144.873 333.099C145.006 332.26 146.193 332.552 146.26 333.288Z" fill="#8F8F8F"/>
<path d="M94.5669 393.375C94.2567 393.182 93.9279 393.07 93.5757 393.037C92.6791 392.906 93.1676 391.327 94.0876 391.821C96.6225 393.183 98.9791 395 101.285 396.714C103.236 398.164 105.228 399.644 106.37 401.83C106.555 402.184 106.19 402.533 105.841 402.36C103.722 401.303 102.025 399.61 100.196 398.125C97.9507 396.301 95.4577 394.768 93.2819 392.866C93.6527 392.768 94.0235 392.67 94.3931 392.572C94.575 392.369 94.7546 392.426 94.933 392.745C95.3096 393.022 94.9959 393.585 94.5669 393.375Z" fill="#8F8F8F"/>
<path d="M103.559 398.407C106.824 405.078 107.91 412.407 109.043 419.68C110 425.825 113.905 432.485 112.608 438.713C112.478 439.339 111.593 439.261 111.422 438.713C107.338 425.695 107.08 411.701 102.476 398.863C102.251 398.231 103.265 397.806 103.559 398.407Z" fill="#8F8F8F"/>
<path d="M148.622 373.665C149.909 374.518 150.155 378.663 150.441 379.969C151.877 386.538 153.217 393.13 154.582 399.714C157.022 411.469 159.831 423.33 161.415 435.229C161.493 435.817 160.562 436.033 160.312 435.527C158.631 432.126 158.041 428.293 157.316 424.603C155.959 417.709 154.621 410.8 153.468 403.869C152.346 397.126 151.241 390.381 150.092 383.643C149.696 381.314 149.815 375.851 148.404 373.882C148.31 373.753 148.493 373.579 148.622 373.665Z" fill="#8F8F8F"/>
<path d="M160.069 438.551C155.077 448.535 143.016 452.401 132.599 452.844C127.556 453.059 111.955 451.734 113.304 443.76C113.345 443.522 113.68 443.395 113.873 443.529C119.899 447.685 125.119 449.625 132.599 449.569C143.391 449.49 151.82 445.554 159.031 437.751C159.565 437.174 160.392 437.906 160.069 438.551Z" fill="#8F8F8F"/>
<path d="M77.9546 368.489C78.8397 378.872 77.4801 389.165 76.3455 399.48C75.7777 404.647 75.0944 409.793 74.6431 414.975C74.256 419.436 74.6781 424.1 73.3185 428.389C73.1658 428.87 72.5093 428.861 72.3531 428.389C69.5464 419.902 72.6096 408.162 73.7745 399.48C75.1609 389.152 76.5985 378.855 77.6818 368.489C77.6993 368.314 77.9395 368.312 77.9546 368.489Z" fill="#8F8F8F"/>
<path d="M73.7053 429.562C79.3931 433.163 83.2597 437.338 90.1905 438.735C97.2706 440.162 102.996 436.344 109.695 435.92C110.258 435.884 110.528 436.637 110.146 437.009C100.656 446.218 78.837 441.829 73.1456 430.124C72.9754 429.776 73.3333 429.326 73.7053 429.562Z" fill="#8F8F8F"/>
<path d="M138.529 451.765C139.671 456.418 140.182 461.266 140.943 465.994C141.774 471.149 143.212 476.328 143.229 481.569C143.231 482.077 142.438 482.363 142.21 481.845C140.117 477.058 139.555 471.732 138.702 466.611C137.901 461.808 136.997 456.848 137.006 451.971C137.01 451.105 138.319 450.906 138.529 451.765Z" fill="#8F8F8F"/>
<path d="M91.513 440.427C92.0692 444.43 92.0832 448.493 92.2721 452.528C92.4901 457.195 93.4766 462.442 92.0424 466.941C91.8477 467.553 91.0116 467.544 90.8122 466.941C89.5261 463.048 89.9913 458.614 89.9587 454.538C89.9214 449.833 89.7453 445.057 90.6781 440.426C90.7609 440.023 91.4547 440 91.513 440.427Z" fill="#8F8F8F"/>
<path d="M142.74 479.876C146.216 482.591 148.137 487.142 150.119 490.989C152.397 495.412 155.277 499.671 156.827 504.416C156.882 504.583 156.674 504.662 156.561 504.571C152.977 501.718 151.036 497.601 148.88 493.64C146.568 489.391 143.436 484.855 142.322 480.121C142.26 479.857 142.549 479.727 142.74 479.876Z" fill="#8F8F8F"/>
<path d="M157.17 505.199C158.811 510.495 152.497 514.425 148.36 516.009C145.596 517.066 133.544 518.685 134.19 512.925C134.222 512.644 134.427 512.321 134.759 512.356C136.103 512.499 137.154 513.403 138.424 513.828C140.722 514.596 143.569 514.226 145.881 513.768C149.911 512.97 157.272 510.773 156.512 505.38C156.452 504.955 157.036 504.766 157.17 505.199Z" fill="#8F8F8F"/>
<path d="M133.473 510.485C132.817 510.179 131.108 509.199 132.024 508.281C132.357 507.949 132.822 508.207 133.081 508.476C133.508 508.92 133.579 509.594 133.814 510.141C133.916 510.375 133.71 510.597 133.473 510.485Z" fill="#8F8F8F"/>
<path d="M131.077 505.62C131.128 501.254 134.234 496.954 135.632 492.86C137.026 488.779 138.847 484.513 141.123 480.86C141.473 480.299 142.492 480.482 142.438 481.216C142.12 485.577 139.21 489.374 137.871 493.478C136.564 497.486 134.915 503.072 131.698 505.879C131.468 506.078 131.073 505.955 131.077 505.62Z" fill="#8F8F8F"/>
<path d="M91.6179 465.485C88.8288 470.528 82.5171 473.914 77.8729 477.137C73.07 480.469 65.7334 484.661 59.6934 483.247C59.0649 483.1 58.9938 482.228 59.5197 481.915C64.1686 479.145 69.9253 478.447 74.7736 475.7C77.6187 474.088 80.2341 472.062 82.8856 470.159C85.4135 468.345 88.6527 467.027 90.9743 464.988C91.3194 464.685 91.85 465.066 91.6179 465.485Z" fill="#8F8F8F"/>
<path d="M59.5866 483.093C62.1262 488.504 67.8035 488.869 73.1404 489.587C76.7458 490.073 80.2135 490.476 83.855 490.358C89.003 490.191 92.9406 488.055 97.733 486.744C98.3568 486.573 98.7941 487.352 98.3533 487.809C91.7909 494.607 79.8066 492.883 71.4403 491.717C67.596 491.18 56.6132 489.499 59.1691 483.147C59.2344 482.987 59.491 482.893 59.5866 483.093Z" fill="#8F8F8F"/>
<path d="M93.519 465.348C98.0339 470.427 100.389 479.863 99.8563 486.528C99.7584 487.742 97.9557 487.777 97.9429 486.528C97.9044 482.619 97.3004 479.016 96.167 475.287C95.1713 472.022 93.4724 468.884 93.2858 465.445C93.2788 465.327 93.4409 465.26 93.519 465.348Z" fill="#8F8F8F"/>
<path d="M136.587 138.259C147.694 138.703 147.971 158.479 141.955 164.522C141.595 164.885 140.826 164.519 141.041 163.991C143.872 157.03 147.126 141.029 136.538 138.617C136.337 138.57 136.382 138.251 136.587 138.259Z" fill="#8F8F8F"/>
<path d="M155.104 147.177C156.868 151.786 157.568 159.173 151.615 160.941C151.326 161.027 151.047 160.612 151.305 160.408C155.694 156.916 156.668 152.513 154.928 147.226C154.891 147.113 155.062 147.07 155.104 147.177Z" fill="#8F8F8F"/>
<path d="M98.9484 191.458C101.269 189.715 104.102 188.396 107.014 188.069C109.04 187.843 113.43 187.718 113.968 190.375C114.039 190.729 113.803 191.149 113.397 191.124C112.416 191.065 111.876 190.556 110.935 190.235C109.563 189.766 107.938 190.003 106.551 190.245C104.166 190.66 101.749 191.471 99.5698 192.521C98.8434 192.87 98.3222 191.93 98.9484 191.458Z" fill="#8F8F8F"/>
<path d="M53.0404 194.965C55.3212 189.483 64.4465 188.122 68.6978 191.943C69.1152 192.319 68.8412 192.912 68.3958 193.085C66.185 193.943 63.7865 192.35 61.5034 192.219C58.3587 192.04 56.3309 194.936 53.4322 195.357C53.2258 195.389 52.9355 195.218 53.0404 194.965Z" fill="#8F8F8F"/>
<path d="M283.709 73.2418C277.373 93.4719 257.786 102.508 248.679 121.046C243.65 131.284 237.899 152.46 253.889 156.07C254.787 156.273 255.322 155.071 254.518 154.579C238.953 145.075 249.185 124.427 256.999 112.892C261.688 105.968 268.58 101.144 274.237 95.0743C279.981 88.9148 283.417 81.6925 284.281 73.3178C284.315 72.9795 283.803 72.9407 283.709 73.2418Z" fill="#8F8F8F"/>
<path d="M255.712 135.588C251.008 142.818 259.343 149.72 263.89 154.512C270.094 161.051 271.542 169.196 264.978 176.282C255.881 186.106 247.227 175.993 239.164 171.63C238.383 171.208 237.653 172.034 238.009 172.785C244.656 186.844 264.035 187.954 271.634 174.394C274.531 169.224 273.755 162.136 270.655 157.288C267.038 151.635 252.328 143.806 255.915 135.706C255.973 135.572 255.796 135.46 255.712 135.588Z" fill="#8F8F8F"/>
<path d="M277.546 168.519C277.971 174.31 277.908 180.835 273.617 185.274C269.587 189.442 263.653 188.763 258.592 190.386C257.856 190.621 257.83 191.677 258.592 191.902C264.213 193.561 271.513 191.449 275.477 187.135C280.04 182.168 279.477 174.521 278.461 168.397C278.377 167.877 277.509 167.997 277.546 168.519Z" fill="#8F8F8F"/>
<path d="M369.522 149.967C368.167 155.389 370.688 159.068 376.252 159.561C380.152 159.907 388.577 158.251 389.904 153.824C390.128 153.078 389.423 152.576 388.758 152.677C387.219 152.913 385.869 153.97 384.445 154.554C382.744 155.252 380.924 155.759 379.123 156.11C374.508 157.012 370.659 155.303 370.953 150.16C370.998 149.334 369.719 149.179 369.522 149.967Z" fill="#8F8F8F"/>
<path d="M356.706 158.699C356.705 159.847 357.353 160.421 358.201 161.068C358.854 161.566 360.06 162.046 360.843 161.588C361.791 161.033 361.133 159.656 360.563 159.085C359.965 158.487 359.078 158.1 358.414 157.718C357.669 157.29 356.709 157.833 356.706 158.699Z" fill="#8F8F8F"/>
<path d="M292.769 120.707C292.361 128.355 295.798 134.424 299.829 140.671C302.141 144.255 304.492 147.781 306.46 151.571C309.092 156.638 308.749 161.341 308.817 166.814C308.827 167.663 309.83 167.796 310.28 167.21C314.678 161.501 311.522 153.959 308.481 148.351C303.601 139.349 295.038 131.353 293.99 120.71C293.914 119.93 292.811 119.908 292.769 120.707Z" fill="#8F8F8F"/>
<path d="M300.932 152.823C305.474 155.436 305.738 161.589 305.067 166.213C304.31 171.44 302.15 174.048 298.352 177.332C297.752 177.851 298.298 178.652 298.929 178.725C304.487 179.367 307.592 170.852 307.964 166.605C308.453 161.006 307.524 153.847 302.05 150.913C300.795 150.241 299.693 152.11 300.932 152.823Z" fill="#8F8F8F"/>
<path d="M388.374 64.7824C387.994 69.8925 390.058 73.0795 394.159 75.9729C396.638 77.7215 399.376 79.0631 401.769 80.9369C403.634 82.3963 405.214 84.525 406.538 86.4316C406.655 92.0008 404.549 94.0624 400.219 92.6164C399.197 92.2273 398.147 91.965 397.066 91.8293C396.346 91.6952 395.654 92.4092 396.079 93.1128C400.623 100.644 414.961 94.2383 410.141 86.2169C407.772 82.2741 404.437 79.0915 400.479 76.7839C394.989 73.5849 389.284 72.3118 388.782 64.7809C388.763 64.52 388.392 64.52 388.374 64.7824Z" fill="#8F8F8F"/>
<path d="M401.848 73.7128C402.44 77.4515 406.954 80.2793 410.358 81.0395C413.906 81.8311 417.916 80.2987 419.939 77.2771C421.714 74.6222 422.144 71.4276 421.041 68.4164C420.198 66.1119 417.074 62.4463 414.337 64.0532C413.914 64.3037 413.841 64.7911 414.034 65.2085C414.841 66.9422 416.94 67.4013 417.681 69.3422C418.441 71.3337 417.858 73.683 416.8 75.4405C415.348 77.848 412.095 78.3697 409.586 77.7749C406.653 77.0803 405.014 74.3017 402.347 73.209C402.028 73.0793 401.805 73.446 401.848 73.7128Z" fill="#8F8F8F"/>
<path d="M297.422 88.8864C291.37 94.943 297.938 107.93 305.761 108.885C306.557 108.982 306.788 107.93 306.357 107.444C302.347 102.908 295.63 96.143 298.298 89.3962C298.5 88.8879 297.769 88.5391 297.422 88.8864Z" fill="#8F8F8F"/>
<path d="M281.527 73.2967C282.895 75.8309 279.643 80.3178 278.198 82.2841C275.739 85.6277 273.535 88.4823 269.403 89.7732C266.385 90.7168 262.828 90.2681 262.814 86.5385C262.804 83.2605 265.63 82.2587 267.23 80.0316C267.52 79.6262 267.121 79.1387 266.702 79.1119C263.382 78.8928 260.481 83.6287 260.189 86.5385C259.766 90.7616 262.852 93.2689 266.871 93.3419C272.519 93.4463 277.223 88.9847 279.93 84.4873C281.579 81.7474 284.626 75.7534 282.125 72.8376C281.833 72.5007 281.33 72.9315 281.527 73.2967Z" fill="#8F8F8F"/>
<path d="M269.528 195.546C263.573 199.807 256.423 201.388 249.196 201.532C241.335 201.688 235.846 198.638 229.482 194.651C228.99 194.342 228.479 194.937 228.725 195.408C235.525 208.408 261.237 204.534 269.741 195.821C269.874 195.682 269.693 195.429 269.528 195.546Z" fill="#8F8F8F"/>
<path d="M261.529 204.273C252.331 208.543 242.36 210.008 232.625 212.514C228.633 213.541 219.456 215.644 220.025 221.312C220.073 221.793 220.732 222.255 221.118 221.765C230.375 210.035 250.511 214.274 261.952 204.822C262.28 204.552 261.861 204.118 261.529 204.273Z" fill="#8F8F8F"/>
<path d="M393.11 81.9C392.649 82.1788 391.958 82.4024 391.424 82.474C391.033 82.5261 390.661 82.4993 390.276 82.6066C389.957 82.6961 389.638 82.7855 389.31 82.8317C388.935 82.8854 388.9 83.3788 389.104 83.6099C389.896 84.5058 390.756 84.7428 391.917 84.5058C392.992 84.2866 393.647 83.589 394.007 82.5887C394.194 82.0745 393.545 81.6347 393.11 81.9Z" fill="#8F8F8F"/>
<path d="M391.141 85.2077C390.096 85.2941 388.978 84.7441 388.061 85.4402C387.765 85.6653 387.765 86.0201 388.061 86.2452C389.051 86.9935 390.361 86.4002 391.318 85.8591C391.608 85.6951 391.496 85.1793 391.141 85.2077Z" fill="#8F8F8F"/>
<path d="M388.713 88.0261C388.638 88.0619 388.564 88.0976 388.491 88.1334C387.641 88.5419 387.641 89.9744 388.491 90.3829C388.565 90.4186 388.64 90.4544 388.713 90.4902C389.665 90.9478 390.859 90.4067 390.859 89.2589C390.861 88.1096 389.665 87.5684 388.713 88.0261Z" fill="#8F8F8F"/>
<path d="M341.054 66.0242C341.474 66.8649 342.954 68.296 343.822 67.1526C344.715 65.9794 343.145 64.3859 341.959 64.447C341.136 64.4888 340.69 65.2982 341.054 66.0242Z" fill="#8F8F8F"/>
<path d="M400.237 81.2464C397.729 94.907 398.187 108.331 393.457 121.672C388.067 136.876 376.286 147.503 361.366 153.056C345.953 158.792 329.706 157.441 316.927 146.687C304.45 136.19 299.836 120.955 294.765 106.177C294.307 104.847 292.08 104.977 292.19 106.525C293.337 122.585 301.673 139.301 313.531 150.083C326.007 161.427 342.674 163.344 358.432 158.829C374.151 154.326 387.136 144.24 394.539 129.622C401.46 115.957 404.569 96.353 401.923 81.2464C401.773 80.4057 400.39 80.4131 400.237 81.2464Z" fill="#8F8F8F"/>
<path d="M371.436 124.268C366.774 120.017 360.393 118.978 354.346 118.111C350.927 117.621 347.522 117.192 344.164 116.358C338.887 115.05 337.236 111.378 333.368 108.362C332.699 107.839 331.639 108.115 331.628 109.082C331.566 115.167 338.053 118.456 343.168 119.972C352.283 122.674 361.308 121.624 370.094 126.006C371.175 126.543 372.411 125.155 371.436 124.268Z" fill="#8F8F8F"/>
<path d="M343.375 118.975C347.485 117.964 349.141 111.374 348.987 107.758C348.825 103.894 346.765 100.233 343.862 97.7551C341.364 95.6234 337.952 94.3593 334.716 95.3939C331.497 96.4239 328.458 101.123 329.735 104.445C329.996 105.122 330.801 105.241 331.226 104.639C332.885 102.285 332.465 98.9596 335.811 98.0085C338.153 97.3437 340.814 98.9089 342.491 100.389C344.755 102.385 346.125 105.265 346.309 108.263C346.417 110.05 345.966 111.827 345.232 113.445C344.5 115.06 343.004 116.559 342.694 118.294C342.621 118.707 342.94 119.082 343.375 118.975Z" fill="#8F8F8F"/>
<path d="M354.36 73.9935C354.36 78.4685 351.322 82.0953 347.571 82.0953C343.825 82.0953 340.787 78.4685 340.787 73.9935C340.787 69.5184 343.825 65.8916 347.571 65.8916C351.322 65.8916 354.36 69.5184 354.36 73.9935Z" fill="#8F8F8F"/>
<path d="M390.034 87.5752C390.034 91.606 387.529 94.8736 384.441 94.8736C381.352 94.8736 378.848 91.606 378.848 87.5752C378.848 83.5474 381.352 80.2769 384.441 80.2769C387.529 80.2769 390.034 83.5474 390.034 87.5752Z" fill="#8F8F8F"/>
<path d="M398.182 69.8729C388.14 53.0341 364.085 48.4399 346.07 47.1504C336.145 46.4409 326.159 46.739 316.442 49.0033C308.764 50.7937 298.164 55.2344 294.99 63.0456C294.722 63.7059 295.628 64.3514 296.188 63.9668C299.341 61.7993 301.795 58.9015 305.031 56.7683C309.269 53.9748 314.256 52.499 319.152 51.372C327.898 49.3581 337.169 49.5683 346.071 50.096C364.272 51.1738 384.754 56.6013 397.498 70.4021C397.837 70.7703 398.434 70.2962 398.182 69.8729Z" fill="#8F8F8F"/>
<path d="M403.34 72.9321C409.475 68.8387 415.587 56.867 414.922 49.3584C414.567 45.3381 410.077 41.2968 407.704 38.466C403.197 33.0921 397.764 28.5575 392.21 24.3135C375.861 11.8231 350.98 7.47474 331.007 10.8765C309.539 14.5346 293.895 33.8792 280.075 49.0663C275.716 53.8558 259.233 73.2362 275.713 72.8978C276.594 72.8799 276.555 71.6486 275.713 71.5592C263.055 70.219 283.485 49.7967 287.063 45.9716C300.437 31.673 314.569 16.1192 335.045 13.3778C351.639 11.1567 370.265 15.3634 384.868 23.3058C393.436 27.9671 400.832 35.3311 407.014 42.7726C411.331 47.9721 412.076 50.6598 409.858 56.8446C407.929 62.226 405.269 67.0334 402.221 71.817C401.793 72.4938 402.658 73.3867 403.34 72.9321Z" fill="#8F8F8F"/>
<path d="M314.101 18.8216C312.312 15.49 308.244 15.3573 305.153 16.8226C301.632 18.4922 299.412 22.2592 299.545 26.1006C299.573 26.9548 300.205 29.5307 301.627 28.6974C302.229 28.3441 302.249 27.7628 302.311 27.1367C302.441 25.8636 302.04 24.8604 302.469 23.5397C303.664 19.8592 309.221 17.091 312.125 20.3466C313.108 21.4497 314.757 20.0425 314.101 18.8216Z" fill="#8F8F8F"/>
<path d="M380.076 55.0709C376.385 58.5472 372.512 60.7996 367.697 62.3454C363.719 63.6229 359.54 63.4605 355.466 64.1238C355.191 64.1685 355.186 64.6456 355.466 64.6858C365.016 66.0632 374.019 62.4095 380.529 55.5241C380.814 55.223 380.377 54.7862 380.076 55.0709Z" fill="#8F8F8F"/>
<path d="M359.512 52.8409C356.691 58.1612 347.682 60.8011 342.394 62.6243C332.495 66.0364 321.905 65.0645 311.716 63.9092C311.142 63.8436 311.069 64.7261 311.585 64.8811C322.58 68.1905 335.215 68.9537 345.947 64.0896C350.328 62.104 359.938 58.9393 360.163 53.0168C360.177 52.6725 359.674 52.5353 359.512 52.8409Z" fill="#8F8F8F"/>
<path d="M320.623 58.8345C318.491 59.2519 316.482 59.2564 314.351 58.845C312.591 58.5051 310.959 57.8194 309.156 57.7568C308.563 57.7359 308.283 58.4962 308.684 58.9001C311.735 61.9754 317.237 61.4939 321.025 60.2954C321.963 59.9973 321.574 58.6482 320.623 58.8345Z" fill="#8F8F8F"/>
<path d="M302.854 67.199C301.669 66.394 299.36 66.5654 298.988 68.2186C298.85 68.8283 299.277 69.5289 299.959 69.4946C300.439 69.4708 300.752 69.3366 301.14 69.0608C301.376 68.8954 301.546 68.8805 301.796 69.0072C303.008 69.6243 303.971 67.9562 302.854 67.199Z" fill="#8F8F8F"/>
<path d="M397.598 148.332C397.645 148.51 397.692 148.687 397.738 148.863C397.789 149.058 398.081 149.058 398.132 148.863C398.178 148.686 398.226 148.508 398.272 148.332C398.42 147.769 397.451 147.769 397.598 148.332Z" fill="#8F8F8F"/>
<path d="M330.84 157.053C329.708 159.864 329.4 163.039 328.951 166.021C328.645 168.063 326.867 171.431 328.155 173.245C328.444 173.65 328.842 173.831 329.338 173.726C329.501 173.692 329.663 173.658 329.824 173.623C330.422 173.498 330.871 172.963 331.042 172.405C332.5 167.675 332.898 162.272 333.012 157.347C333.044 156.008 331.278 155.963 330.84 157.053Z" fill="#8F8F8F"/>
<path d="M279.613 188.332C294.605 183.113 310.897 179.836 326.392 176.168C344.732 171.827 363.19 167.997 381.552 163.755C418.346 155.256 456.226 152.525 492.954 143.859C493.805 143.657 493.635 142.235 492.743 142.314C456.006 145.606 419.944 154.647 383.558 160.377C364.9 163.316 346.44 167.276 328.124 171.885C319.133 174.149 310.22 176.624 301.347 179.314C293.84 181.591 286.154 182.692 278.762 185.241C276.821 185.914 277.659 189.013 279.613 188.332Z" fill="#8F8F8F"/>
<path d="M547.221 51.8643C529.618 72.4521 516.23 95.9334 505.094 120.548C499.911 132.002 495.448 143.787 491.234 155.628C486.462 169.035 481.171 183.025 478.66 197.063C478.578 197.514 479.249 197.884 479.458 197.4C484.528 185.711 487.8 173.081 491.959 161.036C496.542 147.761 501.675 134.703 507.286 121.829C518.054 97.1289 531.869 74.001 547.586 52.1491C547.741 51.9314 547.393 51.6646 547.221 51.8643Z" fill="#8F8F8F"/>
<path d="M479.458 197.396C487.09 187.429 492.661 175.65 498.521 164.59C505.016 152.336 511.132 139.891 517.029 127.338C528.205 103.554 540.123 78.7048 547.266 53.3558C547.501 52.515 546.215 51.9292 545.829 52.7505C534.571 76.7133 525.66 101.815 514.541 125.885C508.724 138.477 502.596 150.931 496.268 163.274C490.498 174.524 483.571 185.405 478.659 197.06C478.45 197.557 479.188 197.751 479.458 197.396Z" fill="#8F8F8F"/>
<path d="M547.975 52.0489C545.569 46.0609 544.182 41.969 545.303 35.3309C546.737 26.8385 552.792 28.3546 557.344 23.7498C561.661 19.3821 563.1 11.48 560.636 5.79011C554.087 -9.32391 539.006 9.36328 548.353 14.2885C549.043 14.6522 549.894 14.0589 549.679 13.2689C549.332 12.0674 549.035 10.8525 548.792 9.62563C548.769 5.1029 551.389 3.98936 556.656 6.28352C558.494 9.17694 557.856 13.488 557.104 16.5812C555.46 23.3489 547.22 22.6244 544.319 28.1414C540.603 35.2072 538.768 48.1568 547.078 52.7406C547.503 52.9747 548.189 52.5781 547.975 52.0489Z" fill="#8F8F8F"/>
<path d="M559.134 2.04584C566.009 10.9452 567.018 20.7166 565.113 31.5092C563.243 42.096 557.539 46.4592 548.565 51.0237C547.567 51.5305 548.128 52.9094 549.092 52.9765C571.444 54.5402 576.624 10.4339 559.485 1.58969C559.175 1.4272 558.937 1.79093 559.134 2.04584Z" fill="#8F8F8F"/>
<path d="M428.532 152.458C417.855 160.674 414.86 181.014 418.969 193.212C419.661 195.262 422.765 194.44 422.228 192.315C419.33 180.865 420.271 162.541 429.98 154.334C431.008 153.463 429.607 151.633 428.532 152.458Z" fill="#8F8F8F"/>
<path d="M422.162 192.908C425.458 195.892 429.684 191.443 430.058 188.069C430.098 187.708 429.602 187.434 429.313 187.641C426.996 189.299 425.493 192.455 422.306 192.559C422.136 192.567 422.023 192.784 422.162 192.908Z" fill="#8F8F8F"/>
<path d="M441.662 157.253C439.596 169.524 437.595 180.362 432.451 191.843C430.276 196.698 427.855 201.751 424.233 205.706C418.865 211.566 413.124 201.444 408.184 200.724C406.863 200.532 405.504 202.106 406.739 203.206C409.828 205.958 414.749 211.319 419.316 211.354C424.832 211.398 427.833 207.787 430.575 203.376C438.161 191.183 445.777 171.72 442.222 157.253C442.158 156.986 441.711 156.962 441.662 157.253Z" fill="#8F8F8F"/>
<path d="M410.354 205.124C401.894 204.661 383.605 204.602 378.56 212.888C378.194 213.491 378.794 214.04 379.383 213.956C384.297 213.263 388.812 210.593 393.801 209.674C399.373 208.647 405.23 208.827 410.586 206.84C411.506 206.499 411.366 205.179 410.354 205.124Z" fill="#8F8F8F"/>
<path d="M289.827 183.44C277.015 213.908 273.309 248.597 268.666 281.045C266.026 299.486 263.687 317.975 261.826 336.512C259.909 355.613 257.67 375.542 259.783 394.687C259.886 395.626 261.129 395.62 261.239 394.687C263.375 376.377 263.496 357.8 265.165 339.422C266.839 321.016 269.263 302.696 271.647 284.372C276.03 250.668 280.66 216.264 290.391 183.593C290.5 183.223 289.969 183.104 289.827 183.44Z" fill="#8F8F8F"/>
<path d="M356.135 171.067C356.232 171.067 356.232 170.917 356.135 170.917C356.038 170.917 356.038 171.067 356.135 171.067Z" fill="#8F8F8F"/>
<path d="M342.476 189.77C332.013 189.109 321.824 191.496 311.762 194.149C301.82 196.772 291.705 199.601 282.43 204.097C281.821 204.392 282.283 205.2 282.856 205.107C292.988 203.481 302.692 199.783 312.567 197.068C322.465 194.349 332.569 192.665 342.552 190.341C342.887 190.263 342.792 189.789 342.476 189.77Z" fill="#8F8F8F"/>
<path d="M343.059 190.914C341.552 202.379 343.758 214.355 347.599 225.167C350.727 233.965 356.578 246.249 365.832 249.926C366.659 250.256 367.379 249.161 366.95 248.473C364.39 244.363 360.661 241.11 357.863 237.138C354.64 232.563 352.359 227.348 350.46 222.116C346.78 211.982 345.749 201.339 344.144 190.767C344.043 190.092 343.132 190.358 343.059 190.914Z" fill="#8F8F8F"/>
<path d="M350.218 169.387C350.245 169.372 350.269 169.357 350.296 169.34C350.718 169.088 350.349 168.503 349.919 168.695C346.676 170.136 345.572 178.483 344.701 181.604C343.31 186.583 341.53 192.698 344.159 197.51C344.436 198.017 345.072 197.717 345.135 197.246C345.961 191.025 346.609 185.17 348.228 179.068C348.589 177.704 350.357 169.305 350.218 169.387Z" fill="#8F8F8F"/>
<path d="M341.257 170.478C338.052 175.035 332.965 183.272 334.731 189.116C334.895 189.661 335.792 189.901 336.062 189.29C337.268 186.541 337.319 183.323 338.155 180.404C339.108 177.085 340.364 173.845 341.578 170.615C341.652 170.415 341.365 170.326 341.257 170.478Z" fill="#8F8F8F"/>
<path d="M295.63 182.851C294.348 185.328 293.607 188.113 292.925 190.805C292.41 192.825 291.289 196.014 292.911 197.72C293.15 197.972 293.622 197.99 293.858 197.72C295.231 196.149 294.865 193.408 295.234 191.442C295.748 188.691 296.699 185.971 296.771 183.159C296.784 182.563 295.912 182.308 295.63 182.851Z" fill="#8F8F8F"/>
<path d="M264.067 400.312C264.381 400.265 264.784 400.281 265.03 400.055C265.165 399.929 265.165 399.686 265.03 399.561C264.784 399.333 264.381 399.349 264.067 399.303C263.221 399.174 263.221 400.441 264.067 400.312Z" fill="#8F8F8F"/>
<path d="M263.739 400.481C272.618 402.422 280.765 404.23 289.892 404.801C299.972 405.433 310.091 405.249 320.171 404.758C338.081 403.883 359.194 403.152 376.061 396.578C377.131 396.161 377.072 394.429 375.775 394.463C367.85 394.67 359.991 396.431 352.165 397.59C342.398 399.038 332.567 400.013 322.718 400.682C303.657 401.974 283.01 402.256 264.112 399.133C263.24 398.989 262.848 400.285 263.739 400.481Z" fill="#8F8F8F"/>
<path d="M366.236 248.971C365.049 274.147 365.067 299.333 366.831 324.483C367.673 336.474 368.925 348.431 370.584 360.335C372.103 371.239 372.826 385.476 378.333 395.184C378.822 396.049 380.174 395.661 380.177 394.685C380.204 384.751 376.298 374.118 374.734 364.271C372.643 351.091 371.368 337.786 370.383 324.483C368.52 299.35 367.74 274.141 366.527 248.971C366.519 248.784 366.245 248.784 366.236 248.971Z" fill="#8F8F8F"/>
<path d="M386.019 209.859C377.886 210.384 372.545 221.413 369.463 227.628C366.628 233.349 360.96 245.646 366.094 251.537C366.355 251.837 366.752 251.564 366.79 251.249C368.385 237.874 372.285 217.055 386.224 210.619C386.591 210.449 386.411 209.834 386.019 209.859Z" fill="#8F8F8F"/>
<path d="M279.124 187.629C272.387 193.738 265.901 199.731 259.64 206.367C253.548 212.826 246.051 218.87 241.056 226.205C240.597 226.879 241.478 227.657 242.132 227.282C249.074 223.287 254.481 216.245 259.837 210.392C266.538 203.068 272.726 195.211 279.453 187.959C279.657 187.738 279.346 187.428 279.124 187.629Z" fill="#8F8F8F"/>
<path d="M240.321 227.269C235.818 234.472 240.235 243.913 244.291 250.293C247.519 255.37 256.453 265.015 263.365 262.133C264.235 261.771 264.5 260.672 263.631 260.11C261.311 258.614 258.518 258.173 256.088 256.792C252.938 255.002 250.461 252.179 248.144 249.455C242.869 243.254 240.58 235.358 240.592 227.342C240.592 227.196 240.397 227.148 240.321 227.269Z" fill="#8F8F8F"/>
<path d="M267.266 260.922C267.96 261.106 268.558 261.469 269.287 261.229C270.165 260.941 270.739 260.312 271.048 259.461C271.534 258.118 269.383 257.222 268.748 258.492C268.393 259.203 268.084 260.109 267.266 260.36C266.994 260.443 266.98 260.846 267.266 260.922Z" fill="#8F8F8F"/>
<path d="M269.562 255.399C272.174 254.393 274.091 252.732 275.254 250.173C276.005 248.516 273.616 247.518 272.966 249.208C272.586 250.195 271.973 251.025 271.494 251.958C270.928 253.06 270.154 254.023 269.249 254.864C269.026 255.074 269.257 255.517 269.562 255.399Z" fill="#8F8F8F"/>
<path d="M245.68 250.328C242.927 254.059 240.221 257.868 237.071 261.28C235.826 262.629 237.839 264.652 239.089 263.298C242.269 259.855 245.476 255.355 246.957 250.868C247.223 250.058 246.118 249.735 245.68 250.328Z" fill="#8F8F8F"/>
<path d="M235.477 267.573C241.542 271.993 246.958 277.242 251.916 282.86C254.723 286.04 257.232 289.458 259.778 292.843C261.301 294.871 262.26 297.564 264.777 298.393C265.305 298.566 265.994 298.198 266.104 297.64C267.101 292.516 258.451 285.22 255.313 281.909C249.756 276.045 243.792 269.532 236.593 265.664C235.313 264.974 234.344 266.748 235.477 267.573Z" fill="#8F8F8F"/>
<path d="M263.824 297.824C265.015 302.269 263.129 305.86 259.437 308.336C257.931 309.345 256.332 310.009 254.577 310.435C253.002 310.817 251.134 310.626 249.77 311.583C249.203 311.978 249.156 312.61 249.568 313.138C252.577 316.963 260.154 312.614 262.713 310.235C266.379 306.828 267.692 301.674 265.101 297.286C264.697 296.6 263.618 297.055 263.824 297.824Z" fill="#8F8F8F"/>
<path d="M264.403 297.354C264.418 297.719 264.368 298.095 264.419 298.456C264.489 298.946 264.571 299.425 264.595 299.921C264.629 300.598 264.819 301.899 265.805 301.671C266.779 301.445 266.597 300.143 266.412 299.437C266.159 298.471 265.799 297.748 265.05 297.087C264.814 296.88 264.389 297.002 264.403 297.354Z" fill="#8F8F8F"/>
<path d="M264.334 296.702C264.862 298.292 265.318 299.959 265.66 301.6C265.87 302.611 266.25 304.043 267.602 303.764C268.019 303.678 268.331 303.302 268.452 302.915C268.85 301.63 268.18 300.29 267.684 299.105C267.191 297.925 266.412 296.94 265.6 295.967C265.111 295.382 264.1 296.002 264.334 296.702Z" fill="#8F8F8F"/>
<path d="M265.109 305.891C265.243 309.579 263.177 312.881 260.309 315.067C258.962 316.095 257.408 316.778 255.785 317.228C254.601 317.556 253.318 317.651 252.473 318.629C252.127 319.029 252.139 319.506 252.473 319.905C255.089 323.054 261.271 318.61 263.356 316.735C266.57 313.844 267.888 309.612 266.086 305.626C265.868 305.145 265.091 305.394 265.109 305.891Z" fill="#8F8F8F"/>
<path d="M263.317 305.751C261.454 306.485 257.216 307.183 256.746 304.456C256.453 302.746 253.674 303.451 254.111 305.184C255.175 309.407 261.684 309.693 263.481 305.966C263.532 305.863 263.448 305.699 263.317 305.751Z" fill="#8F8F8F"/>
<path d="M264.73 402.868C262.65 410.366 264.174 419.367 264.522 427.057C264.718 431.346 264.889 435.636 265.025 439.928C265.141 443.671 264.46 446.857 266.538 450.015C266.721 450.294 267.11 450.299 267.292 450.015C270.914 444.372 268.113 433.53 267.735 427.057C267.279 419.269 267.872 410.384 265.685 402.868C265.548 402.4 264.862 402.391 264.73 402.868Z" fill="#8F8F8F"/>
<path d="M268.035 452.857C278.981 459.476 298.301 465.636 308.861 454.786C309.407 454.226 308.854 453.363 308.125 453.521C302.057 454.837 297.003 457.221 290.607 457.48C283.059 457.787 274.984 455.843 268.358 452.304C267.994 452.111 267.681 452.643 268.035 452.857Z" fill="#8F8F8F"/>
<path d="M310.38 450.352C310.977 435.877 310.575 420.884 308.304 406.549C308.073 405.09 305.621 405.433 305.73 406.898C306.815 421.383 307.45 436.09 309.692 450.445C309.756 450.851 310.365 450.727 310.38 450.352Z" fill="#8F8F8F"/>
<path d="M324.3 403C325.086 410.586 327.314 417.976 329.053 425.387C331.011 433.746 332.52 442.183 334.345 450.564C334.725 452.308 337.699 451.942 337.49 450.137C335.694 434.576 331.815 417.303 325.903 402.783C325.587 402.009 324.197 402.006 324.3 403Z" fill="#8F8F8F"/>
<path d="M336.469 453.374C351.613 467.625 378.226 464.441 389.774 447.793C391.244 445.673 387.838 443.77 386.356 445.794C380.398 453.936 372.183 458.231 362.176 458.905C352.977 459.525 345.349 455.534 337.092 452.303C336.483 452.064 336.023 452.955 336.469 453.374Z" fill="#8F8F8F"/>
<path d="M389.197 444.024C387.222 436.527 384.137 429.132 381.219 421.938C377.795 413.501 375.181 404.455 371.401 396.229C370.966 395.284 369.728 396.016 369.858 396.879C371.127 405.36 374.8 413.687 378.233 421.517C381.578 429.15 383.947 437.219 388.027 444.517C388.386 445.16 389.383 444.721 389.197 444.024Z" fill="#8F8F8F"/>
<path d="M270.892 454.41C268.501 460.841 263.029 465.391 257.477 469.107C254.87 470.853 247.746 473.189 247.183 476.631C247.095 477.167 247.25 477.559 247.691 477.88C251.434 480.597 258.47 473.756 261.03 471.482C266.028 467.036 270.551 461.318 272.578 454.874C272.921 453.786 271.28 453.373 270.892 454.41Z" fill="#8F8F8F"/>
<path d="M246.809 479.259C244.014 482.621 246.617 488.491 249.528 490.909C251.041 492.164 253.779 490.488 252.456 488.65C250.412 485.815 247.925 483.117 247.456 479.526C247.417 479.241 247.047 478.973 246.809 479.259Z" fill="#8F8F8F"/>
<path d="M252.178 490.772C258.762 498.396 311.908 496.082 308.798 482.608C308.702 482.184 308.269 481.877 307.843 481.882C304.802 481.91 302.877 484.608 300.231 485.96C295.241 488.509 288.962 489.061 283.487 489.526C278.599 489.942 273.705 490.364 268.812 490.719C263.237 491.123 258.115 489.958 252.649 489.63C252.024 489.59 251.826 490.364 252.178 490.772Z" fill="#8F8F8F"/>
<path d="M311.061 479.396C312.565 473.257 310.322 466.752 308.507 460.904C307.898 458.938 304.797 459.781 305.419 461.755C307.258 467.59 308.178 473.409 309.32 479.396C309.491 480.286 310.857 480.232 311.061 479.396Z" fill="#8F8F8F"/>
<path d="M382.432 453.533C381.074 459.73 384.156 465.685 387.613 470.67C391.29 475.974 396.521 482.819 402.43 485.627C402.973 485.885 403.785 485.457 403.54 484.772C401.79 479.875 397.308 476.445 393.827 472.727C388.343 466.871 385.904 461.041 383.61 453.533C383.443 452.98 382.568 452.916 382.432 453.533Z" fill="#8F8F8F"/>
<path d="M402.081 488.171C401.979 489.031 401.614 489.814 401.324 490.62C401.076 491.304 400.604 491.844 400.559 492.592C400.528 493.102 401.101 493.541 401.587 493.375C403.727 492.648 403.57 489.613 402.841 487.965C402.656 487.549 402.121 487.822 402.081 488.171Z" fill="#8F8F8F"/>
<path d="M400.986 494.189C397.699 496.58 395.115 499.648 391.541 501.687C387.559 503.958 382.634 504.02 378.199 504.043C372.022 504.075 366.558 502.972 361.046 500.176C357.177 498.214 354.417 494.687 350.697 492.679C350.477 492.56 350.138 492.608 350.019 492.856C345.994 501.368 368.659 507.845 373.967 508.394C384.704 509.504 398.459 506.604 401.626 494.681C401.717 494.34 401.309 493.952 400.986 494.189Z" fill="#8F8F8F"/>
<path d="M346.047 456.59C345.239 462.887 345.757 469.465 346.302 475.775C346.793 481.453 346.722 488.62 349.921 493.414C350.197 493.829 350.914 493.817 351.039 493.268C352.463 487.018 349.912 479.904 349.258 473.572C348.668 467.864 348.571 462.029 347.422 456.404C347.249 455.561 346.14 455.874 346.047 456.59Z" fill="#8F8F8F"/>
<path d="M494.925 143.143C495.534 141.63 495.8 140.181 496.692 138.755C497.755 137.054 499.123 135.469 500.76 134.298C501.383 133.852 502.043 133.514 502.781 133.312C503.5 133.117 504.16 133.634 504.891 133.433C506.435 133.008 506.289 131.085 505.035 130.352C501.92 128.527 497.923 131.983 495.985 134.062C494.128 136.057 490.538 140.954 492.983 143.656C493.627 144.37 494.624 143.896 494.925 143.143Z" fill="#8F8F8F"/>
<path d="M494.828 143.677C494.415 144.549 494.813 145.403 495.739 145.667C496.895 145.998 497.271 144.348 496.222 143.915C496.153 143.887 495.77 143.662 495.782 143.677C495.56 143.377 495.025 143.261 494.828 143.677Z" fill="#8F8F8F"/>
<path d="M504.242 149.859C506.322 151.073 509.239 150.064 510.539 148.117C511.766 146.282 511.709 144.013 510.87 142.036C509.987 139.961 508.315 138.274 506.314 137.257C504.601 136.385 500.897 135.352 499.739 137.503C499.485 137.971 499.485 138.694 499.94 139.061C501.21 140.085 502.793 139.411 504.245 140.049C505.578 140.635 506.575 141.692 507.262 142.951C508.994 146.118 505.897 146.721 504.062 148.44C503.632 148.841 503.752 149.572 504.242 149.859Z" fill="#8F8F8F"/>
<path d="M509.397 143.637C512.186 142.714 510.626 137.267 509.698 135.515C508.343 132.957 504.622 130.077 501.87 132.121C501.542 132.365 501.529 132.786 501.87 133.026C502.842 133.709 503.768 133.959 504.843 134.478C506.068 135.068 506.871 136.186 507.474 137.364C508.001 138.398 508.299 139.652 508.387 140.801C508.462 141.773 508.182 142.699 508.857 143.495C508.979 143.635 509.224 143.693 509.397 143.637Z" fill="#8F8F8F"/>
<path d="M510.557 140.71C513.693 136.985 513.208 124.43 506.404 124.857C502.897 125.077 507.666 128.992 508.058 129.694C509.922 133.029 508.735 136.915 509.486 140.427C509.582 140.877 510.249 141.072 510.557 140.71Z" fill="#8F8F8F"/>
<path d="M510.677 137.13C512.991 135.161 514.976 132.36 515.124 129.193C515.274 126.018 514.194 121.985 511.078 120.577C510.099 120.135 508.621 120.87 509.069 122.123C509.981 124.678 511.723 126.269 511.63 129.193C511.548 131.722 510.511 134.268 509.994 136.733C509.909 137.145 510.364 137.397 510.677 137.13Z" fill="#8F8F8F"/>
<path d="M304.173 68.8642C297.23 73.7089 298.475 96.9382 309.664 91.5673C310.334 91.2453 310.243 90.2555 309.664 89.9081C305.689 87.526 303.786 85.7134 303.289 80.8612C302.885 76.9139 303.911 73.2647 305.072 69.5544C305.226 69.0639 304.618 68.5541 304.173 68.8642Z" fill="#8F8F8F"/>
<path d="M269.389 69.9683C272.819 71.614 275.188 73.2627 279.136 73.7278C282.614 74.1392 286.98 75.0068 289.875 72.7127C290.442 72.264 290.191 71.3546 289.659 71.0207C287.337 69.5688 284.603 70.2083 281.94 70.2784C278.127 70.3797 273.195 70.6436 269.524 69.6478C269.338 69.5986 269.207 69.8804 269.389 69.9683Z" fill="#8F8F8F"/>
<path d="M393.119 73.9069C391.994 72.2508 390.671 70.8078 389.045 69.6331C387.845 68.7671 385.709 67.7176 384.428 68.9385C384.099 69.2515 384.244 69.7017 384.558 69.9447C385.044 70.3203 385.655 70.4113 386.244 70.5708C387.051 70.7899 387.762 71.0985 388.486 71.5203C389.872 72.3268 391.065 73.4806 392.114 74.6836C392.591 75.2307 393.529 74.5077 393.119 73.9069Z" fill="#8F8F8F"/>
<path d="M357.632 68.7505C356.14 67.0795 354.005 65.8526 352.291 64.4007C351.25 63.5197 348.512 61.4656 347.398 63.3677C346.339 65.1759 349.166 66.9632 350.329 67.8054C352.231 69.1813 354.266 70.8658 356.706 70.988C357.917 71.0477 358.346 69.5495 357.632 68.7505Z" fill="#8F8F8F"/>
<path d="M549.189 50.063C550.389 48.9211 549.723 45.9576 549.724 44.4967C549.727 42.8853 549.873 41.265 550.124 39.6729C550.338 38.2985 551.245 37.0672 551.11 35.6659C551.078 35.3141 550.803 35.0861 550.447 35.1606C547.8 35.7107 547.521 40.138 547.457 42.2846C547.403 44.1032 547.035 48.6975 548.57 50.0615C548.752 50.224 549.007 50.2344 549.189 50.063Z" fill="#8F8F8F"/>
<path d="M554.395 32.0005C555.206 31.0658 556.143 30.1043 556.312 28.8343C556.333 28.6852 556.105 28.5987 556.014 28.7105C555.268 29.6199 554.501 30.4442 553.612 31.2179C553.071 31.6889 553.925 32.5416 554.395 32.0005Z" fill="#8F8F8F"/>
<path d="M565.732 20.4494C564.862 23.8899 564.75 27.4899 563.943 30.9617C563.025 34.906 560.883 38.2615 559.401 41.9689C559.245 42.3624 559.777 42.5443 560.035 42.3371C565.527 37.9142 567.692 27.0889 566.181 20.4494C566.13 20.2228 565.787 20.2303 565.732 20.4494Z" fill="#8F8F8F"/>
<path d="M573.5 16.9927C574.023 13.6371 572.789 10.9152 572.078 7.72361C571.826 6.59963 571.958 5.66646 572.322 4.58274C572.759 5.34597 572.983 6.15094 572.996 7.00211C573.009 7.42398 573 7.84584 572.966 8.2677C572.911 9.37677 572.677 10.3159 573.646 11.0478C573.753 11.1283 573.949 11.1209 574.056 11.0478C576.311 9.53329 574.786 2.75218 571.529 3.37976C569.573 3.7569 570.07 6.8128 570.307 8.21255C570.818 11.2342 572.871 13.7534 572.698 16.8853C572.674 17.3385 573.428 17.4488 573.5 16.9927Z" fill="#8F8F8F"/>
<path d="M573.304 13.268C573.138 14.149 572.925 15.1299 572.545 15.9438C572.065 16.9753 573.587 17.6089 573.974 16.546C574.392 15.4042 574.192 14.4278 573.976 13.268C573.915 12.9341 573.366 12.9341 573.304 13.268Z" fill="#8F8F8F"/>
<path d="M327.611 233.823C324.552 236.91 321.593 233.502 318.886 231.797C316.039 230.001 312.962 230.194 310.745 232.855C309.629 234.195 311.514 236.135 312.682 234.792C315.295 231.788 318.951 236.02 321.602 237.295C325.05 238.952 327.226 237.52 328.436 234.304C328.618 233.824 327.942 233.489 327.611 233.823Z" fill="#8F8F8F"/>
<path d="M310.785 236.461C310.433 236.98 310.07 237.244 310.085 237.912C310.1 238.482 310.433 239.092 310.707 239.578C311.314 240.656 312.192 241.687 313.447 241.851C313.985 241.921 314.361 241.279 314.234 240.817C313.976 239.87 313.238 239.465 312.591 238.787C312.286 238.466 312.04 238.081 311.882 237.67C311.671 237.129 311.233 236.95 310.984 236.463C310.942 236.379 310.831 236.394 310.785 236.461Z" fill="#8F8F8F"/>
<path d="M314.93 242.986C315.052 243.307 315.237 243.463 315.581 243.496C315.756 243.513 315.762 243.264 315.62 243.21C315.541 243.115 315.465 243.019 315.387 242.924C315.352 242.564 314.816 242.69 314.93 242.986Z" fill="#8F8F8F"/>
<path d="M314.901 242.995C316.364 246.541 312.525 251.259 311.819 254.82C311.337 257.244 312.937 261.949 316.157 260.749C316.441 260.642 316.623 260.379 316.543 260.068C316.136 258.492 314.43 258.037 314.21 256.336C313.982 254.566 314.989 252.555 315.593 250.943C316.653 248.111 316.914 245.484 315.38 242.792C315.237 242.54 314.785 242.715 314.901 242.995Z" fill="#8F8F8F"/>
<path d="M319.85 260.273C325.284 259.903 325.554 250.543 331.247 251.888C333.767 252.483 337.124 257.034 339.715 254.037C339.851 253.879 339.834 253.648 339.65 253.535C337.068 251.936 332.98 248.497 329.705 249.385C324.284 250.855 322.469 255.841 319.8 260.187C319.777 260.221 319.807 260.276 319.85 260.273Z" fill="#8F8F8F"/>
<path d="M339.614 252.838C343.01 253.313 343.32 248.089 342.555 245.92C341.71 243.526 337.377 240.142 334.817 241.957C334.613 242.102 334.531 242.488 334.817 242.612C335.702 242.99 336.658 242.882 337.587 243.177C338.948 243.609 339.805 244.703 340.395 245.938C340.951 247.1 341.136 248.235 340.804 249.493C340.51 250.605 339.556 251.264 339.392 252.444C339.37 252.599 339.426 252.813 339.614 252.838Z" fill="#8F8F8F"/>
<path d="M334.898 241.71C334.499 240.589 334.267 239.419 334.296 238.228C334.321 237.126 334.812 236.058 334.947 234.963C335.025 234.339 334.166 233.889 333.674 234.233C330.966 236.123 332.248 240.135 333.974 242.248C334.323 242.676 335.08 242.22 334.898 241.71Z" fill="#8F8F8F"/>
<path d="M332.944 231.272C332.218 230.793 331.058 230.181 330.338 230.999C330.234 231.118 330.231 231.332 330.391 231.411C331.133 231.777 332.069 231.515 332.871 231.542C333.025 231.549 333.06 231.348 332.944 231.272Z" fill="#8F8F8F"/>
<path d="M330.291 224.995C330.694 221.769 329.023 215.564 325.385 214.696C323.44 214.232 321.626 215.993 321.967 217.919C322.368 220.168 324.472 222.072 325.95 223.67C326.419 224.175 329.55 226.614 328.932 224.232C328.361 222.033 325.855 220.477 324.639 218.617C324.244 218.013 323.771 217.275 324.823 217.251C325.508 217.236 326.189 218.794 326.427 219.258C327.27 220.899 328.206 223.112 328.195 224.994C328.186 226.386 330.129 226.297 330.291 224.995Z" fill="#8F8F8F"/>
<path d="M305.927 248.145C304.177 248.901 302.018 249.587 301.656 251.733C301.538 252.434 301.83 253.274 302.622 253.434C304.269 253.766 305.17 253.27 306.511 252.419C307.501 251.791 308.868 250.391 309.03 249.19C309.068 248.908 308.777 248.7 308.544 248.907C307.783 249.585 307.391 250.463 306.498 251.047C305.572 251.654 304.576 251.456 303.685 250.906C303.85 251.536 304.016 252.167 304.181 252.797C304.852 251.632 306.18 251.12 307.306 250.506C308.893 249.642 307.501 247.464 305.927 248.145Z" fill="#8F8F8F"/>
<path d="M287.101 317.754C290.116 315.332 293.133 312.696 296.432 310.682C301.621 307.516 305.263 309.733 310.44 311.003C311.154 311.179 311.853 310.39 311.426 309.719C304.393 298.67 290.575 309.731 285.409 316.447C284.604 317.495 286.232 318.452 287.101 317.754Z" fill="#8F8F8F"/>
<path d="M312.805 315.497C313.631 315.497 313.631 314.216 312.805 314.216C311.98 314.216 311.981 315.497 312.805 315.497Z" fill="#8F8F8F"/>
<path d="M312.603 314.858C312.93 317.872 308.927 318.918 306.648 319.456C304.036 320.072 301.641 320.586 299.311 322.001C294.641 324.833 294.094 332.88 300.181 334.31C300.724 334.436 301.364 334.329 301.754 333.894C301.888 333.745 302.023 333.596 302.155 333.446C302.526 333.032 302.479 332.548 302.155 332.129C301.405 331.161 300.177 331.079 299.423 330.095C297.694 327.839 299.81 325.445 301.665 324.291C303.558 323.113 306.001 322.66 308.097 321.959C312.049 320.637 313.958 318.979 313.003 314.806C312.952 314.582 312.578 314.627 312.603 314.858Z" fill="#8F8F8F"/>
<path d="M306.188 334.785C307.39 334.785 307.39 332.922 306.188 332.922C304.987 332.922 304.987 334.785 306.188 334.785Z" fill="#8F8F8F"/>
<path d="M306.189 334.377C307.799 334.448 311.4 336.355 312.551 337.461C314.622 339.451 313.785 342.458 311.823 344.002C308.404 346.691 303.483 343.915 299.846 343.187C298.112 342.839 297.574 345.111 299.133 345.768C304.489 348.022 313.152 350.258 316.376 343.871C317.818 341.015 317.163 338.267 314.793 336.256C313.554 335.204 312.357 334.198 310.959 333.357C309.561 332.515 307.65 333.135 306.187 333.33C305.536 333.417 305.494 334.347 306.189 334.377Z" fill="#8F8F8F"/>
<path d="M292.968 343.518C292.531 344.321 292.234 345.29 291.656 346.001C291.013 346.793 289.655 347.14 289.454 348.205C289.375 348.619 289.488 349.15 289.918 349.346C292.538 350.545 293.524 345.873 294.224 344.253C294.586 343.415 293.427 342.673 292.968 343.518Z" fill="#8F8F8F"/>
<path d="M288.474 349.415C284.842 349.355 281.607 345.33 279.951 342.265C278.792 340.12 280.453 338.065 281.145 336.048C281.58 334.779 284.547 334.939 285.638 334.536C286.085 334.372 286.568 334.037 286.653 333.523C286.681 333.36 286.706 333.198 286.733 333.037C286.835 332.42 286.68 331.778 286.088 331.452C285.954 331.377 285.818 331.303 285.684 331.228C285.363 331.053 284.956 331.09 284.696 331.355C283.446 332.633 280.902 333.691 279.135 334.503C276.537 335.698 275.096 338.846 275.738 341.671C276.318 344.221 278.157 347.373 280.493 348.716C282.612 349.932 286.156 350.679 288.537 349.874C288.783 349.789 288.744 349.419 288.474 349.415Z" fill="#8F8F8F"/>
<path d="M282.653 328.583C282.808 327.928 282.647 327.386 282.61 326.734C282.566 326.02 282.929 325.643 283.052 324.987C283.254 323.912 282.226 323.018 281.208 323.568C279.585 324.445 279.624 327.915 280.903 329.045C281.465 329.543 282.462 329.394 282.653 328.583Z" fill="#8F8F8F"/>
<path d="M368.275 335.619C365.899 331.161 356.123 329.796 353.449 334.597C351.999 337.203 353.34 340.565 355.596 342.167C356.782 343.009 358.312 343.996 359.722 344.376C362.207 345.046 360.506 347.65 360.422 349.151C360.397 349.586 360.905 349.817 361.256 349.628C363.179 348.592 363.404 345.776 362.348 344.039C360.984 341.794 358.681 340.969 356.767 339.342C355.803 338.521 355.517 336.839 356.114 335.735C356.688 334.675 358.4 334.544 359.434 334.502C362.141 334.392 364.836 335.358 367.081 336.813C367.851 337.312 368.669 336.355 368.275 335.619Z" fill="#8F8F8F"/>
<path d="M360.798 351.066C358.614 351.811 355.646 353.132 355.457 355.811C355.302 357.984 357.084 360.016 358.915 360.941C363.341 363.179 371.292 362.468 370.914 355.983C370.897 355.714 370.575 355.639 370.426 355.851C368.102 359.126 364.507 360.235 360.74 358.793C359.522 358.327 357.831 357.505 357.466 356.138C356.962 354.251 360.07 352.857 361.314 352.29C362.004 351.973 361.51 350.823 360.798 351.066Z" fill="#8F8F8F"/>
<path d="M371.282 356.206C371.622 356.069 371.921 356.254 372.279 356.156C372.664 356.05 373.112 355.643 373.434 355.407C374.23 354.824 373.774 353.556 372.752 353.788C372.258 353.9 371.707 354.191 371.344 354.553C370.933 354.966 371.183 355.459 370.996 355.922C370.93 356.078 371.124 356.27 371.282 356.206Z" fill="#8F8F8F"/>
<path d="M287.505 273.732C287.508 272.449 287.998 270.875 289.364 270.492C290.605 270.141 291.616 271.209 291.677 272.349C291.795 274.54 289.315 274.992 288.094 276.269C286.588 277.841 285.178 279.14 284.048 281.035C284.394 280.944 284.74 280.853 285.085 280.762C283.443 279.603 281.632 278.592 280.232 277.13C278.442 275.254 279.85 273.916 280.133 271.742C280.194 271.268 279.482 271.001 279.188 271.352C277.638 273.202 278.264 275.275 278.853 277.398C279.405 279.38 282.812 280.968 284.319 282.074C284.659 282.325 285.156 282.125 285.357 281.801C286.472 280.011 288.165 277.627 290.334 277.083C291.744 276.729 292.551 276.067 293.381 274.885C294.565 273.2 294.074 270.577 292.706 269.207C291.416 267.916 289.422 267.907 287.886 268.689C285.828 269.739 285.959 271.982 286.476 273.872C286.631 274.445 287.503 274.324 287.505 273.732Z" fill="#8F8F8F"/>
<path d="M283.222 274.331C284.103 274.296 284.647 273.853 284.911 273.016C285.151 272.26 284.238 271.555 283.569 271.983C283.195 272.223 282.901 272.461 282.569 272.752C281.962 273.284 282.441 274.362 283.222 274.331Z" fill="#8F8F8F"/>
<path d="M288.118 204.362C289.637 204.204 291.28 204.019 292.769 204.413C293.614 204.635 295.756 206.339 294.767 207.339C294.015 208.098 292.481 208.376 291.526 208.785C290.318 209.3 289.145 210.101 288.77 211.411C288.428 212.596 289.938 213.431 290.797 212.592C292.033 211.384 293.367 210.937 294.926 210.253C296.426 209.596 297.694 208.503 297.578 206.725C297.426 204.383 295.552 202.664 293.424 202.039C291.451 201.461 288.807 201.577 287.564 203.399C287.306 203.778 287.644 204.411 288.118 204.362Z" fill="#8F8F8F"/>
<path d="M288.911 215.435C288.011 216.784 288.349 218.415 286.824 219.439C285.477 220.345 283.779 219.56 282.698 218.61C281.549 217.601 280.089 219.108 281.042 220.266C282.786 222.39 285.352 223.113 287.832 221.784C289.679 220.794 291.654 217.394 290.241 215.435C289.894 214.958 289.251 214.928 288.911 215.435Z" fill="#8F8F8F"/>
</svg>
